<?xml version="1.0" encoding="utf-8"?>
<!-- Generator: Adobe Illustrator 22.1.0, SVG Export Plug-In . SVG Version: 6.00 Build 0)  -->
<svg version="1.1"
	 id="svg2" xmlns:cc="http://creativecommons.org/ns#" xmlns:dc="http://purl.org/dc/elements/1.1/" xmlns:rdf="http://www.w3.org/1999/02/22-rdf-syntax-ns#" xmlns:svg="http://www.w3.org/2000/svg"
	 xmlns="http://www.w3.org/2000/svg" xmlns:xlink="http://www.w3.org/1999/xlink" x="0px" y="0px" viewBox="0 0 711.1 740.9"
	 style="enable-background:new 0 0 711.1 740.9;" xml:space="preserve">
<style type="text/css">
	.st0{clip-path:url(#SVGID_2_);fill:#2FC0F2;}
	.st1{clip-path:url(#SVGID_2_);fill:#28AACE;}
	.st2{clip-path:url(#SVGID_2_);fill:#1C89A3;}
	.st3{clip-path:url(#SVGID_2_);fill:#F7B541;}
	.st4{clip-path:url(#SVGID_2_);fill:#FFFFFF;}
</style>
<g>
	<defs>
		<rect id="SVGID_1_" x="-177.8" y="-121.2" width="1066.7" height="1066.7"/>
	</defs>
	<clipPath id="SVGID_2_">
		<use xlink:href="#SVGID_1_"  style="overflow:visible;"/>
	</clipPath>
	<path id="path24" class="st0" d="M681.9,374.1c0,180.7-146.5,327.1-327.1,327.1c-180.7,0-327.1-146.5-327.1-327.1
		c0-180.7,146.5-327.1,327.1-327.1C535.4,46.9,681.9,193.4,681.9,374.1"/>
	<path id="path28" class="st1" d="M354.9,603.1l72.1,89.5c0,0,206.7-37.8,250.7-265.3L520.3,224.2L354.9,603.1z"/>
	<path id="path32" class="st2" d="M463.9,206H356.5h0H249.1c0,0-16.4,28.8-38.9,31.4c-79.8,276.2,146.2,344.4,146.3,344.4h0
		c0.1,0,226.1-68.3,146.3-344.4C480.3,234.8,463.9,206,463.9,206"/>
	<path id="path36" class="st3" d="M452.6,223.4h-97.7h0h-97.7c0,0-14.9,26.1-35.4,28.4c-72.6,249.5,133,311.1,133.1,311.2h0
		c0.1,0,205.6-61.7,133.1-311.2C467.5,249.4,452.6,223.4,452.6,223.4"/>
	<path id="path40" class="st4" d="M354.9,581.8c-30.1-10.2-219-85.6-146.8-340.1c18.9-5.6,32.6-22.2,38.8-31.1h216.1
		c6.2,8.9,19.9,25.5,38.8,31.1C573.8,496.3,384.9,571.6,354.9,581.8 M522.3,230.8l-2-6.6l-7.7-0.9c-14.6-1.6-28.9-20.8-32.8-27.4
		l-3.2-5.5H233.1l-3.2,5.5c-3.8,6.6-18,25.7-32.8,27.4l-7.7,0.9l-1.9,6.6c-87.9,297,161.6,370.8,164.2,371.5l3.3,0.9l3.3-0.9
		C360.8,601.5,609.5,525.6,522.3,230.8"/>
	<path id="path44" class="st4" d="M322.1,340.2c0-30.7,16.3-37.5,32.5-37.5c16.2,0,32.5,6.9,32.5,37.5H322.1z M367.1,425.5h-25
		l4.8-34.9c-4.9-2.8-8.2-8.7-8.2-14.7c0-8.9,7.2-16.4,16.1-16.4c8.9,0,16.1,7,16.1,15.9c0,6.2-3.5,12.7-8.5,15.4L367.1,425.5z
		 M409.6,340.2h-7.5c0-33.3-20-52.5-47.5-52.5c-27.5,0-47.5,19.2-47.5,52.5h-7.5c-11.1,0-14.7,4.1-14.7,15.2v70
		c0,11.1,3.7,21.5,14.7,21.5h110.1c11.1,0,17.9-10.4,17.9-21.5v-70C427.5,344.3,420.7,340.2,409.6,340.2"/>
</g>
</svg>
