<svg xmlns="http://www.w3.org/2000/svg" xmlns:xlink="http://www.w3.org/1999/xlink" viewBox="0 0 168 140">
  <defs>
    <style>
      .cls-1 {
        clip-path: url(#clip-_340362-PAM3XC-559);
      }

      .cls-2, .cls-21 {
        fill: #f79971;
      }

      .cls-3 {
        fill: #dc8863;
      }

      .cls-4 {
        fill: #f6885c;
      }

      .cls-5 {
        fill: #2f9466;
      }

      .cls-6 {
        fill: #3cbb7a;
      }

      .cls-7 {
        fill: #f57442;
      }

      .cls-8 {
        fill: #f68457;
      }

      .cls-9 {
        fill: #fff;
      }

      .cls-10 {
        fill: #ec7c4f;
      }

      .cls-11 {
        fill: #e2794d;
      }

      .cls-12 {
        fill: #34a970;
      }

      .cls-13 {
        fill: #dcddda;
      }

      .cls-14 {
        fill: #fcd3c2;
      }

      .cls-15 {
        fill: #f8a07a;
      }

      .cls-16 {
        fill: #fbc7b2;
      }

      .cls-17 {
        fill: #c2c3c1;
      }

      .cls-18 {
        fill: #e08a65;
      }

      .cls-19 {
        fill: #ddb9a8;
      }

      .cls-20 {
        fill: #c16139;
      }

      .cls-21, .cls-23 {
        font-size: 1px;
        font-family: OpenSans-Italic, Open Sans;
        font-style: italic;
      }

      .cls-22 {
        fill: #a2b0e0;
      }

      .cls-23, .cls-47 {
        fill: #4c54ae;
      }

      .cls-24 {
        fill: #6d81c9;
      }

      .cls-25 {
        fill: #e08f6e;
      }

      .cls-26 {
        fill: #ddb09d;
      }

      .cls-27 {
        fill: #e56a3a;
      }

      .cls-28 {
        fill: #bfc8ea;
      }

      .cls-29 {
        fill: #f6831e;
      }

      .cls-30 {
        fill: #a8b5e2;
      }

      .cls-31 {
        fill: #6379c5;
      }

      .cls-32 {
        fill: #452217;
      }

      .cls-33 {
        fill: #802b72;
      }

      .cls-34 {
        fill: #5c2151;
      }

      .cls-35 {
        fill: #6f2662;
      }

      .cls-36 {
        fill: #4f1d46;
      }

      .cls-37 {
        fill: #f36479;
      }

      .cls-38 {
        fill: #e55b6c;
      }

      .cls-39 {
        fill: #f57f92;
      }

      .cls-40 {
        fill: #e27381;
      }

      .cls-41 {
        fill: #902f81;
      }

      .cls-42 {
        fill: #ef2f95;
      }

      .cls-43 {
        fill: #e82886;
      }

      .cls-44 {
        fill: #572a1c;
      }

      .cls-45 {
        fill: #fcd8c8;
      }

      .cls-46 {
        fill: #4c2419;
      }

      .cls-48 {
        fill: #1f5b54;
      }

      .cls-49 {
        fill: #53c5b0;
      }

      .cls-50 {
        fill: #3fa392;
      }

      .cls-51 {
        fill: #474fab;
      }

      .cls-52 {
        fill: #27326f;
      }

      .cls-53 {
        fill: #e17c51;
      }

      .cls-54 {
        fill: #45c0a6;
      }

      .cls-55 {
        fill: #388f82;
      }

      .cls-56 {
        fill: #bc5c34;
      }

      .cls-57 {
        fill: #bf5d35;
      }

      .cls-58 {
        fill: #d96638;
      }

      .cls-59 {
        fill: #c0c1bf;
      }

      .cls-60 {
        fill: #a85633;
      }

      .cls-61 {
        fill: #485db4;
      }

      .cls-62 {
        fill: #4055aa;
      }

      .cls-63 {
        fill: #596ebf;
      }

      .cls-64 {
        fill: #fabda1;
      }

      .cls-65 {
        fill: #9eabde;
      }

      .cls-66 {
        fill: #2e9465;
      }

      .cls-67 {
        fill: #dda68e;
      }

      .cls-68 {
        fill: #a7b1e0;
      }

      .cls-69 {
        fill: #8b99d5;
      }

      .cls-70 {
        fill: #e37718;
      }

      .cls-71 {
        fill: #f9ab89;
      }

      .cls-72 {
        fill: #3d46a3;
      }

      .cls-73 {
        fill: #687dc7;
      }
    </style>
    <clipPath id="clip-_340362-PAM3XC-559">
      <rect width="168" height="140"/>
    </clipPath>
  </defs>
  <g id="_340362-PAM3XC-559" data-name="340362-PAM3XC-559" class="cls-1">
    <rect class="cls-9" width="168" height="140"/>
    <g id="Group_23" data-name="Group 23" transform="translate(-16.663 -12.956)">
      <g id="Group_22" data-name="Group 22">
        <g id="Group_21" data-name="Group 21">
          <g id="Group_20" data-name="Group 20">
            <path id="path14" class="cls-2" d="M0-546.953H146.281V-666.665H0Z" transform="translate(24.663 689.621)"/>
            <path id="path16" class="cls-3" d="M504.932-103.453c0,.2-.955.354-2.133.354s-2.133-.158-2.133-.354.955-.354,2.133-.354,2.133.158,2.133.354" transform="translate(-366.145 233.694)"/>
            <path id="path18" class="cls-3" d="M573.02-103.453c0,.2-.955.354-2.133.354s-2.133-.158-2.133-.354.955-.354,2.133-.354,2.133.158,2.133.354" transform="translate(-419.293 233.694)"/>
            <path id="path20" class="cls-3" d="M539.223-103.453c0,.2-.955.354-2.133.354s-2.133-.158-2.133-.354.955-.354,2.133-.354,2.133.158,2.133.354" transform="translate(-392.912 233.694)"/>
            <path id="path22" class="cls-3" d="M268.071-110.736c0,.472-11.789.854-26.331.854s-26.331-.382-26.331-.854,11.788-.854,26.331-.854,26.331.382,26.331.854" transform="translate(-143.481 239.77)"/>
            <path id="path24" class="cls-3" d="M70.162-123.1c0,.518-10.707.937-23.914.937s-23.914-.42-23.914-.937,10.707-.937,23.914-.937,23.914.42,23.914.937" transform="translate(7.23 249.486)"/>
            <path id="path26" class="cls-4" d="M10.222-382.415h141s3.988-70.227-6.875-72.177-17.495,39.964-26.272,41.144c-4.063.546-8.457-3.6-13.2-7.738-5.5-4.806-11.461-9.612-17.907-7.095-12,4.686-8.769,31.005-22.805,30.038s-17.384-7.115-26.305-6.767-27.645,22.594-27.645,22.594" transform="translate(16.684 507.561)"/>
            <path id="path28" class="cls-5" d="M397.464-272.092s3.072-40.238-3.95-41.1c-3.58-.441-5.012,3.946-6.481,8.333-1.413,4.219-2.86,8.438-6.284,8.363-6.983-.152-10.8-6-13.355.29s-2.615,12.4-8.654,10.515-14.956,13.6-14.956,13.6h53.679" transform="translate(-243.687 397.162)"/>
            <path id="path30" class="cls-6" d="M432.843-245.727h54.709s3.949-21.857-1.17-25.374-5.851,3.209-8.923,3.357c-1.539.074-2.454-2.913-3.48-5.9s-2.156-5.951-4.126-5.9c-3.95.1-4.92,12.164-9.043,13.958-1.79.779-3.778.1-5.661-.575-2.454-.882-4.732-1.764-6.166.575-2.535,4.135-.454,11.924-4.859,11.833s-10.987-1.7-11.28,8.028" transform="translate(-313.204 370.873)"/>
            <path id="path32" class="cls-5" d="M601.289-258.613s.011.131.031.379c.14,1.732.7,9.168.7,17.15a109.964,109.964,0,0,1-.537,11.685l.291.032a110.2,110.2,0,0,0,.539-11.718c0-9.138-.734-17.551-.734-17.554l-.291.025" transform="translate(-444.69 354.552)"/>
            <path id="path34" class="cls-5" d="M663.085-227.388s.017.216.043.611c.078,1.183.233,3.96.233,7.239a75.317,75.317,0,0,1-.356,7.714,25.067,25.067,0,0,1-1.446,6.661l.27.113a25.346,25.346,0,0,0,1.467-6.743,75.6,75.6,0,0,0,.357-7.745c0-4.385-.277-7.87-.278-7.873l-.292.023" transform="translate(-491.736 330.177)"/>
            <path id="path36" class="cls-5" d="M660.044-222.7l2.081,2.028.2-.209-2.081-2.028" transform="translate(-490.552 326.664)"/>
            <path id="path38" class="cls-5" d="M655.606-200.357l3.147,2.384.177-.233-3.148-2.384" transform="translate(-487.089 309.241)"/>
            <path id="path40" class="cls-5" d="M652.429-180.322l3.626,2.853.181-.23-3.626-2.853" transform="translate(-484.609 293.6)"/>
            <path id="path42" class="cls-5" d="M604.339-253.714l-1.738,2.442.238.17,1.738-2.442" transform="translate(-445.714 350.709)"/>
            <path id="path44" class="cls-5" d="M587.491-246.746l3.475,3.343.2-.211-3.474-3.343" transform="translate(-433.919 345.434)"/>
            <path id="path46" class="cls-5" d="M607.974-226.754l-3.665,4.085.218.2,3.665-4.085" transform="translate(-447.047 329.664)"/>
            <path id="path48" class="cls-5" d="M579.264-217.267l5.61,5.5.2-.209-5.61-5.5" transform="translate(-427.497 322.422)"/>
            <path id="path50" class="cls-5" d="M611.456-204.951l-6.631,6.4.2.211,6.631-6.4" transform="translate(-447.45 312.646)"/>
            <path id="path52" class="cls-5" d="M571.059-185.719,578.383-179l.2-.216-7.325-6.714" transform="translate(-421.093 297.801)"/>
            <path id="path54" class="cls-5" d="M611.83-168.906l-7.861,5.461.167.24L612-168.666" transform="translate(-446.782 284.51)"/>
            <path id="path56" class="cls-5" d="M520.291-204.588s.044.137.123.4a71.29,71.29,0,0,1,2.99,16.934l.293-.008a72.174,72.174,0,0,0-3.128-17.411l-.278.09" transform="translate(-381.464 312.432)"/>
            <path id="path58" class="cls-5" d="M525.894-201.261l-1.051,2.786.274.1,1.051-2.786" transform="translate(-385.017 309.765)"/>
            <path id="path60" class="cls-5" d="M533.572-194.913,530.3-188.06l.264.126,3.272-6.853" transform="translate(-389.277 304.81)"/>
            <path id="path62" class="cls-5" d="M537.043-167.372l-3.492,5.757.25.152,3.492-5.757" transform="translate(-391.815 283.312)"/>
            <path id="path64" class="cls-5" d="M514.624-189.526l2.588,1.3.132-.262-2.588-1.3" transform="translate(-377.041 300.809)"/>
            <path id="path66" class="cls-5" d="M508.183-170.478l5.1,2.548.13-.262-5.1-2.548" transform="translate(-372.013 285.941)"/>
            <path id="path68" class="cls-5" d="M513.253-146.142l4.59,1.779.106-.273-4.59-1.779" transform="translate(-375.971 266.953)"/>
            <path id="path70" class="cls-7" d="M613.326-180.385l-2.519,10.711a1.188,1.188,0,0,1-1.428.884,1.187,1.187,0,0,1-.884-1.428l2.52-10.711a1.187,1.187,0,0,1,1.428-.884h0a1.187,1.187,0,0,1,.884,1.428" transform="translate(-450.29 294.609)"/>
            <path id="path72" class="cls-7" d="M597.8-178.044l2.225,10.776a1.188,1.188,0,0,1-.923,1.4,1.187,1.187,0,0,1-1.4-.923l-2.225-10.776a1.188,1.188,0,0,1,.923-1.4,1.187,1.187,0,0,1,1.4.923" transform="translate(-440.129 292.382)"/>
            <path id="path74" class="cls-8" d="M92.9-501.041v-34.6H67.414v90.013h51.008v-55.409H92.9" transform="translate(-27.959 570.777)"/>
            <path id="path76" class="cls-9" d="M114.9-507.1h-2.861v-.878H114.9v.878" transform="translate(-62.789 549.181)"/>
            <path id="path78" class="cls-9" d="M136.6-507.1h-2.862v-.878H136.6v.878" transform="translate(-79.729 549.181)"/>
            <path id="path80" class="cls-9" d="M158.3-507.1h-2.862v-.878H158.3v.878" transform="translate(-96.668 549.181)"/>
            <path id="path82" class="cls-9" d="M114.9-492.1h-2.861v-.878H114.9v.878" transform="translate(-62.789 537.472)"/>
            <path id="path84" class="cls-9" d="M136.6-492.1h-2.862v-.878H136.6v.878" transform="translate(-79.729 537.472)"/>
            <path id="path86" class="cls-9" d="M158.3-492.1h-2.862v-.878H158.3v.878" transform="translate(-96.668 537.472)"/>
            <path id="path88" class="cls-9" d="M114.9-477.1h-2.861v-.878H114.9v.878" transform="translate(-62.789 525.764)"/>
            <path id="path90" class="cls-9" d="M136.6-477.1h-2.862v-.878H136.6v.878" transform="translate(-79.729 525.764)"/>
            <path id="path92" class="cls-9" d="M158.3-477.1h-2.862v-.878H158.3v.878" transform="translate(-96.668 525.764)"/>
            <path id="path94" class="cls-9" d="M114.9-462.1h-2.861v-.878H114.9v.878" transform="translate(-62.789 514.055)"/>
            <path id="path96" class="cls-9" d="M136.6-462.1h-2.862v-.878H136.6v.878" transform="translate(-79.729 514.055)"/>
            <path id="path98" class="cls-9" d="M158.3-462.1h-2.862v-.878H158.3v.878" transform="translate(-96.668 514.055)"/>
            <path id="path100" class="cls-10" d="M67.414-445.708h7.661v-89.937H67.414Z" transform="translate(-27.959 570.778)"/>
            <path id="path102" class="cls-6" d="M41.441-241.189s-2.423-31.74,3.115-32.422c2.823-.348,3.953,3.113,5.112,6.573,1.115,3.328,2.256,6.656,4.957,6.6,5.508-.12,8.521-4.73,10.534.228s2.063,9.783,6.827,8.294,11.8,10.729,11.8,10.729H41.441" transform="translate(-7.273 366.258)"/>
            <path id="path104" class="cls-11" d="M114.225-218.475h0a22.329,22.329,0,0,0,2.893-.982h0a22.321,22.321,0,0,1-2.893.982" transform="translate(-64.498 323.968)"/>
            <path id="path106" class="cls-12" d="M141.009-198.9h-5.537c.47-1.8.817-3.426.623-3.95-.216-.581-1.035-2.187-1.864-3.768h1.075a45.745,45.745,0,0,1,5.7,7.717m-8.041,0h-.856a10.945,10.945,0,0,0,1.008-3.194c-.012-.144-.032-.361-.057-.636l.68,1.123a10.5,10.5,0,0,0-.775,2.706m-3.694,0h-4.59v-.329h-2.007l-.141-.916h-.017l-.924-5.492-1.509.254v-1.235H128.8c.011.029.023.058.033.086.39,1.048,1.682,4.388,1.682,4.388a15.73,15.73,0,0,0-1.238,3.243m-12.156-9.088h-2.893v-10.488a22.236,22.236,0,0,0,2.893-.981v11.469" transform="translate(-64.498 323.966)"/>
            <path id="path108" class="cls-9" d="M277.3-161.448a24.639,24.639,0,0,0-22.723-15.109,24.64,24.64,0,0,0-22.723,15.109H277.3" transform="translate(-156.314 290.481)"/>
            <path id="path110" class="cls-13" d="M296.532-159.113h-30.4a24.685,24.685,0,0,1,2.662-1.823h25.08a24.682,24.682,0,0,1,2.662,1.823" transform="translate(-183.071 278.288)"/>
            <path id="path112" class="cls-9" d="M127.41-385.111h91.28v-63.016H127.41Z" transform="translate(-74.79 502.463)"/>
            <path id="path114" class="cls-14" d="M142.868-366.472h84.5v-52.467h-84.5Z" transform="translate(-86.856 479.68)"/>
            <path id="path116" class="cls-15" d="M142.868-366.472h20.775v-52.467H142.868Z" transform="translate(-86.856 479.68)"/>
            <path id="path118" class="cls-2" d="M142.868-414.226h84.5v-4.713h-84.5Z" transform="translate(-86.856 479.68)"/>
            <path id="path120" class="cls-7" d="M163.642-414.226H142.868v-4.713h20.775v4.713" transform="translate(-86.856 479.68)"/>
            <path id="path122" class="cls-13" d="M333.352-435.545a.8.8,0,0,1-.8.8.8.8,0,0,1-.8-.8.8.8,0,0,1,.8-.8.8.8,0,0,1,.8.8" transform="translate(-234.288 493.27)"/>
            <path id="path124" class="cls-9" d="M151.6-413.3h-2.682v-.293H151.6v.293" transform="translate(-91.576 475.503)"/>
            <path id="path126" class="cls-9" d="M151.6-410.462h-2.682v-.293H151.6v.293" transform="translate(-91.576 473.291)"/>
            <path id="path128" class="cls-9" d="M151.6-407.629h-2.682v-.293H151.6v.293" transform="translate(-91.576 471.08)"/>
            <path id="path130" class="cls-16" d="M317.691-364.952H270v-14.58h47.688v14.58" transform="translate(-186.095 448.919)"/>
            <path id="path132" class="cls-2" d="M282.124-367.806H267.541V-382.39h14.583v14.583" transform="translate(-184.173 451.15)"/>
            <path id="path134" class="cls-7" d="M285.286-364.645v-.146H273.728V-376.2h11.411v11.558h.146v0h.146V-376.5h-12v12h12v-.146h-.146" transform="translate(-188.774 446.549)"/>
            <path id="path136" class="cls-7" d="M273.63-376.094l11.7,11.7.207-.207-11.7-11.7" transform="translate(-188.926 446.397)"/>
            <path id="path138" class="cls-7" d="M273.837-364.39l11.7-11.7-.207-.207-11.7,11.7" transform="translate(-188.926 446.397)"/>
            <path id="path140" class="cls-9" d="M367.112-367.806H334V-382.39h33.108v14.583" transform="translate(-236.052 451.15)"/>
            <path id="path142" class="cls-13" d="M450.354-325.808H443v-1.39h7.351v1.39" transform="translate(-321.135 408.069)"/>
            <path id="path144" class="cls-17" d="M347.734-375.378h-10.9v-2.487h10.9v2.487" transform="translate(-238.264 447.618)"/>
            <path id="path146" class="cls-17" d="M351.757-360.878H336.837v-2.487h14.921v2.487" transform="translate(-238.264 436.299)"/>
            <path id="path148" class="cls-13" d="M367.482-346.865H336.837v-.435h30.646v.435" transform="translate(-238.264 423.76)"/>
            <path id="path150" class="cls-13" d="M367.482-342.262H336.837v-.436h30.646v.436" transform="translate(-238.264 420.167)"/>
            <path id="path152" class="cls-13" d="M345.5-337.658h-8.667v-.436H345.5v.436" transform="translate(-238.264 416.574)"/>
            <path id="path154" class="cls-13" d="M380.689-337.658h-.435v-.436h.435v.436" transform="translate(-272.154 416.574)"/>
            <path id="path156" class="cls-13" d="M385.072-337.658h-.435v-.436h.435v.436" transform="translate(-275.575 416.574)"/>
            <path id="path158" class="cls-13" d="M389.454-337.658h-.435v-.436h.435v.436" transform="translate(-278.996 416.574)"/>
            <path id="path160" class="cls-13" d="M393.837-337.658H393.4v-.436h.435v.436" transform="translate(-282.417 416.574)"/>
            <path id="path162" class="cls-16" d="M270-262.618h47.688V-277.2H270Z" transform="translate(-186.095 369.04)"/>
            <path id="path164" class="cls-2" d="M267.541-265.474h14.583v-14.584H267.541Z" transform="translate(-184.173 371.272)"/>
            <path id="path166" class="cls-7" d="M285.286-262.312v-.146H273.728v-11.411h11.411v11.558h.146v0h.146v-11.85h-12v12h12v-.146h-.146" transform="translate(-188.774 366.67)"/>
            <path id="path168" class="cls-7" d="M273.631-273.76l11.7,11.7.207-.207-11.7-11.7-.207.207" transform="translate(-188.927 366.518)"/>
            <path id="path170" class="cls-7" d="M273.838-262.057l11.7-11.7-.207-.207-11.7,11.7.207.207" transform="translate(-188.927 366.518)"/>
            <path id="path172" class="cls-9" d="M367.112-265.473H334v-14.583h33.108v14.583" transform="translate(-236.052 371.271)"/>
            <path id="path174" class="cls-13" d="M450.354-223.475H443v-1.39h7.351v1.39" transform="translate(-321.135 328.19)"/>
            <path id="path176" class="cls-17" d="M347.734-273.045h-10.9v-2.487h10.9v2.487" transform="translate(-238.264 367.739)"/>
            <path id="path178" class="cls-17" d="M351.757-258.545H336.837v-2.487h14.921v2.487" transform="translate(-238.264 356.42)"/>
            <path id="path180" class="cls-13" d="M367.482-244.532H336.837v-.435h30.646v.435" transform="translate(-238.264 343.881)"/>
            <path id="path182" class="cls-13" d="M367.482-239.929H336.837v-.436h30.646v.436" transform="translate(-238.264 340.289)"/>
            <path id="path184" class="cls-13" d="M345.5-235.325h-8.667v-.436H345.5v.436" transform="translate(-238.264 336.695)"/>
            <path id="path186" class="cls-13" d="M380.689-235.325h-.435v-.436h.435v.436" transform="translate(-272.154 336.695)"/>
            <path id="path188" class="cls-13" d="M385.072-235.325h-.435v-.436h.435v.436" transform="translate(-275.575 336.695)"/>
            <path id="path190" class="cls-13" d="M389.454-235.325h-.435v-.436h.435v.436" transform="translate(-278.996 336.695)"/>
            <path id="path192" class="cls-13" d="M393.837-235.325H393.4v-.436h.435v.436" transform="translate(-282.417 336.695)"/>
            <path id="path194" class="cls-16" d="M520.635-346.256h.293v-44.981h-.293Z" transform="translate(-381.733 458.057)"/>
            <path id="path196" class="cls-9" d="M519.936-370.179h0a.384.384,0,0,1-.384-.384v-14.957a.384.384,0,0,1,.384-.384.384.384,0,0,1,.384.384v14.957a.384.384,0,0,1-.384.384" transform="translate(-380.888 453.894)"/>
            <path id="path198" class="cls-16" d="M348.511-298.177l-.8.723a1.036,1.036,0,0,1-.7.269,1.035,1.035,0,0,1-.7-.269l-.1.108.1-.1h0l0,0,0,0a1.327,1.327,0,0,0-.894-.346,1.326,1.326,0,0,0-.894.346l0,0,0,0,.1.1-.1-.108a1.036,1.036,0,0,1-.7.269,1.035,1.035,0,0,1-.7-.269l-.1.108.1-.1h0l0,0,0,0a1.327,1.327,0,0,0-.894-.346,1.326,1.326,0,0,0-.894.346l0,0,0,0,.1.1-.1-.108a1.036,1.036,0,0,1-.7.269,1.035,1.035,0,0,1-.7-.269l-.1.108.1-.1h0l0,0,0,0a1.327,1.327,0,0,0-.894-.346,1.326,1.326,0,0,0-.894.346l0,0,0,0,.1.1-.1-.108a1.036,1.036,0,0,1-.7.269,1.035,1.035,0,0,1-.7-.269l-.1.108.1-.1h0l0,0,0,0a1.327,1.327,0,0,0-.894-.346,1.327,1.327,0,0,0-.894.346l0,0,0,0,.1.1-.1-.108a1.036,1.036,0,0,1-.7.269,1.035,1.035,0,0,1-.7-.269l-.1.108.1-.1h0l0,0,0,0a1.328,1.328,0,0,0-.894-.346,1.327,1.327,0,0,0-.894.346l0,0,0,0,.1.1-.1-.108a1.036,1.036,0,0,1-.7.269,1.035,1.035,0,0,1-.7-.269l-.1.108.1-.1h0l0,0,0,0a1.327,1.327,0,0,0-.894-.346,1.326,1.326,0,0,0-.894.346l-.048.043v.065h.146l-.1-.108a1.036,1.036,0,0,1-.7.269,1.035,1.035,0,0,1-.7-.269l-.8-.723-.2.216.8.723a1.327,1.327,0,0,0,.894.346,1.327,1.327,0,0,0,.894-.346l.048-.043v-.065h-.146l.1.108a1.034,1.034,0,0,1,.7-.269,1.034,1.034,0,0,1,.7.269l.1-.108-.1.1h0l0,0,0,0a1.326,1.326,0,0,0,.894.346,1.326,1.326,0,0,0,.894-.346l0,0,0,0-.1-.1.1.108a1.034,1.034,0,0,1,.7-.269,1.034,1.034,0,0,1,.7.269l.1-.108-.1.1h0l0,0,0,0a1.326,1.326,0,0,0,.894.346,1.326,1.326,0,0,0,.894-.346l0,0,0,0-.1-.1.1.108a1.034,1.034,0,0,1,.7-.269,1.034,1.034,0,0,1,.7.269l.1-.108-.1.1h0l0,0,0,0a1.326,1.326,0,0,0,.894.346,1.326,1.326,0,0,0,.894-.346l0,0,0,0-.1-.1.1.108a1.034,1.034,0,0,1,.7-.269,1.034,1.034,0,0,1,.7.269l.1-.108-.1.1h0l0,0,0,0a1.326,1.326,0,0,0,.894.346,1.326,1.326,0,0,0,.894-.346l0,0,0,0-.1-.1.1.108a1.034,1.034,0,0,1,.7-.269,1.034,1.034,0,0,1,.7.269l.1-.108-.1.1h0l0,0,0,0a1.326,1.326,0,0,0,.894.346,1.326,1.326,0,0,0,.894-.346l0,0,0,0-.1-.1.1.108a1.034,1.034,0,0,1,.7-.269,1.034,1.034,0,0,1,.7.269l.1-.108-.1.1h0l0,0,0,0a1.326,1.326,0,0,0,.894.346,1.326,1.326,0,0,0,.894-.346l.8-.723-.2-.216" transform="translate(-229.992 385.415)"/>
            <path id="path200" class="cls-16" d="M348.511-195.844l-.8.723a1.036,1.036,0,0,1-.7.269,1.035,1.035,0,0,1-.7-.269l-.1.108.1-.1h0l0,0,0,0a1.328,1.328,0,0,0-.894-.346,1.326,1.326,0,0,0-.894.346l0,0,0,0,.1.1-.1-.108a1.036,1.036,0,0,1-.7.269,1.035,1.035,0,0,1-.7-.269l-.1.108.1-.1h0l0,0,0,0a1.327,1.327,0,0,0-.894-.346,1.326,1.326,0,0,0-.894.346l0,0,0,0,.1.1-.1-.108a1.036,1.036,0,0,1-.7.269,1.035,1.035,0,0,1-.7-.269l-.1.108.1-.1h0l0,0,0,0a1.327,1.327,0,0,0-.894-.346,1.326,1.326,0,0,0-.894.346l0,0,0,0,.1.1-.1-.108a1.035,1.035,0,0,1-.7.269,1.035,1.035,0,0,1-.7-.269l-.1.108.1-.1h0l0,0,0,0a1.328,1.328,0,0,0-.894-.346,1.327,1.327,0,0,0-.894.346l0,0,0,0,.1.1-.1-.108a1.035,1.035,0,0,1-.7.269,1.035,1.035,0,0,1-.7-.269l-.1.108.1-.1h0l0,0,0,0a1.328,1.328,0,0,0-.894-.346,1.326,1.326,0,0,0-.894.346l0,0,0,0,.1.1-.1-.108a1.035,1.035,0,0,1-.7.269,1.035,1.035,0,0,1-.7-.269l-.1.108.1-.1h0l0,0,0,0a1.328,1.328,0,0,0-.894-.346,1.326,1.326,0,0,0-.894.346l-.048.043v.065h.146l-.1-.108a1.036,1.036,0,0,1-.7.269,1.035,1.035,0,0,1-.7-.269l-.8-.723-.2.217.8.723a1.327,1.327,0,0,0,.894.346,1.327,1.327,0,0,0,.894-.346l.048-.043v-.065h-.146l.1.108a1.034,1.034,0,0,1,.7-.269,1.034,1.034,0,0,1,.7.269l.1-.108-.1.1h0l0,0,0,0a1.326,1.326,0,0,0,.894.346A1.326,1.326,0,0,0,332-194.9l0,0,0,0-.1-.1.1.108a1.034,1.034,0,0,1,.7-.269,1.034,1.034,0,0,1,.7.269l.1-.108-.1.1h0l0,0,0,0a1.326,1.326,0,0,0,.894.346,1.326,1.326,0,0,0,.894-.346l0,0,0,0-.1-.1.1.108a1.034,1.034,0,0,1,.7-.269,1.034,1.034,0,0,1,.7.269l.1-.108-.1.1h0l0,0,0,0a1.327,1.327,0,0,0,.894.346,1.326,1.326,0,0,0,.894-.346l0,0,0,0-.1-.1.1.108a1.034,1.034,0,0,1,.7-.269,1.034,1.034,0,0,1,.7.269l.1-.108-.1.1h0l0,0,0,0a1.326,1.326,0,0,0,.894.346,1.326,1.326,0,0,0,.894-.346l0,0,0,0-.1-.1.1.108a1.034,1.034,0,0,1,.7-.269,1.034,1.034,0,0,1,.7.269l.1-.108-.1.1h0l0,0,0,0a1.327,1.327,0,0,0,.894.346,1.326,1.326,0,0,0,.894-.346l0,0,0,0-.1-.1.1.108a1.034,1.034,0,0,1,.7-.269,1.034,1.034,0,0,1,.7.269l.1-.108-.1.1h0l0,0,0,0a1.327,1.327,0,0,0,.894.346,1.326,1.326,0,0,0,.894-.346l.8-.723-.2-.217" transform="translate(-229.992 305.536)"/>
            <path id="path202" class="cls-16" d="M511.931-412.25a.616.616,0,0,1-.87,0,.616.616,0,0,1,0-.87.616.616,0,0,1,.87,0,.616.616,0,0,1,0,.87m-1.025-1.025a.835.835,0,0,0,0,1.18.833.833,0,0,0,1.095.069l.841.841.155-.155-.841-.841a.832.832,0,0,0-.07-1.094.835.835,0,0,0-1.18,0" transform="translate(-373.948 475.449)"/>
            <path id="path204" class="cls-16" d="M157.643-378.361a1.17,1.17,0,0,1-1.17,1.17,1.17,1.17,0,0,1-1.17-1.17,1.17,1.17,0,0,1,1.17-1.17,1.17,1.17,0,0,1,1.17,1.17" transform="translate(-96.562 448.919)"/>
            <path id="path206" class="cls-16" d="M182.5-375.216H171.969v-.8H182.5v.8" transform="translate(-109.572 446.172)"/>
            <path id="path208" class="cls-16" d="M157.643-356.528a1.17,1.17,0,0,1-1.17,1.17,1.17,1.17,0,0,1-1.17-1.17,1.17,1.17,0,0,1,1.17-1.17,1.17,1.17,0,0,1,1.17,1.17" transform="translate(-96.562 431.876)"/>
            <path id="path210" class="cls-16" d="M182.5-353.383H171.969v-.8H182.5v.8" transform="translate(-109.572 429.13)"/>
            <path id="path212" class="cls-16" d="M157.643-334.694a1.17,1.17,0,0,1-1.17,1.17,1.17,1.17,0,0,1-1.17-1.17,1.17,1.17,0,0,1,1.17-1.17,1.17,1.17,0,0,1,1.17,1.17" transform="translate(-96.562 414.834)"/>
            <path id="path214" class="cls-16" d="M182.5-331.549H171.969v-.8H182.5v.8" transform="translate(-109.572 412.087)"/>
            <path id="path216" class="cls-16" d="M157.643-312.861a1.17,1.17,0,0,1-1.17,1.17,1.17,1.17,0,0,1-1.17-1.17,1.17,1.17,0,0,1,1.17-1.17,1.17,1.17,0,0,1,1.17,1.17" transform="translate(-96.562 397.791)"/>
            <path id="path218" class="cls-16" d="M182.5-309.716H171.969v-.8H182.5v.8" transform="translate(-109.572 395.044)"/>
            <path id="path220" class="cls-16" d="M157.643-291.028a1.17,1.17,0,0,1-1.17,1.17,1.17,1.17,0,0,1-1.17-1.17,1.17,1.17,0,0,1,1.17-1.17,1.17,1.17,0,0,1,1.17,1.17" transform="translate(-96.562 380.748)"/>
            <path id="path222" class="cls-16" d="M182.5-287.883H171.969v-.8H182.5v.8" transform="translate(-109.572 378.002)"/>
            <path id="path224" class="cls-16" d="M157.643-269.194a1.17,1.17,0,0,1-1.17,1.17,1.17,1.17,0,0,1-1.17-1.17,1.17,1.17,0,0,1,1.17-1.17,1.17,1.17,0,0,1,1.17,1.17" transform="translate(-96.562 363.706)"/>
            <path id="path226" class="cls-16" d="M182.5-266.049H171.969v-.8H182.5v.8" transform="translate(-109.572 360.959)"/>
            <path id="path228" class="cls-7" d="M307.81-411.221H286.226v-2.362H307.81v2.362" transform="translate(-198.758 475.499)"/>
            <path id="path230" class="cls-18" d="M545.636-398.527l-.056-.036c.029-.021.056-.044.083-.068-.007.035-.016.07-.027.1" transform="translate(-401.204 463.828)"/>
            <path id="path232" class="cls-13" d="M528.5-396.6h-.061a1.664,1.664,0,0,1,.158-.628v-.005h.464l-.56.633m-.126,0h-.42v-.633h.374a2.338,2.338,0,0,0,.047.633" transform="translate(-387.444 462.737)"/>
            <path id="path234" class="cls-19" d="M481.264-396.778h-8.706a4.352,4.352,0,0,0-.181-.633h8.887v.633m-11.05,0h-1a1.188,1.188,0,0,1-1.075-.683h1.1a1.183,1.183,0,0,0,.341.05h1.986v0h-2.031l.678.628" transform="translate(-340.757 462.914)"/>
            <path id="path236" class="cls-18" d="M468.84-402.39h-1.1a1.186,1.186,0,0,1-.112-.5h0a1.184,1.184,0,0,1,.391-.881,1.173,1.173,0,0,0-.026.248,1.188,1.188,0,0,0,.846,1.138" transform="translate(-340.357 467.844)"/>
            <path id="path238" class="cls-20" d="M485.319-405.683H470.481a1.187,1.187,0,0,1-1.188-1.188,1.187,1.187,0,0,1,1.188-1.187h14.838a1.188,1.188,0,0,1,1.188,1.188,1.188,1.188,0,0,1-1.188,1.188" transform="translate(-341.657 471.186)"/>
            <g id="g240" transform="translate(133.806 73.794)">
              <text id="search" class="cls-21" transform="translate(0 1)"><tspan x="0" y="0">search</tspan></text>
            </g>
            <path id="path246" class="cls-22" d="M561.874-304.6l-.9,10.966a1.188,1.188,0,0,1-1.281,1.087h0a1.188,1.188,0,0,1-1.087-1.281l.9-10.966a1.188,1.188,0,0,1,1.28-1.087,1.188,1.188,0,0,1,1.087,1.281" transform="translate(-411.372 391.43)"/>
            <g id="g248" transform="translate(137.139 91.181)">
              <text id="sear_ch" data-name="sear
ch" class="cls-23" transform="translate(1.726 3.305) rotate(-85.324)"><tspan x="0" y="0">sear</tspan><tspan x="0" y="1">ch</tspan></text>
            </g>
            <path id="path256" class="cls-22" d="M624.776-179.315l-.9,10.966a1.187,1.187,0,0,1-1.28,1.087,1.188,1.188,0,0,1-1.087-1.28l.9-10.967a1.187,1.187,0,0,1,1.281-1.087,1.187,1.187,0,0,1,1.087,1.28" transform="translate(-460.472 293.637)"/>
            <g id="g258" transform="translate(150.941 118.671)">
              <text id="sear_ch-2" data-name="sear
ch" class="cls-23" transform="translate(1.726 3.305) rotate(-85.324)"><tspan x="0" y="0">sear</tspan><tspan x="0" y="1">ch</tspan></text>
            </g>
            <path id="path266" class="cls-24" d="M608.276-180.979l2.4,10.738a1.187,1.187,0,0,1-.9,1.418h0a1.188,1.188,0,0,1-1.418-.9l-2.4-10.738a1.188,1.188,0,0,1,.9-1.418,1.188,1.188,0,0,1,1.418.9" transform="translate(-448.312 294.659)"/>
            <g id="g268" transform="translate(169.093 114.899)">
              <text id="search-2" data-name="search" class="cls-23" transform="translate(2.759 4.914) rotate(-102.587)"><tspan x="0" y="0">search</tspan></text>
            </g>
            <path id="path274" class="cls-19" d="M237.673-235.616l-.125-.956v-13.737l6.581-.863v8.245h.54v.623H251.5l.628,4.79-14.46,1.9" transform="translate(-160.761 348.724)"/>
            <path id="path276" class="cls-25" d="M231.246-233.5l-.765-5.833c.262-.265.454-.485.237-.485h-.006a.729.729,0,0,0-.283.081l-.953-7.268,1.771-.232V-233.5" transform="translate(-154.459 345.654)"/>
            <path id="path278" class="cls-26" d="M276.839-212.971H270v-.623h6.754l.082.623" transform="translate(-186.095 319.392)"/>
            <path id="path280" class="cls-18" d="M274.835-245.456h-7.294V-253.7l1.293-.17v7.122h5.831l.169,1.293m-.208-1.586h-5.293l4.68-4.68.614,4.68m-5.5-.207v-6.661l3.834-.5.805.805.2,1.52-4.838,4.839" transform="translate(-184.173 351.254)"/>
            <path id="path282" class="cls-27" d="M279.267-244.961h-5.831v-7.122l.293-.039v6.661l-.25.25.207.207.25-.25h5.293l.039.293" transform="translate(-188.774 349.465)"/>
            <path id="path284" class="cls-18" d="M294.286-254.4l-.377-.377.322-.042.055.419" transform="translate(-204.756 351.575)"/>
            <path id="path286" class="cls-27" d="M293.047-253.778l-.805-.805.366-.048.377.377.063.476" transform="translate(-203.454 351.425)"/>
            <path id="path288" class="cls-27" d="M273.838-238.522l-.207-.207.25-.25,4.838-4.839.048.366-4.68,4.68-.25.25" transform="translate(-188.927 342.983)"/>
            <path id="path290" class="cls-9" d="M239.568-258.559l1.9,14.46L227-242.2l-1.9-14.46,14.46-1.9" transform="translate(-151.051 354.491)"/>
            <path id="path292" class="cls-28" d="M242.241-254.193l1.675,12.767-12.767,1.675-1.675-12.767,12.767-1.675" transform="translate(-154.459 351.082)"/>
            <path id="path294" class="cls-29" d="M269.213-240.142a2.518,2.518,0,0,1-2.169,2.824,2.518,2.518,0,0,1-2.824-2.169,2.518,2.518,0,0,1,2.169-2.824,2.518,2.518,0,0,1,2.824,2.169" transform="translate(-181.564 341.825)"/>
            <path id="path296" class="cls-30" d="M254.565-224.17l.491,3.742-11.332,1.487,6.548-8.526,4.293,3.3" transform="translate(-165.582 330.221)"/>
            <path id="path298" class="cls-31" d="M246.083-219.873l-11.289,1.481-.673-5.127L236.8-227l3.711,2.85,5.574,4.281" transform="translate(-158.087 329.86)"/>
            <path id="path300" class="cls-32" d="M199.091-249a3.235,3.235,0,0,1,.465,2.453c-.281.865-.939,1.255-1.121,2.072s.463,3.669-1.049,3.73-1.109-3.376-1.109-3.376l1.024-4.51,1.79-.369" transform="translate(-128.508 347.03)"/>
            <path id="path302" class="cls-33" d="M190.634-178.1s3.4,6.254,3.876,7.533-2.283,9.106-2.165,10.166,2.458,1.317,2.385,1.865c-.045.335-1.155.22-2.195.1a9.044,9.044,0,0,0-1.609-.1c-.8.109-1.207-.293-.951-.951a19.812,19.812,0,0,0,.914-2.6c.146-.731.2-5.047,1.269-7.241l-3.1-5.12,1.573-3.657" transform="translate(-122.913 291.685)"/>
            <path id="path304" class="cls-34" d="M196.554-160l.093.131c.209.3.734,1.051,1.21,1.851a12.571,12.571,0,0,1,.63,1.18,2.785,2.785,0,0,1,.282.9v.055a17.135,17.135,0,0,1-.222,1.919c-.2,1.345-.52,3.111-.818,4.624-.149.757-.293,1.45-.417,2a10.276,10.276,0,0,1-.289,1.1l.272.107a5.871,5.871,0,0,0,.185-.642c.256-1.036.65-3.015.982-4.883.166-.934.316-1.84.424-2.585a14.366,14.366,0,0,0,.176-1.634v-.068a3.392,3.392,0,0,0-.385-1.178,24.859,24.859,0,0,0-1.885-3.046l-.237.172h0" transform="translate(-128.763 277.692)"/>
            <path id="path306" class="cls-35" d="M198.073-168.66l-.313-.518c-.061-.667-.154-1.675-.256-2.8.182.27.393.594.6.937l-.035,2.383m.044-2.92c-.259-.4-.5-.758-.667-1-.118-1.3-.242-2.7-.341-3.9.219.406.606,1.123,1.052,1.96l-.044,2.935" transform="translate(-129.196 290.417)"/>
            <path id="path308" class="cls-36" d="M199.323-157.178c-.211-.343-.423-.666-.6-.937-.018-.2-.036-.4-.054-.6.166.239.408.593.667,1l-.008.537" transform="translate(-130.41 276.553)"/>
            <path id="path310" class="cls-37" d="M197.222-212.381l1.263,1.507s3.924-.7,4.352-1.125,1.443-1.419,1.924-1.428-.922.995-.905,1.307.12.907.12.907l-5.734,2.144-2.013-2.082.993-1.23" transform="translate(-128.509 319.262)"/>
            <path id="path312" class="cls-25" d="M203.344-205.568l-.492-.587h0l.492.587" transform="translate(-133.678 313.585)"/>
            <path id="path314" class="cls-38" d="M200.37-204.115l-.519-.537c.274-.587.54-1.147.658-1.5l.492.587-.632,1.453" transform="translate(-131.336 313.586)"/>
            <path id="path316" class="cls-39" d="M195.638-243.875l.293,1.9h-.475s-.317,1.987-1.451,1.6l-.146.792-1.353-.073.89-2.645,2.243-1.573" transform="translate(-125.602 343.029)"/>
            <path id="path318" class="cls-40" d="M195.555-231.972l-.944-.155a8.21,8.21,0,0,0,.611-1.582q.074-.021.146-.047a1.057,1.057,0,0,0,.884,1.249.719.719,0,0,1-.325.078.845.845,0,0,1-.278-.049l-.093.506" transform="translate(-127.246 335.129)"/>
            <path id="path320" class="cls-41" d="M175.661-226.389l1.28.21a5.053,5.053,0,0,0,0,1.518c.137.649.814,1.819.649,2.551s-1.478,3.005-1.5,3.812c-.025.92.78,9.38.9,10.794s-3.925,9.386-4,10.191,2.779,1.341,2.779,1.853-3.145.049-3.706,0a2.42,2.42,0,0,0-.594.064c-.489.09-.988.18-1.039-.381-.073-.8.878-2.316,1.365-3.681s1.512-6.315,2.584-8.094c0,0-1.292-3.34-1.682-4.388s-1.305-2.048-1.341-4c-.024-1.341.707-2.218.829-3.34s-.229-2.171-.037-3.035.768-4.075.768-4.075h2.74" transform="translate(-108.371 329.379)"/>
            <path id="path322" class="cls-33" d="M178.848-185.428a12.966,12.966,0,0,0-.191,1.869,6.385,6.385,0,0,0,.194,1.55c.173.7.565,2.029.923,3.341.179.656.349,1.307.479,1.872a9.061,9.061,0,0,1,.233,1.343v.027a3.39,3.39,0,0,1-.155.773c-.354,1.245-1.251,3.484-2.068,5.5-.409,1.009-.8,1.962-1.092,2.713-.147.376-.269.7-.358.957a3.184,3.184,0,0,0-.16.564l.291.033a3.808,3.808,0,0,1,.185-.612c.387-1.084,1.3-3.253,2.111-5.3.407-1.023.789-2.017,1.071-2.833.141-.408.257-.771.338-1.074a3.111,3.111,0,0,0,.13-.72v-.043a9.3,9.3,0,0,0-.24-1.393c-.392-1.712-1.149-4.183-1.4-5.217a6.087,6.087,0,0,1-.185-1.48,12.773,12.773,0,0,1,.188-1.829l-.29-.04" transform="translate(-113.228 297.406)"/>
            <path id="path324" class="cls-42" d="M181.6-226.179l-1.28-.21h-2.74s-.575,3.21-.768,4.075.159,1.914.037,3.035a6.361,6.361,0,0,1-.451,1.539,11.213,11.213,0,0,0,4.425.777c-.049-.666-.077-1.152-.072-1.335.021-.807,1.334-3.081,1.5-3.812s-.512-1.9-.649-2.551a5.052,5.052,0,0,1,0-1.518" transform="translate(-113.025 329.379)"/>
            <path id="path326" class="cls-25" d="M196.258-193.338h0c-.023-.359-.035-.619-.032-.743,0,.124.009.385.032.743m-.032-.749h0m0,0h0m0-.005h0m0,0v0m0,0a.029.029,0,0,1,0,0,.027.027,0,0,0,0,0m0-.005v0m0,0a4.6,4.6,0,0,1,.4-1.253h0a4.623,4.623,0,0,0-.4,1.253" transform="translate(-128.506 305.165)"/>
            <path id="path328" class="cls-43" d="M186.44-206.219l-2.792-5.65,3.164,3.621a4.6,4.6,0,0,0-.4,1.253h0v0h0a.026.026,0,0,0,0,0v.007h0v0h0a.013.013,0,0,0,0,0h0v0h0a0,0,0,0,1,0,0c0,.124.009.384.032.743" transform="translate(-118.689 318.045)"/>
            <path id="path330" class="cls-39" d="M183.157-219.1s2.427,3.638,3.023,4.484,1.813,1.056,3.158,1.469,4.1.857,5.575.337,1.764-1.125,1.764-1.125l-1.848.25c-.172,0-.2-.253.017-.459s.371-.562.215-.612-.758.448-1.026.55a2.206,2.206,0,0,1-1.237.3,38.417,38.417,0,0,1-5.089-1.681c-.693-.425-2.383-4.163-2.635-4.766s-.567-.974-1.153-.934-1.338.932-.765,2.188" transform="translate(-118.145 325.402)"/>
            <path id="path332" class="cls-44" d="M179.2-254.259s-.646,2.719-2.657,3.3c0,0-1,4.023-3.486,3.474a8.129,8.129,0,0,0-.707,2.17,1.688,1.688,0,0,1-1.658-1.731c-.2-1.792,2.6-4.462,2.926-5.2s.3-2.036,1.207-2.9a2.83,2.83,0,0,1,2.974-.475,3.538,3.538,0,0,1,1.4,1.365" transform="translate(-108.568 352.376)"/>
            <path id="path334" class="cls-45" d="M193.906-95.863c.8-.11,3.73.549,3.8,0s-2.213-.8-2.376-1.831l-1.984-.117c-.146.377-.29.732-.393,1-.256.658.146,1.061.951.951" transform="translate(-125.893 229.014)"/>
            <path id="path336" class="cls-45" d="M173-93.392H170.82a3.4,3.4,0,0,0-.385,1.43c.073.8,1.073.268,1.634.317s3.706.512,3.706,0c0-.489-2.6-1-2.77-1.747" transform="translate(-108.371 225.565)"/>
            <path id="path338" class="cls-46" d="M176.439-217.936a2.74,2.74,0,0,1-.236-2.844,1.366,1.366,0,0,0,.944.674,9.613,9.613,0,0,0-.566,1.482,4.548,4.548,0,0,0-.141.688h0" transform="translate(-112.657 325.001)"/>
            <path id="path340" class="cls-47" d="M527.663-247.5l.406,2.7.559,1.2a20.379,20.379,0,0,1-4.344,0l2.308-1.274-.406-2.437,1.477-.185" transform="translate(-384.581 345.858)"/>
            <path id="path342" class="cls-48" d="M524.284-234.276a20.379,20.379,0,0,0,4.344,0l-.559-1.2-1.477-.074-2.308,1.274" transform="translate(-384.581 336.53)"/>
            <path id="path344" class="cls-47" d="M549.807-247.5l.406,2.7.559,1.2a20.381,20.381,0,0,1-4.345,0l2.308-1.274-.406-2.437,1.477-.185" transform="translate(-401.866 345.858)"/>
            <path id="path346" class="cls-48" d="M546.428-234.276a20.381,20.381,0,0,0,4.345,0l-.559-1.2-1.477-.074-2.308,1.274" transform="translate(-401.866 336.53)"/>
            <path id="path348" class="cls-49" d="M527-322.848l-6.477-.233c.056,3,.156,6.182.334,7.719.388,3.342,1.994,10.028,1.994,10.028H525.2l-1.164-11.875,3.989,11.875h2.2c.018-1.532-3.12-15.6-3.194-16.657-.019-.269-.026-.558-.024-.857" transform="translate(-381.647 404.855)"/>
            <path id="path350" class="cls-50" d="M541.791-320.718v0a5.208,5.208,0,0,0,.292,1.608,2.96,2.96,0,0,0,.691,1.122,2.122,2.122,0,0,0,1.35.6l.012-.146a1.973,1.973,0,0,1-1.259-.554,4.143,4.143,0,0,1-.938-2.625h0l-.146,0" transform="translate(-398.247 403.01)"/>
            <path id="path352" class="cls-50" d="M533.631-313.934,534.2-310l.145-.021-.569-3.933" transform="translate(-391.877 397.732)"/>
            <path id="path354" class="cls-50" d="M530.013-313.937l.266,1.66a1.316,1.316,0,0,0,.91,1.049l.055.017.043-.14-.055-.017a1.17,1.17,0,0,1-.809-.932l-.266-1.66-.145.023" transform="translate(-389.054 397.736)"/>
            <path id="path356" class="cls-47" d="M492.4-394.117a6.469,6.469,0,0,0-4.45-2.437,13.691,13.691,0,0,0-2.962-.023,13.9,13.9,0,0,1-4.461-.218c-1.957-.665-2.954-3.84-2.954-3.84-.018-.831-.757-2.345-1.034-2.234s0,1.237,0,1.237h-2.031l1.514,1.4c2.281,7.7,8.512,7.055,8.512,7.055s.007,5.439.109,9.543c2.559,1.9,5.508-.138,6.45-.9a33.875,33.875,0,0,1,.568-5.989c1.846,1.7,3.01,7.33,3.01,7.33l-.037,1.671a1.2,1.2,0,0,1,.934.043c.224.093-.114.825,0,.917s.4-.274.454-.822a35.858,35.858,0,0,0-.535-7.515,14.764,14.764,0,0,0-3.084-5.225" transform="translate(-345.725 467.14)"/>
            <path id="path358" class="cls-39" d="M476.536-402.869c-.277.111,0,1.237,0,1.237h-2.031l1.514,1.4,1.551-.406c-.018-.831-.757-2.345-1.034-2.234" transform="translate(-345.725 467.14)"/>
            <path id="path360" class="cls-39" d="M528.828-404.96l-1.353,1.529.522.26s-.273.61-.5,1.206,1.046.6,1.1.911-.136,1.02-.136,1.584c.3.326,1.757.1,1.757.1l.547-2.072s1.475-1.342,1.624-2.3-1.674-1.641-2.088-1.906-.381-1.177-.779-1.259-.834,1.022-.685,1.951" transform="translate(-387.064 470.294)"/>
            <path id="path362" class="cls-13" d="M540.127-380.03h0l.513-1.944h0l-.513,1.944" transform="translate(-396.948 450.825)"/>
            <path id="path364" class="cls-13" d="M532.041-378.442h0c.037-.41.125-.842.128-1.121,0,.279-.091.71-.128,1.121" transform="translate(-390.637 448.944)"/>
            <path id="path366" class="cls-51" d="M531.968-374.132h0c0-.1.006-.213.016-.323h0c-.01.11-.016.219-.016.323" transform="translate(-390.579 444.956)"/>
            <path id="path368" class="cls-13" d="M532.583-381.8h0m0,0h0m0,0h0m2.215-.426.019-.018h0l-.019.018" transform="translate(-391.059 451.041)"/>
            <path id="path370" class="cls-40" d="M530.044-380.486a1.218,1.218,0,0,1-.791-.176c0-.1.006-.213.016-.323.037-.41.125-.842.128-1.121v-.014a.812.812,0,0,0-.008-.126h0v0h0v0h0a0,0,0,0,1,0,0h0c-.042-.2-.582-.273-.9-.459a3.184,3.184,0,0,0,.921.116,8.047,8.047,0,0,0,1.749-.226l.461.125-.019.018-.046.043h0l-.513,1.944-.034.128H531a7.33,7.33,0,0,1-.956.075" transform="translate(-387.865 451.486)"/>
            <path id="path372" class="cls-52" d="M536.723-403.75c.149-.961-1.674-1.641-2.088-1.906s-.381-1.177-.779-1.259-1.14.742-.685,1.951a7.713,7.713,0,0,0,2.188,1.016l-.508,1.392s.652-.2.618.155-.63.906-.862.74c0,0-.341.419.34.79l.152-.575s1.475-1.342,1.624-2.3" transform="translate(-391.406 470.299)"/>
            <path id="path374" class="cls-50" d="M553.264-246.66h2.41v-.146h-2.41Z" transform="translate(-407.202 345.316)"/>
            <path id="path376" class="cls-50" d="M530.225-246.268H532.7v-.146h-2.473Z" transform="translate(-389.219 345.01)"/>
            <path id="path378" class="cls-52" d="M530.143-374.575a.755.755,0,0,0-.038.229.674.674,0,0,0,.388.59,1.912,1.912,0,0,0,.916.2,3.63,3.63,0,0,0,1.655-.428l-.068-.129a3.484,3.484,0,0,1-1.587.411,1.771,1.771,0,0,1-.844-.18.528.528,0,0,1-.314-.462.61.61,0,0,1,.031-.185l-.139-.044" transform="translate(-389.125 445.05)"/>
            <path id="path380" class="cls-52" d="M566.061-314.846h1.428v-.146h-1.428Z" transform="translate(-417.192 398.541)"/>
            <path id="path382" class="cls-52" d="M483.411-391.628l-1.527.521.047.138,1.527-.521" transform="translate(-351.485 458.362)"/>
            <path id="path384" class="cls-53" d="M550.9-343.9h0c.166-1.445.384-2.624.389-2.656-.006.033-.223,1.212-.389,2.656m.389-2.657h0m0,0h0" transform="translate(-405.36 423.177)"/>
            <path id="path386" class="cls-51" d="M546.673-351.7c-2.086-.119-.794-4.852-.794-4.852a4.47,4.47,0,0,0,1.184,2.195h0c-.006.033-.223,1.212-.39,2.656" transform="translate(-401.129 430.985)"/>
            <path id="path388" class="cls-54" d="M536.74-281.9h-1.429l.023-.779h1.33l.076.779m-.091-.925h-1.311l.308-10.236,1,10.236" transform="translate(-393.188 381.424)"/>
            <path id="path390" class="cls-55" d="M536.747-246.268h-1.33l0-.146h1.311l.014.146" transform="translate(-393.272 345.01)"/>
            <path id="path392" class="cls-39" d="M567.158-310.631c.111.092.4-.274.454-.822.031-.306.036-.982.016-1.815l-1.37-.027h0l.007.033-.037,1.671a1.2,1.2,0,0,1,.934.043c.224.093-.114.825,0,.917" transform="translate(-417.322 397.216)"/>
            <path id="path394" class="cls-56" d="M516.513-205.7h-6.327l.423-4.909h6.327l-.423,4.909m.893-10.37-.422,4.909h-6.327l.422-4.909h6.327m-5.857-5.461h6.327l-.422,4.909h-6.327l.422-4.909M517.077-227h1.268l-.422,4.909H511.6l.422-4.909h5.058m1.381-1.306-.065.755h-6.327l.065-.755H511.4l-2.386,27.728h.731l.394-4.577h6.327l-.394,4.577h.731l2.386-27.728h-.731" transform="translate(-372.661 330.874)"/>
            <path id="path396" class="cls-7" d="M515.329-229.619h13.013v-.37H515.329Z" transform="translate(-377.592 332.189)"/>
            <path id="path398" class="cls-57" d="M521.071-229.619h-5.741v-.37h5.741v.37" transform="translate(-377.592 332.189)"/>
            <path id="path400" class="cls-7" d="M543.683-224.4h-6.656l-.047-.552h6.656l.047.552" transform="translate(-394.492 328.254)"/>
            <path id="path402" class="cls-58" d="M538.479-224.4h-1.451l-.047-.552h1.451l.047.552" transform="translate(-394.492 328.254)"/>
            <path id="path404" class="cls-7" d="M545.825-199.507h-6.656l-.047-.551h6.656l.047.551" transform="translate(-396.163 308.826)"/>
            <path id="path406" class="cls-58" d="M540.62-199.507h-1.451l-.047-.551h1.451l.047.551" transform="translate(-396.163 308.826)"/>
            <path id="path408" class="cls-7" d="M547.966-174.618H541.31l-.048-.552h6.656l.048.552" transform="translate(-397.834 289.399)"/>
            <path id="path410" class="cls-58" d="M542.762-174.618H541.31l-.048-.552h1.451l.048.552" transform="translate(-397.835 289.399)"/>
            <path id="path412" class="cls-7" d="M550.109-149.729h-6.656l-.047-.552h6.656l.047.552" transform="translate(-399.507 269.971)"/>
            <path id="path414" class="cls-58" d="M544.9-149.729h-1.451l-.046-.534v-.018h1.451l.047.552" transform="translate(-399.507 269.971)"/>
            <path id="path416" class="cls-7" d="M552.25-124.84h-6.656l-.048-.552H552.2l.048.552" transform="translate(-401.178 250.543)"/>
            <path id="path418" class="cls-58" d="M547.046-124.84h-1.451l-.048-.552H547l.048.552" transform="translate(-401.178 250.543)"/>
            <path id="path420" class="cls-7" d="M537.3-200.659h-.731l-2.386-27.727h.731l2.386,27.727" transform="translate(-392.309 330.938)"/>
            <path id="path422" class="cls-7" d="M569.468-200.659h-.731l-2.386-27.727h.731l2.386,27.727" transform="translate(-417.418 330.938)"/>
            <path id="path424" class="cls-13" d="M529.9-394.242c-.012-.035-.022-.071-.031-.108h.065c0,.027,0,.052,0,.074l-.03.034" transform="translate(-388.94 460.486)"/>
            <path id="path426" class="cls-59" d="M529.756-396.6h-.065a2.338,2.338,0,0,1-.047-.633h.269v.005a1.665,1.665,0,0,0-.158.628" transform="translate(-388.762 462.737)"/>
            <path id="path428" class="cls-60" d="M529.924-400.975h-.269a5.509,5.509,0,0,1,.163-1.052,3.945,3.945,0,0,0,.106,1.052" transform="translate(-388.774 466.479)"/>
            <path id="path430" class="cls-40" d="M530.037-393.906c-.01-.023-.019-.047-.028-.072l.03-.034c0,.065,0,.106,0,.106" transform="translate(-389.05 460.222)"/>
            <path id="path432" class="cls-61" d="M34.688-158.424H58v-8.759H34.688Z" transform="translate(-2.414 283.165)"/>
            <path id="path434" class="cls-31" d="M19.108-167.184a4.38,4.38,0,0,0-4.38,4.38,4.38,4.38,0,0,0,4.38,4.38v-8.759" transform="translate(13.166 283.165)"/>
            <path id="path436" class="cls-62" d="M34.688-158.424h0v0" transform="translate(-2.414 283.165)"/>
            <path id="path438" class="cls-63" d="M19.108-158.424a4.38,4.38,0,0,1-4.38-4.38,4.38,4.38,0,0,1,4.38-4.38h0v8.759" transform="translate(13.166 283.165)"/>
            <path id="path440" class="cls-62" d="M123.657-162.11l-.137-.813-.464.078a4.4,4.4,0,0,1,1.82-1.893h1.566v2.159l-2.785.469" transform="translate(-71.392 281.256)"/>
            <path id="path442" class="cls-31" d="M57.464-167.184H34.688v8.759h.537v-8.223H57.464v8.223H58v-8.759h-.537" transform="translate(-2.414 283.165)"/>
            <path id="path444" class="cls-62" d="M38.3-130.522H37.134v-.916h1.015l.154.916" transform="translate(-4.322 255.263)"/>
            <path id="path446" class="cls-63" d="M34.688-130.522h.537v-.916h-.537Z" transform="translate(-2.414 255.263)"/>
            <path id="path448" class="cls-9" d="M117.649-147.706l-8.893,1.5-1.474-8.76,8.893-1.5,1.474,8.76" transform="translate(-59.079 274.799)"/>
            <path id="path450" class="cls-14" d="M117.7-154.056l1.322,7.857-7.976,1.342-1.322-7.857,7.976-1.342" transform="translate(-60.983 272.918)"/>
            <path id="path452" class="cls-64" d="M121.708-135.848a35.824,35.824,0,0,0-7.71,2.922l.384,2.281,7.976-1.342-.65-3.861" transform="translate(-64.32 258.705)"/>
            <path id="path454" class="cls-15" d="M135.458-151.633l1.043,6.2-3.7.623c.331-.463,1.52-.682.865-1-.708-.348-1.559.141-1.15-.561s1.063-1.926.7-1.91-1.169.392-.815-.36,1.266-1.976.762-1.922-1.261.565-.832-.2.593-1.579.265-1.464c-.15.052-.021-.277.164-.648l1.229-.207.293.292,1.173,1.166" transform="translate(-78.534 272.165)"/>
            <path id="path456" class="cls-7" d="M140.684-154.056l1.322,7.857-2.314.389c-.109-.284,1.351-1.117,1.233-1.549-.063-.231-.445-.072-.8.086-.31.138-.6.276-.649.158-.1-.254,1.239-1.774,1.178-2.487-.032-.395-.25-.242-.535-.09a.728.728,0,0,1-.761.081c-.576-.371.767-1.44.833-2.205.043-.481-.21-.454-.492-.427a.728.728,0,0,1-.477-.057c-.178-.12.137-.7.5-1.252.086-.132.176-.263.261-.386l.7-.118" transform="translate(-83.969 272.918)"/>
            <path id="path458" class="cls-9" d="M95.009-147.706l-8.893,1.5-1.474-8.76,8.893-1.5,1.474,8.76" transform="translate(-41.406 274.799)"/>
            <path id="path460" class="cls-15" d="M95.055-154.056l1.322,7.857L88.4-144.857l-1.322-7.857,7.976-1.342" transform="translate(-43.309 272.918)"/>
            <path id="path462" class="cls-16" d="M110.417-139.469a1.447,1.447,0,0,1-1.187,1.667,1.447,1.447,0,0,1-1.667-1.187,1.447,1.447,0,0,1,1.186-1.667,1.447,1.447,0,0,1,1.667,1.187" transform="translate(-59.283 262.474)"/>
            <path id="path464" class="cls-7" d="M98.327-137.346l.705,4.19-7.976,1.342-.576-3.422a4.563,4.563,0,0,0,3.038.183c2.084-.51,2.906-2.073,4.389-2.254.144-.017.284-.032.42-.04" transform="translate(-45.963 259.875)"/>
            <path id="path466" class="cls-61" d="M94.753-144.334l-.293.221-.349-.113-.26.415.275-.245.38.217.288-.329.34.142-.382-.307" transform="translate(-48.595 265.329)"/>
            <path id="path468" class="cls-61" d="M99.47-141.266l-.293.221-.349-.113-.26.415.275-.245.38.216.288-.329.34.142-.382-.307" transform="translate(-52.276 262.934)"/>
            <path id="path470" class="cls-9" d="M71.7-147.706l-8.893,1.5-1.474-8.76,8.893-1.5,1.474,8.76" transform="translate(-23.213 274.799)"/>
            <path id="path472" class="cls-28" d="M71.751-154.056l1.322,7.857L65.1-144.857l-1.322-7.857,7.976-1.342" transform="translate(-25.118 272.918)"/>
            <path id="path474" class="cls-65" d="M75.76-135.848a35.826,35.826,0,0,0-7.71,2.922l.384,2.281,7.976-1.342-.65-3.861" transform="translate(-28.454 258.705)"/>
            <path id="path476" class="cls-31" d="M89.511-151.633l1.043,6.2-3.7.623c.331-.463,1.52-.682.865-1-.708-.348-1.558.141-1.15-.561s1.063-1.926.7-1.91-1.169.392-.815-.36,1.266-1.976.762-1.922-1.261.565-.832-.2.593-1.579.265-1.464c-.15.052-.021-.277.164-.648l1.229-.207.293.292,1.173,1.166" transform="translate(-42.669 272.165)"/>
            <path id="path478" class="cls-61" d="M94.737-154.056l1.322,7.857-2.314.389c-.109-.284,1.351-1.117,1.233-1.549-.063-.231-.445-.072-.8.086-.31.138-.6.276-.649.158-.1-.254,1.238-1.774,1.178-2.487-.032-.395-.25-.242-.535-.09a.728.728,0,0,1-.761.081c-.576-.371.767-1.44.833-2.205.043-.481-.21-.454-.492-.427a.728.728,0,0,1-.477-.057c-.178-.12.137-.7.5-1.252.086-.132.176-.263.261-.386l.7-.118" transform="translate(-48.104 272.918)"/>
            <path id="path480" class="cls-9" d="M49.062-147.706l-8.893,1.5L38.7-154.97l8.893-1.5,1.474,8.76" transform="translate(-5.541 274.799)"/>
            <path id="path482" class="cls-28" d="M49.108-154.056,50.43-146.2l-7.976,1.342-1.322-7.857,7.976-1.342" transform="translate(-7.443 272.918)"/>
            <path id="path484" class="cls-29" d="M64.47-139.469a1.447,1.447,0,0,1-1.187,1.667,1.447,1.447,0,0,1-1.667-1.187,1.447,1.447,0,0,1,1.186-1.667,1.447,1.447,0,0,1,1.667,1.187" transform="translate(-23.418 262.474)"/>
            <path id="path486" class="cls-31" d="M52.38-137.346l.705,4.19-7.976,1.342-.576-3.422a4.563,4.563,0,0,0,3.038.183c2.084-.51,2.906-2.073,4.389-2.254.144-.017.284-.032.42-.04" transform="translate(-10.098 259.875)"/>
            <path id="path488" class="cls-61" d="M48.806-144.334l-.293.221-.349-.113-.26.415.275-.245.38.217.288-.329.34.142-.382-.307" transform="translate(-12.729 265.329)"/>
            <path id="path490" class="cls-61" d="M53.522-141.266l-.293.221-.349-.113-.26.415.275-.245.38.216.288-.329.34.142-.382-.307" transform="translate(-16.411 262.934)"/>
            <path id="path492" class="cls-66" d="M152.179-130.522h0l-.154-.916h.017l.141.916" transform="translate(-94.001 255.263)"/>
            <path id="path494" class="cls-13" d="M150.5-130.522h-.47l-.154-.916h.47l.154.916" transform="translate(-92.328 255.263)"/>
            <path id="path496" class="cls-19" d="M129.449-131.042l-.067-.4h.729a.151.151,0,0,0,.048.114c-.239.092-.477.187-.71.283" transform="translate(-76.329 255.263)"/>
            <path id="path498" class="cls-67" d="M134.271-130.522h0l-.154-.916.154.916m-3.163,0h-1.334l-.087-.52c.233-.1.471-.19.71-.283a.26.26,0,0,0,.173.047c.2,0,.5-.1.681-.108h.006c.2,0,.07.394-.15.863" transform="translate(-76.566 255.263)"/>
            <path id="path500" class="cls-25" d="M135-130.522h-1.532c.22-.468.346-.863.15-.863h-.006c-.182.008-.478.108-.681.108a.26.26,0,0,1-.173-.047.151.151,0,0,1-.048-.114H135.5a6.31,6.31,0,0,1-.5.916" transform="translate(-78.923 255.263)"/>
            <path id="path502" class="cls-27" d="M144.777-130.522h-1.632a6.311,6.311,0,0,0,.5-.916h.976l.154.916" transform="translate(-87.073 255.263)"/>
            <path id="path504" class="cls-13" d="M127.861-130.522h-.471l-.154-.916h.471l.067.4.087.52" transform="translate(-74.655 255.263)"/>
            <path id="path506" class="cls-25" d="M110.872-130.522h0l-.154-.916h0l.154.916m-4.656-.077-.141-.839h.444a1.442,1.442,0,0,0,.4.528,5.378,5.378,0,0,1-.7.311" transform="translate(-58.136 255.263)"/>
            <path id="path508" class="cls-26" d="M108.492-130.91a1.442,1.442,0,0,1-.4-.528h1.242a7.876,7.876,0,0,1-.846.528" transform="translate(-59.715 255.263)"/>
            <path id="path510" class="cls-27" d="M111.374-130.522H106.73l-.013-.077a5.379,5.379,0,0,0,.7-.311,7.874,7.874,0,0,0,.846-.528h2.958l.154.916" transform="translate(-58.638 255.263)"/>
            <path id="path512" class="cls-13" d="M104.556-130.522h-.47l-.154-.916h.47l.141.839.013.077" transform="translate(-56.463 255.263)"/>
            <path id="path514" class="cls-68" d="M83.5-131.042l-.067-.4h.729a.151.151,0,0,0,.048.114c-.239.092-.477.187-.71.283" transform="translate(-40.464 255.263)"/>
            <path id="path516" class="cls-69" d="M85.16-130.333H83.826l-.087-.52c.233-.1.471-.19.71-.283a.26.26,0,0,0,.173.047c.2,0,.5-.1.681-.108h.006c.2,0,.07.394-.15.863" transform="translate(-40.701 255.073)"/>
            <path id="path518" class="cls-63" d="M89.049-130.522H87.516c.22-.468.346-.863.15-.863H87.66c-.181.008-.478.108-.681.108a.26.26,0,0,1-.173-.047.151.151,0,0,1-.048-.114H89.55a6.3,6.3,0,0,1-.5.916" transform="translate(-43.058 255.263)"/>
            <path id="path520" class="cls-62" d="M98.83-130.522H97.2a6.3,6.3,0,0,0,.5-.916h.976l.154.916" transform="translate(-51.207 255.263)"/>
            <path id="path522" class="cls-13" d="M51.105-130.522h-.471l-.154-.916h.471l.067.4.087.52m-8.673,0h-.471l-.141-.916h.458l.154.916" transform="translate(-7.981 255.263)"/>
            <path id="path524" class="cls-68" d="M47.378-130.522H44.324c-.093-.032-.185-.066-.279-.1l.017.1h0l-.154-.916h4a1.444,1.444,0,0,0,.4.528,5.322,5.322,0,0,1-.928.388" transform="translate(-9.611 255.263)"/>
            <path id="path526" class="cls-70" d="M62.545-130.91a1.444,1.444,0,0,1-.4-.528h1.242a7.872,7.872,0,0,1-.846.528" transform="translate(-23.849 255.263)"/>
            <path id="path528" class="cls-63" d="M52.752-130.522H47.866a5.322,5.322,0,0,0,.928-.388,7.873,7.873,0,0,0,.846-.528H52.6l.154.916m-7.941,0H44.55l-.017-.1c.093.036.186.07.279.1" transform="translate(-10.098 255.263)"/>
            <path id="path530" class="cls-31" d="M34.688-118.239H62.6v-9.024H34.688Z" transform="translate(-2.414 252.004)"/>
            <path id="path532" class="cls-63" d="M34.688-118.239h7.987v-9.024H34.688Z" transform="translate(-2.414 252.004)"/>
            <path id="path534" class="cls-63" d="M109.406-125.967h-2.277a1.02,1.02,0,0,1-1.02-1.02v-.277h4.317v.277a1.02,1.02,0,0,1-1.02,1.02" transform="translate(-58.163 252.004)"/>
            <path id="path536" class="cls-63" d="M95.921-112.475H79.9a.259.259,0,0,1-.259-.259.259.259,0,0,1,.259-.259H95.921a.259.259,0,0,1,.259.259.259.259,0,0,1-.259.259" transform="translate(-37.506 240.865)"/>
            <path id="path538" class="cls-63" d="M95.921-105.834H79.9a.259.259,0,0,1-.259-.259.259.259,0,0,1,.259-.259H95.921a.259.259,0,0,1,.259.259.259.259,0,0,1-.259.259" transform="translate(-37.506 235.681)"/>
            <path id="path540" class="cls-63" d="M95.921-99.194H79.9a.259.259,0,0,1-.259-.259.259.259,0,0,1,.259-.259H95.921a.259.259,0,0,1,.259.259.259.259,0,0,1-.259.259" transform="translate(-37.506 230.498)"/>
            <path id="path542" class="cls-71" d="M473.159-537.033h-1.468c-2.314,0-2.955-5.413-5.171-5.323s-3.574,3.89-5.032,3.89-2.568-1-4.467-1-4.117,2.428-5.655,2.428h-1.549a1.549,1.549,0,0,0-1.549,1.549h0a1.549,1.549,0,0,0,1.549,1.549h23.343a1.549,1.549,0,0,0,1.549-1.549h0a1.549,1.549,0,0,0-1.549-1.549" transform="translate(-325.245 576.017)"/>
            <path id="path544" class="cls-71" d="M162.938-487.227h-.713v-.01c-1.55,0-2.327-1.22-3.514-1.508a2.8,2.8,0,0,0-2.012.221,4.837,4.837,0,0,0-3.465-1.868,4.085,4.085,0,0,0-2.933.912,7,7,0,0,0-4.038-1.331c-3.487,0-4.586,3.584-5.608,3.584h-.9a1.024,1.024,0,0,0-1.024,1.024,1.024,1.024,0,0,0,1.024,1.024h23.186a1.024,1.024,0,0,0,1.024-1.024,1.024,1.024,0,0,0-1.024-1.024" transform="translate(-83.625 535.781)"/>
            <path id="path546" class="cls-47" d="M607.607-131.694h-7.861L599.2-141.74h8.962l-.551,10.045" transform="translate(-443.056 263.304)"/>
            <path id="path548" class="cls-72" d="M603.488-136h7.922v-.293h-7.922Z" transform="translate(-446.406 259.051)"/>
            <path id="path550" class="cls-73" d="M599.732-135.746a15.333,15.333,0,0,0,1.935,3.622,10.183,10.183,0,0,0,2.519,2.5,6.492,6.492,0,0,0,3.656,1.145,1.711,1.711,0,0,0,.818-.185,1.532,1.532,0,0,0,.7-.852,3.6,3.6,0,0,0,.189-1.245,11.616,11.616,0,0,0-.476-2.915c-.237-.855-.474-1.471-.475-1.474l-.273.1.04.106a14.364,14.364,0,0,1,.892,4.178,2.753,2.753,0,0,1-.311,1.433,1.119,1.119,0,0,1-.426.406,1.42,1.42,0,0,1-.68.151,6.2,6.2,0,0,1-3.494-1.1,11.141,11.141,0,0,1-3.285-3.731,15.9,15.9,0,0,1-.8-1.592c-.087-.2-.152-.366-.195-.479-.022-.056-.037-.1-.048-.129l-.016-.044-.277.095" transform="translate(-443.474 258.7)"/>
          </g>
        </g>
      </g>
    </g>
  </g>
</svg>
