<?xml version="1.0" encoding="utf-8"?>
<!-- Generator: Adobe Illustrator 22.1.0, SVG Export Plug-In . SVG Version: 6.00 Build 0)  -->
<svg version="1.1" id="Layer_1" xmlns="http://www.w3.org/2000/svg" xmlns:xlink="http://www.w3.org/1999/xlink" x="0px" y="0px"
	 viewBox="0 0 1920 1080" style="enable-background:new 0 0 1920 1080;" xml:space="preserve">
<style type="text/css">
	.st0{fill:none;}
	.st1{fill:#FFFFFF;}
	.st2{fill:#F79971;}
	.st3{fill:#DC8863;}
	.st4{fill:#F6885C;}
	.st5{fill:#2F9466;}
	.st6{fill:#3CBB7A;}
	.st7{fill:#F68457;}
	.st8{fill:#EC7C4F;}
	.st9{fill:#E2794D;}
	.st10{fill:#34A970;}
	.st11{fill:#DCDDDA;}
	.st12{fill:#F8A07A;}
	.st13{fill:#F57442;}
	.st14{fill:#FBC7B2;}
	.st15{fill:#C2C3C1;}
	.st16{fill:#E08A65;}
	.st17{fill:#DDB9A8;}
	.st18{fill:#C16139;}
	.st19{font-family:'Arial-ItalicMT';}
	.st20{font-size:4.2951px;}
	.st21{fill:#A2B0E0;}
	.st22{fill:#4C54AE;}
	.st23{fill:#E08F6E;}
	.st24{fill:#DDB09D;}
	.st25{fill:#E56A3A;}
	.st26{fill:#BFC8EA;}
	.st27{fill:#F6831E;}
	.st28{fill:#A8B5E2;}
	.st29{fill:#6379C5;}
	.st30{fill:#452217;}
	.st31{fill:#802B72;}
	.st32{fill:#5C2151;}
	.st33{fill:#6F2662;}
	.st34{fill:#4F1D46;}
	.st35{fill:#F36479;}
	.st36{fill:#E55B6C;}
	.st37{fill:#F57F92;}
	.st38{fill:#E27381;}
	.st39{fill:#902F81;}
	.st40{fill:#EF2F95;}
	.st41{fill:#E82886;}
	.st42{fill:#572A1C;}
	.st43{fill:#FCD8C8;}
	.st44{fill:#4C2419;}
	.st45{fill:#1F5B54;}
	.st46{fill:#53C5B0;}
	.st47{fill:#3FA392;}
	.st48{fill:#27326F;}
	.st49{fill:#474FAB;}
	.st50{fill:#45C0A6;}
	.st51{fill:#388F82;}
	.st52{fill:#BC5C34;}
	.st53{fill:#BF5D35;}
	.st54{fill:#D96638;}
	.st55{fill:#C0C1BF;}
	.st56{fill:#A85633;}
	.st57{fill:#485DB4;}
	.st58{fill:#4055AA;}
	.st59{fill:#FCD3C2;}
	.st60{fill:#FABDA1;}
	.st61{fill:#2E9465;}
	.st62{fill:#596EBF;}
	.st63{fill:#F9AB89;}
	.st64{fill:none;stroke:#596EBF;stroke-miterlimit:10;}
</style>
<path class="st0" d="M707,671.6c0-0.2,0-0.4,0-0.6l-0.3-1.6h0l-0.7-4l-0.3,0.3l0.6,3.8l0.4,2.1H707z"/>
<path class="st0" d="M1178.5,569.3L1178.5,569.3l-0.1,0.2l-0.2-0.1l-0.8-0.6c0,0.2-0.1,0.3-0.1,0.4v0c0,0.1,0,0.2,0,0.4"/>
<path class="st0" d="M1086.1,702.4c-34.1,26.2-74.8,44.1-119.3,50.8c-12.6,1.9-25.5,2.9-38.6,2.9s-26-1-38.6-2.9
	c-35-5.2-67.8-17.5-96.8-35.3c0,0.1-0.1,0.1-0.1,0.2"/>
<path class="st0" d="M747.5,682.5c-0.6-0.6-1.1-1.1-1.7-1.7"/>
<path class="st0" d="M773.2,706.8c-0.6-3.6-2.3-5.2-5.4-7c-3.9-2.2-6.6-4.9-10-7.9"/>
<path class="st0" d="M753.1,687.9c-0.6-0.6-1.2-1.1-1.8-1.7"/>
<path class="st0" d="M1145.1,638.9c-5.9,9-12.4,17.7-19.4,25.9"/>
<path class="st0" d="M1164.9,602.7c-4.8,10.7-10.3,21-16.5,31"/>
<path class="st0" d="M1174.8,576.9c-1.8,8.1-5.8,14.1-8,22.1"/>
<line class="st0" x1="1124.4" y1="680.2" x2="1124.4" y2="679.8"/>
<path class="st0" d="M1124.8,684.5c0.2,2.4,0.4,4.8,0.6,7.3"/>
<path class="st0" d="M1121.3,680.2h-9.8c-6.4,6.4-13.2,12.6-20.3,18.3l-0.1,1.1"/>
<path class="st0" d="M673.5,544.2c4.5,29.8,17.5,56.8,30,83.5"/>
<path class="st0" d="M722.5,654.4c-0.4-0.5-0.7-1-1.1-1.4"/>
<path class="st0" d="M727.1,660.2c-1.1-1.3-2.2-2.7-3.2-4.1"/>
<path class="st0" d="M670.6,524.2c-1-9-1.4-18.1-1.4-27.3c0-9.2,0.5-18.4,1.4-27.3c1-9.2,2.4-18.2,4.3-27.1
	c5.9-27.6,16.2-53.5,30.1-77c3.2-5.5,6.6-10.8,10.2-16c1-1.4,2-2.9,3-4.3c2.1-2.9,4.3-5.8,6.5-8.6c0.6-0.7,1.1-1.4,1.7-2.1
	c3-3.7,6-7.3,9.1-10.7H735v-4.3h4.5c8.7-9.3,18.1-17.9,28.1-25.8c44.2-35,100-55.8,160.7-55.8c77.3,0,146.7,33.8,194.2,87.5
	c6.8,7.7,13.1,15.7,18.9,24.2c9,13,16.8,26.8,23.4,41.4c14.5,32.4,22.6,68.3,22.6,106c0,14.3-1.2,28.4-3.4,42.1
	c-1.5,9-3.4,18-5.8,26.7v0c0,0.5,0.1,1.1,0.1,1.7"/>
<polygon class="st1" points="1124.4,679.8 1124.4,680.2 1124.4,680.2 "/>
<path class="st1" d="M1125.5,693l-0.7-8.5h-0.8l-0.8,9.2C1124,693.4,1124.8,693.2,1125.5,693z"/>
<path class="st1" d="M1113.1,678.6c0,0.3,0,0.5,0,0.8l1.3,0c0-0.6-0.1-1.3-0.1-1.9c2.1-2.2,4.2-4.4,6.2-6.6c0.7-0.8,1.4-1.6,2.1-2.4
	c0.3-0.3,0.5-0.6,0.8-0.9c0.8-0.9,1.6-1.8,2.3-2.7c1.7-2,3.4-4,5-6.1c1.1-1.4,2.3-2.9,3.4-4.3c4.3-5.6,8.3-11.3,12.1-17.2h0.7
	c0.3-0.7,0.8-1.4,1.4-1.8l0.1-0.7l-0.2-0.4c0.8-1.3,1.6-2.6,2.4-3.9v0c0.6-1,1.2-2,1.8-3c0.2-0.4,0.4-0.7,0.6-1.1
	c4.4-7.6,8.4-15.5,12-23.5l1,1c0.2-0.6,0.5-1.3,0.9-1.9c0-1.2,0-2.3,0-3.5c3-7,5.7-14.1,8-21.4c0.1-0.4,0.3-0.9,0.4-1.3
	c0.6-2,1.2-3.9,1.8-5.9l-6.3,1.5l-1.4,0.3l-3.1,0.8l-14.6,3.5l-9.9,2.4l0,0l-12.3,3c0,0,0,0,0,0h-0.1c0,0,0,0,0,0c0,0,0,0,0,0
	c0,0,0,0,0,0l-0.3,0.1l-7.4,1.8l-5.4,1.3l-3.1,0.8l-1.8,0.4l-6.9,1.7l-2.8,0.7l-1.5,0.4l-0.5,0.1l-0.8,0.2l-8.6,2.1l-20.1,4.9
	l-4.3,1l-7.3,1.8l-34.1,8.3h0l-35.5,8.7c0,0,0,0,0,0L987,616l-4.5,1.1c0,0,0,0,0,0l-4.8,1.2c0,0,0,0,0,0l-59.5,14.5c0,0-0.1,0-0.1,0
	l-24.2,5.9l-10.5,2.5c0,0,0,0,0,0l-19,4.6L817,657.3l-0.4,0.1l-6.8,1.7l-0.5,0.1l-5,1.2l-1.3,0.3l-3.6,0.9l-1.4,0.3l-0.2,0l0,0
	l-5.1,1.3l-0.9,0.2l-4.8,1.2l-0.6,0.1l-33.3,8.1h0l0,0l-0.3,0.1l-1.4,0.3l-0.2,0l-0.2,0l-0.2,0l-0.3,0.1l-4.4,1.1l-1.3,0.3l-0.1,0
	l-0.3,0.1l-0.6,0.2l-2.7,0.7l0,0l-1.6,0.4c0.1,0.1,0.2,0.2,0.3,0.3l1.6-0.4c0.8,0.8,1.6,1.6,2.4,2.5c-0.2,0.3-0.4,0.6-0.5,0.9
	c0.4,0.3,0.7,0.6,0.9,1c0.5,0,1,0,1.5,0c0.1,0.1,0.2,0.2,0.3,0.3c0.6,0.6,1.1,1.1,1.7,1.7c1.3,1.2,2.5,2.5,3.8,3.7c0,0,0,0,0,0
	c0.6,0.6,1.2,1.1,1.8,1.7c0.2,0.2,0.4,0.4,0.7,0.6c0.1,0.1,0.2,0.2,0.3,0.3c0.6,0.5,1.1,1,1.7,1.5c1.6,1.5,3.3,2.9,5,4.4
	c4.4,3.7,8.9,7.3,13.5,10.7c0.9,0.7,1.8,1.3,2.7,2c-0.1,0.4-0.3,0.7-0.4,1c0,0.1-0.1,0.2-0.1,0.2c0.5,0.2,1,0.4,1.5,0.6
	c0.5,0.2,0.9,0.6,1.3,1h1.8c0,0.1,0,0.2-0.1,0.3c-0.3,3.2,10.4,5.5,11.8,7.5c0.1-0.1,0.1-0.1,0.1-0.2c29,17.8,61.7,30,96.8,35.3
	c12.6,1.9,25.5,2.9,38.6,2.9s26-1,38.6-2.9c44.4-6.6,85.2-24.5,119.3-50.8c1-0.8,2.1-1.6,3.1-2.4l-0.1,1.6h1.8l0.2-2.1l0.1-1.1
	c7.1-5.7,13.9-11.8,20.3-18.3C1112,679.6,1112.6,679.1,1113.1,678.6z"/>
<path class="st1" d="M1178.2,569.4l-0.9,0.2c0-0.1,0-0.3,0-0.4v0c0-0.1,0.1-0.3,0.1-0.4L1178.2,569.4z"/>
<polygon class="st1" points="1178.3,569.5 1178.2,569.4 1178.5,569.3 1178.5,569.3 "/>
<path class="st1" d="M1184,539c2.2-13.7,3.4-27.7,3.4-42.1c0-37.8-8.1-73.7-22.6-106c-6.5-14.6-14.4-28.4-23.4-41.4
	c-5.8-8.4-12.2-16.5-18.9-24.2c-47.5-53.7-116.9-87.5-194.2-87.5c-60.7,0-116.5,20.9-160.7,55.8c-10,7.9-19.4,16.5-28.1,25.8H735
	v4.3h0.5c-3.1,3.5-6.2,7.1-9.1,10.7c-0.6,0.7-1.1,1.4-1.7,2.1c-2.2,2.8-4.4,5.7-6.5,8.6c-1,1.4-2,2.9-3,4.3c-3.6,5.2-7,10.5-10.2,16
	c-13.9,23.5-24.2,49.5-30.1,77c-1.9,8.9-3.3,17.9-4.3,27.1c-1,9-1.4,18.1-1.4,27.3c0,9.2,0.5,18.4,1.4,27.3
	c0.7,6.7,1.7,13.4,2.9,19.9c0.4,2.4,0.9,4.8,1.4,7.2c4.1,19.2,10.3,37.6,18.4,54.9c3.5,7.6,7.4,15,11.7,22.2v2.1
	c0.3,0.3,0.6,0.6,0.9,1c1.3,1.8,2.4,3.7,3.4,5.7h1.2c0.9,1.4,1.9,2.9,2.8,4.3c2.2,3.3,4.5,6.5,6.8,9.7c0.4,0.6,0.9,1.2,1.3,1.8
	c0.4,0.5,0.7,1,1.1,1.4c0.4,0.6,0.9,1.2,1.4,1.8c1.1,1.4,2.1,2.7,3.2,4.1c0.8,1,1.7,2.1,2.5,3.1c2,2.4,4.1,4.8,6.2,7.1
	c-0.2,0.4-0.5,0.8-0.6,1.2h1.7c0.3,0.4,0.7,0.8,1,1.1l0,0.2l0.1,0.9c-0.2,0-0.4,0.1-0.6,0.1c0.7,0.5,1.2,1.2,1.5,2
	c0.3,0.2,0.5,0.4,0.7,0.7l1.6-0.4l1.3-0.3l1.2-0.3l0.7-0.2l0,0l0.1,0l1.3-0.3l4.7-1.2l0.3-0.1h0l0.2,0l0.2,0l0.2,0l1.4-0.4l0.3-0.1
	l0,0h0l33.3-8.3l0.6-0.2l4.7-1.2l0.9-0.2l5.2-1.3l0.2,0l1.4-0.3l3.7-0.9l1.3-0.3l5-1.3l0.5-0.1l6.8-1.7l0.4-0.1l46.2-11.5l4.5-1.1
	l0.6-0.2l17.5-4.3h0l8.1-2l20.6-5.1c0,0,0,0,0,0l61.5-15.3l2.4-0.6h0l2.3-0.6c0,0,0,0,0,0l1-0.3h0l5.6-1.4h0l37.3-9.3l28.1-7
	l12.8-3.2l4.3-1.1l28.9-7.2l1.2-0.3l1.6-0.4l2.7-0.7l0.3-0.1l8.2-2l3.1-0.8l5.5-1.4l0.4-0.1l2.8-0.7h0l16.3-4.1h0l11.5-2.9l13.6-3.4
	v0l1.5-0.4l1.4-0.4l8-2l0.6-0.1l0.6-0.2c0-0.6-0.1-1.1-0.1-1.7v0C1180.6,556.9,1182.6,548,1184,539z"/>
<polygon class="st2" points="1124.4,679.8 1124.4,680.2 1124.4,680.2 "/>
<path class="st2" d="M1113.1,678.6c0,0.3,0,0.5,0,0.8l1.3,0c0-0.6-0.1-1.3-0.1-1.9c2.1-2.2,4.2-4.4,6.2-6.6c0.7-0.8,1.4-1.6,2.1-2.4
	c0.3-0.3,0.5-0.6,0.8-0.9c0.8-0.9,1.6-1.8,2.3-2.7c1.7-2,3.4-4,5-6.1c1.1-1.4,2.3-2.9,3.4-4.3c4.3-5.6,8.3-11.3,12.1-17.2h0.7
	c0.3-0.7,0.8-1.4,1.4-1.8l0.1-0.7l-0.2-0.4c0.8-1.3,1.6-2.6,2.4-3.9v0c0.6-1,1.2-2,1.8-3c0.2-0.4,0.4-0.7,0.6-1.1
	c4.4-7.6,8.4-15.5,12-23.5l1,1c0.2-0.6,0.5-1.3,0.9-1.9c0-1.2,0-2.3,0-3.5c3-7,5.7-14.1,8-21.4c0.1-0.4,0.3-0.9,0.4-1.3
	c0.6-2,1.2-3.9,1.8-5.9l-6.3,1.5l-1.4,0.3l-3.1,0.8l-14.6,3.5l-9.9,2.4l0,0l-12.3,3c0,0,0,0,0,0h-0.1c0,0,0,0,0,0c0,0,0,0,0,0
	c0,0,0,0,0,0l-0.3,0.1l-7.4,1.8l-5.4,1.3l-3.1,0.8l-1.8,0.4l-6.9,1.7l-2.8,0.7l-1.5,0.4l-0.5,0.1l-0.8,0.2l-8.6,2.1l-20.1,4.9
	l-4.3,1l-7.3,1.8l-34.1,8.3h0l-35.5,8.7c0,0,0,0,0,0L987,616l-4.5,1.1c0,0,0,0,0,0l-4.8,1.2c0,0,0,0,0,0l-59.5,14.5c0,0-0.1,0-0.1,0
	l-24.2,5.9l-10.5,2.5c0,0,0,0,0,0l-19,4.6L817,657.3l-0.4,0.1l-6.8,1.7l-0.5,0.1l-5,1.2l-1.3,0.3l-3.6,0.9l-1.4,0.3l-0.2,0l0,0
	l-5.1,1.3l-0.9,0.2l-4.8,1.2l-0.6,0.1l-33.3,8.1h0l0,0l-0.3,0.1l-1.4,0.3l-0.2,0l-0.2,0l-0.2,0l-0.3,0.1l-4.4,1.1l-1.3,0.3l-0.1,0
	l-0.3,0.1l-0.6,0.2l-2.7,0.7l0,0l-1.6,0.4c0.1,0.1,0.2,0.2,0.3,0.3l1.6-0.4c0.8,0.8,1.6,1.6,2.4,2.5c-0.2,0.3-0.4,0.6-0.5,0.9
	c0.4,0.3,0.7,0.6,0.9,1c0.5,0,1,0,1.5,0c0.1,0.1,0.2,0.2,0.3,0.3c0.6,0.6,1.1,1.1,1.7,1.7c1.3,1.2,2.5,2.5,3.8,3.7c0,0,0,0,0,0
	c0.6,0.6,1.2,1.1,1.8,1.7c0.2,0.2,0.4,0.4,0.7,0.6c0.1,0.1,0.2,0.2,0.3,0.3c0.6,0.5,1.1,1,1.7,1.5c1.6,1.5,3.3,2.9,5,4.4
	c4.4,3.7,8.9,7.3,13.5,10.7c0.9,0.7,1.8,1.3,2.7,2c-0.1,0.4-0.3,0.7-0.4,1c0,0.1-0.1,0.2-0.1,0.2c0.5,0.2,1,0.4,1.5,0.6
	c0.5,0.2,0.9,0.6,1.3,1h1.8c0,0.1,0,0.2-0.1,0.3c-0.3,3.2,10.4,5.5,11.8,7.5c0.1-0.1,0.1-0.1,0.1-0.2c29,17.8,61.7,30,96.8,35.3
	h77.2c44.4-6.6,85.2-24.5,119.3-50.8c1-0.8,2.1-1.6,3.1-2.4l-0.1,1.6h1.8l0.2-2.1l0.1-1.1c7.1-5.7,13.9-11.8,20.3-18.3
	C1112,679.6,1112.6,679.1,1113.1,678.6z"/>
<path class="st2" d="M1178.2,569.4l-0.9,0.2c0-0.1,0-0.3,0-0.4v0c0-0.1,0.1-0.3,0.1-0.4L1178.2,569.4z"/>
<polygon class="st2" points="1178.3,569.5 1178.2,569.4 1178.5,569.3 1178.5,569.3 "/>
<path class="st2" d="M1184,539c2.2-13.7,3.4-27.7,3.4-42.1c0-37.8-8.1-73.7-22.6-106c-6.5-14.6-14.4-28.4-23.4-41.4
	c-5.8-8.4-12.2-16.5-18.9-24.2c-47.5-53.7-116.9-87.5-194.2-87.5c-60.7,0-116.5,20.9-160.7,55.8c-10,7.9-19.4,16.5-28.1,25.8H735
	v4.3h0.5c-3.1,3.5-6.2,7.1-9.1,10.7c-0.6,0.7-1.1,1.4-1.7,2.1c-2.2,2.8-4.4,5.7-6.5,8.6c-1,1.4-2,2.9-3,4.3c-3.6,5.2-7,10.5-10.2,16
	c-13.9,23.5-24.2,49.5-30.1,77c-1.9,8.9-3.3,17.9-4.3,27.1c-1,9-1.4,18.1-1.4,27.3c0,9.2,0.5,18.4,1.4,27.3
	c0.7,6.7,1.7,13.4,2.9,19.9c0.4,2.4,0.9,4.8,1.4,7.2c4.1,19.2,10.3,37.6,18.4,54.9c3.5,7.6,7.4,15,11.7,22.2v2.1
	c0.3,0.3,0.6,0.6,0.9,1c1.3,1.8,2.4,3.7,3.4,5.7h1.2c0.9,1.4,1.9,2.9,2.8,4.3c2.2,3.3,4.5,6.5,6.8,9.7c0.4,0.6,0.9,1.2,1.3,1.8
	c0.4,0.5,0.7,1,1.1,1.4c0.4,0.6,0.9,1.2,1.4,1.8c1.1,1.4,2.1,2.7,3.2,4.1c0.8,1,1.7,2.1,2.5,3.1c2,2.4,4.1,4.8,6.2,7.1
	c-0.2,0.4-0.5,0.8-0.6,1.2h1.7c0.3,0.4,0.7,0.8,1,1.1l0,0.2l0.1,0.9c-0.2,0-0.4,0.1-0.6,0.1c0.7,0.5,1.2,1.2,1.5,2
	c0.3,0.2,0.5,0.4,0.7,0.7l1.6-0.4l1.3-0.3l1.2-0.3l0.7-0.2l0,0l0.1,0l1.3-0.3l4.7-1.2l0.3-0.1h0l0.2,0l0.2,0l0.2,0l1.4-0.4l0.3-0.1
	l0,0h0l33.3-8.3l0.6-0.2l4.7-1.2l0.9-0.2l5.2-1.3l0.2,0l1.4-0.3l3.7-0.9l1.3-0.3l5-1.3l0.5-0.1l6.8-1.7l0.4-0.1l46.2-11.5l4.5-1.1
	l0.6-0.2l17.5-4.3h0l8.1-2l20.6-5.1c0,0,0,0,0,0l61.5-15.3l2.4-0.6h0l2.3-0.6c0,0,0,0,0,0l1-0.3h0l5.6-1.4h0l37.3-9.3l28.1-7
	l12.8-3.2l4.3-1.1l28.9-7.2l1.2-0.3l1.6-0.4l2.7-0.7l0.3-0.1l8.2-2l3.1-0.8l5.5-1.4l0.4-0.1l2.8-0.7h0l16.3-4.1h0l11.5-2.9l13.6-3.4
	v0l1.5-0.4l1.4-0.4l8-2l0.6-0.1l0.6-0.2c0-0.6-0.1-1.1-0.1-1.7v0C1180.6,556.9,1182.6,548,1184,539z"/>
<path class="st3" d="M1091.1,699.6l-0.2,2.1h-1.8l0.1-1.6c-1,0.8-2,1.6-3.1,2.4c-2.9-0.3-4.9-0.8-4.9-1.4c0-0.8,3.5-1.4,8-1.5h0.5
	c0.2,0,0.4,0,0.6,0C1090.6,699.6,1090.9,699.6,1091.1,699.6z"/>
<path id="path22" class="st3" d="M1038.6,695.9c0,2-50.6,3.7-113.1,3.7s-113.1-1.6-113.1-3.7c0-2,50.6-3.7,113.1-3.7
	S1038.6,693.9,1038.6,695.9L1038.6,695.9z"/>
<path class="st3" d="M835.9,684.5c0,0.3-0.7,0.5-2,0.8c-4,0.8-13.9,1.5-27.9,2c-1.3,0-2.6,0.1-4,0.2c-0.4,0-0.9,0-1.3,0
	c-1.4,0-2.8,0.1-4.3,0.1c-1.9,0-3.8,0.1-5.7,0.2c-1.5,0-3.1,0.1-4.7,0.1c-0.5,0-0.9,0-1.4,0c-1.7,0-3.4,0.1-5.1,0.1
	c-5.9,0.1-12.2,0.2-18.8,0.3c-2.3,0-4.6,0.1-7,0.1c-0.2-0.2-0.4-0.4-0.7-0.6c-0.6-0.6-1.2-1.1-1.8-1.7c0,0,0,0,0,0
	c-1.3-1.2-2.6-2.4-3.8-3.7c-0.6-0.6-1.1-1.1-1.7-1.7c-0.1-0.1-0.2-0.2-0.3-0.3h1.4c0,0,0,0,0,0c0.3,0,0.6,0,0.9,0c1.3,0,2.5,0,3.8,0
	c0.1,0,0.2,0,0.3,0h0c0.7,0,1.3,0,2,0c2.3,0,4.6,0,6.9,0.1c7.3,0.1,14.2,0.2,20.7,0.3c2,0,3.9,0.1,5.8,0.1c0.5,0,0.9,0,1.3,0
	c1.6,0,3.3,0.1,4.8,0.1c1.2,0,2.4,0.1,3.6,0.1c1.6,0,3.1,0.1,4.7,0.1c0.4,0,0.8,0,1.3,0c1.5,0.1,3,0.1,4.5,0.2
	c14.2,0.6,23.9,1.3,27.2,2.2C835.5,684.1,835.9,684.3,835.9,684.5z"/>
<polygon class="st4" points="1124.4,679.8 1124.4,680.2 1124.4,680.2 "/>
<path class="st4" d="M1113.1,678.6c0,0.3,0,0.5,0,0.8l1.3,0c0-0.6-0.1-1.3-0.1-1.9c2.1-2.2,4.2-4.4,6.2-6.6c0.7-0.8,1.4-1.6,2.1-2.4
	c0.3-0.3,0.5-0.6,0.8-0.9c0.8-0.9,1.6-1.8,2.3-2.7c1.7-2,3.4-4,5-6.1c1.1-1.4,2.3-2.9,3.4-4.3c4.3-5.6,8.3-11.3,12.1-17.2h0.7
	c0.3-0.7,0.8-1.4,1.4-1.8l0.1-0.7l-0.2-0.4c0.8-1.3,1.6-2.6,2.4-3.9v0c0.6-1,1.2-2,1.8-3c0.2-0.4,0.4-0.7,0.6-1.1
	c4.4-7.6,8.4-15.5,12-23.5l1,1c0.2-0.6,0.5-1.3,0.9-1.9c0-1.2,0-2.3,0-3.5c3-7,5.7-14.1,8-21.4c0.1-0.4,0.3-0.9,0.4-1.3
	c0.6-2,1.2-3.9,1.8-5.9l-6.3,1.5l-1.4,0.3l-3.1,0.8l-14.5,3.5l-9.9,2.4h0l-12.5,3.1c0,0,0,0,0,0l0,0c0,0,0,0,0,0l-0.4,0.1l-7.2,1.8
	l-5.4,1.3l-3.1,0.8l-2.1,0.5l-6.7,1.6l-2.8,0.7l-1.5,0.4l-0.8,0.2l-0.5,0.1l-8.5,2.1l-20.3,4.9l-4.3,1l-7.8,1.9l-33.5,8.1l-35.8,8.7
	c0,0,0,0,0,0l-2,0.5l-3.7,0.9l-0.3,0.1l0,0l-5.4,1.3l-60.7,14.7c0,0,0,0-0.1,0l-22.6,5.5l-8.8,2.1c0,0,0,0,0,0l-16.7,4.1l-0.6,0.2
	l-4.6,1.1l-44.6,10.8l-0.3,0.1l-1.4,0.3l-0.4,0.1l-6.8,1.6l-0.5,0.1l-5,1.2l-1.3,0.3l-3.5,0.8l-1.4,0.3l-0.2,0l-0.2,0.1h0l-4.8,1.2
	l-1,0.2l-5,1.2l-0.6,0.1l-33.2,8.1l0,0l0,0l-0.3,0.1l-1.4,0.3l-0.2,0l-0.2,0l-0.2,0v0l-0.3,0.1l-4.1,1h0l-1.2,0.3l-0.2,0l-0.7,0.2
	l-0.6,0.1l-3.1,0.7l-1.2,0.3l-0.2,0l-0.2,0c0,0,0,0,0,0c0.3,0.2,0.5,0.4,0.7,0.7l1.6-0.4c0.8,0.8,1.6,1.6,2.4,2.5
	c-0.2,0.3-0.4,0.6-0.5,0.9c0.3,0.2,0.5,0.4,0.7,0.7h367.8C1112,679.6,1112.6,679.1,1113.1,678.6z"/>
<path class="st4" d="M1178.2,569.4l-0.9,0.2c0-0.1,0-0.3,0-0.4v0c0-0.1,0.1-0.3,0.1-0.4L1178.2,569.4z"/>
<polygon class="st4" points="1178.3,569.5 1178.2,569.4 1178.5,569.3 1178.5,569.3 "/>
<path class="st4" d="M1184,539c2.2-13.7,3.4-27.7,3.4-42.1c0-37.8-8.1-73.7-22.6-106c-10.8,16.4-20.8,40.5-30.4,64.9
	c-1.8,4.6-3.6,9.1-5.4,13.7c-1.4,3.5-2.8,7.1-4.2,10.5c-1.1,2.8-2.2,5.5-3.3,8.2c-0.7,1.6-1.3,3.2-2,4.8c-1.4,3.2-2.7,6.4-4.1,9.4
	c-0.6,1.4-1.2,2.8-1.9,4.2v0c-0.2,0.4-0.3,0.7-0.5,1.1c-0.5,1.1-1,2.2-1.5,3.3c-0.1,0.2-0.2,0.4-0.3,0.6c-2.3,4.9-4.6,9.4-7,13.5
	c-0.8,1.4-1.7,2.8-2.5,4.2c-0.6,1-1.2,1.9-1.8,2.8c-5.8,8.6-11.7,14-17.8,14.9c-4,0.5-8.1,0-12.2-1.3c-1.4-0.5-2.9-1-4.3-1.7
	c-5.2-2.3-10.4-5.7-15.9-9.8c-7.8-5.9-16-13.2-24.3-20.5c-3.7-3.2-7.4-6.5-11.2-9.6c-1.8-1.5-3.6-2.9-5.4-4.3
	c-10.5-8.1-21.4-14.9-32.7-17.9h0c-0.3-0.1-0.5-0.1-0.8-0.2c-0.9-0.2-1.8-0.4-2.7-0.6h0c-0.5-0.1-1-0.2-1.5-0.3
	c-0.7-0.1-1.4-0.2-2.2-0.3c-0.7-0.1-1.4-0.1-2.1-0.2c-1.4-0.1-2.9-0.1-4.3-0.1c-4.6,0.2-9.3,1.1-14,2.9c-8.5,3.3-15.2,9.2-20.8,16.6
	c-1,1.4-2,2.8-3,4.3c-2.5,4-4.9,8.2-7,12.8c-0.2,0.4-0.4,0.8-0.6,1.2c-2.3,5.1-4.5,10.6-6.5,16.1c-0.5,1.4-1,2.9-1.5,4.3
	c-1.6,4.6-3.2,9.2-4.8,13.8v0c-0.3,0.9-0.6,1.8-0.9,2.7c-1.7,4.9-3.4,9.8-5.2,14.5c-0.2,0.4-0.3,0.9-0.5,1.3
	c-1.3,3.2-2.6,6.3-3.9,9.3c-0.8,1.8-1.7,3.6-2.6,5.3c-0.1,0.2-0.2,0.3-0.2,0.4c-0.8,1.5-1.6,2.9-2.4,4.3c-0.1,0.1-0.2,0.3-0.2,0.4
	c-0.8,1.4-1.7,2.7-2.6,3.9c-0.2,0.3-0.3,0.5-0.5,0.8c-0.3,0.4-0.6,0.8-0.9,1.3c-0.6,0.8-1.2,1.6-1.9,2.3c-3,3.5-6.3,6.5-10,8.7
	c-6,3.7-13.2,5.5-21.8,4.9c-1.9-0.1-3.7-0.3-5.5-0.5c-4-0.4-7.8-0.9-11.4-1.4c-0.5-0.1-1-0.1-1.5-0.2c-0.3,0-0.5-0.1-0.7-0.1
	c0,0,0,0,0,0c-1.3-0.2-2.6-0.5-3.8-0.7c-2.1-0.4-4-0.8-6-1.3c-3.2-0.8-6.3-1.6-9.2-2.4h0c-4.2-1.2-8-2.6-11.7-3.9c0,0,0,0,0,0
	c-0.7-0.3-1.4-0.5-2.1-0.8h0c0,0,0,0,0,0c-1.7-0.7-3.4-1.3-5-2c-4.1-1.7-8-3.4-11.8-5c-0.6-0.3-1.2-0.5-1.8-0.8
	c-0.2-0.1-0.4-0.2-0.6-0.3h0c0,0,0,0,0,0c-0.8-0.3-1.5-0.6-2.2-1c-0.4-0.2-0.7-0.3-1.1-0.5c-1.7-0.7-3.3-1.4-5-2
	c-8.6-3.3-17.2-5.8-27.5-6.1c-1.9-0.1-3.8-0.1-5.9,0c-2.2,0.1-4.5,0.5-7,1.2c-7.6,2.1-16.4,6.8-25.6,13.1c-0.1,0-0.1,0.1-0.2,0.2
	c-3.8,2.6-7.7,5.6-11.7,8.7c3.5,7.6,7.4,15,11.7,22.2v2.1c0.3,0.3,0.6,0.6,0.9,1c1.3,1.8,2.4,3.7,3.4,5.7h1.2
	c0.9,1.4,1.9,2.9,2.8,4.3c2.2,3.3,4.5,6.5,6.8,9.7c0.4,0.6,0.9,1.2,1.3,1.8c0.4,0.5,0.7,1,1.1,1.4c0.4,0.6,0.9,1.2,1.4,1.8
	c1.1,1.4,2.1,2.7,3.2,4.1c0.8,1,1.7,2.1,2.5,3.1c2,2.4,4.1,4.8,6.2,7.1c-0.2,0.4-0.5,0.8-0.6,1.2h1.7c0.3,0.4,0.7,0.8,1,1.1l0,0.2
	l0.1,0.9c-0.2,0-0.4,0.1-0.6,0.1c0.7,0.5,1.2,1.2,1.5,2c0.1,0.1,0.3,0.2,0.4,0.4l1.5-0.4l2.7-0.7l0.6-0.2l0.3-0.1l0.1,0l1.3-0.3
	l4.4-1.1l0.3-0.1l0.2-0.1l0.2,0l0.2,0l1.4-0.3l0.3-0.1l0,0l0,0l33.3-8.3l0.6-0.1l4.9-1.2l1-0.3l4.9-1.2l0.1,0l0.2,0l1.4-0.3l3.5-0.9
	h0l1.3-0.3l5-1.3l0.5-0.1l6.7-1.7l0.4-0.1l1.4-0.3l0.3-0.1l43.6-10.8l25.5-6.3c0,0,0,0,0,0l6.3-1.6l18.8-4.7c0,0,0,0,0.1,0
	l63.1-15.6h0l2.1-0.5l3.3-0.8l0.5-0.1h0l5.4-1.3l37.6-9.3l27.6-6.9l13.3-3.3l4.3-1.1l28.9-7.2l1.2-0.3l1.6-0.4l2.7-0.7l0.1,0
	l8.5-2.1l3.1-0.8l5.5-1.4l0.2,0l3.1-0.8h0l0,0h0l16.1-4h0l11.6-2.9l13.5-3.4v0l1.5-0.4l1.5-0.3l8-2l0.6-0.1l0.6-0.2
	c0-0.6-0.1-1.1-0.1-1.7v0C1180.6,556.9,1182.6,548,1184,539z"/>
<polygon class="st5" points="1124.4,679.8 1124.4,680.2 1124.4,680.2 "/>
<path class="st5" d="M1113.1,678.6c0,0.3,0,0.5,0,0.8l1.3,0c0-0.6-0.1-1.3-0.1-1.9c2.1-2.2,4.2-4.4,6.2-6.6c0.7-0.8,1.4-1.6,2.1-2.4
	c0.3-0.3,0.5-0.6,0.8-0.9c0.8-0.9,1.6-1.8,2.3-2.7c1.7-2,3.4-4,5-6.1c1.1-1.4,2.3-2.9,3.4-4.3c4.3-5.6,8.3-11.3,12.1-17.2h0.7
	c0.3-0.7,0.8-1.4,1.4-1.8l0.1-0.7l-0.2-0.4c0.8-1.3,1.6-2.6,2.4-3.9v0c0.6-1,1.2-2,1.8-3c0.2-0.4,0.4-0.7,0.6-1.1
	c4.4-7.6,8.4-15.5,12-23.5l1,1c0.2-0.6,0.5-1.3,0.9-1.9c0-1.2,0-2.3,0-3.5c0-8.7-0.2-17.5-0.6-26c0,0,0,0,0,0c0-0.6-0.1-1.3-0.1-1.9
	v0c0-0.7-0.1-1.3-0.1-1.9c0-0.6-0.1-1.2-0.1-1.8c-0.4-7.3-1-14.3-1.7-20.9c-2.5-21.7-7.1-38.2-15.1-41.5c0,0,0,0,0,0
	c-0.6-0.2-1.2-0.4-1.8-0.5c-0.1,0-0.2,0-0.4-0.1c-1.3-0.2-2.6-0.2-3.8,0c0,0-0.1,0-0.1,0c-5.1,0.6-9,3.8-12.3,8.4
	c-3.7,5.3-6.6,12.5-9.2,20.2c-0.3,0.8-0.5,1.5-0.8,2.3c-0.6,1.6-1.1,3.2-1.6,4.8c-0.5,1.5-1,3-1.5,4.4v0c0,0,0,0,0,0
	c-1,3.1-2.1,6.1-3.3,9c-1.6,4.1-3.4,8-5.4,11.3c0,0,0,0,0,0c0,0,0,0,0,0c-0.1,0.1-0.2,0.3-0.3,0.4c-1.3,2.1-2.7,3.9-4.3,5.5
	c-1.3,1.3-2.7,2.4-4.3,3.3c-2.3,1.3-5,2-7.9,1.9c-8.4-0.2-15.7-2.3-22.1-4.6c-1.5-0.5-2.9-1.1-4.3-1.6c-3.1-1.2-5.9-2.4-8.6-3.3
	c-2.5-0.8-4.8-1.5-6.9-1.7c-1.1-0.1-2.2-0.1-3.2,0c-2.8,0.3-5.3,1.6-7.6,4.3c-1,1.2-1.9,2.6-2.8,4.3c-0.6,1.1-1.2,2.4-1.8,3.8
	c-1.2,3.1-2.3,6.1-3.4,9.1c-0.5,1.5-1,2.9-1.4,4.3c-1,3-1.9,5.8-2.8,8.6c-0.8,2.4-1.6,4.7-2.4,6.9c0,0,0,0.1,0,0.2
	c-0.1,0.4-0.3,0.8-0.4,1.1c0,0.1,0,0.1-0.1,0.2h0c-4.9,12.4-11.3,19.7-26.7,14.9c-10.5-3.3-23.1,5.8-34.4,17.6
	c-1.9,2.1-3.8,4.2-5.7,6.4c-2.4,2.8-4.7,5.7-6.9,8.6c-10.2,13.4-17.3,25.8-17.3,25.8h178.1C1112,679.6,1112.6,679.1,1113.1,678.6z"
	/>
<polygon class="st6" points="1124.4,679.8 1124.4,680.2 1124.4,680.2 "/>
<path class="st6" d="M1113.1,678.6c0,0.3,0,0.5,0,0.8l1.3,0c0-0.6-0.1-1.3-0.1-1.9c2.1-2.2,4.2-4.4,6.2-6.6c0.7-0.8,1.4-1.6,2.1-2.4
	c0.3-0.3,0.5-0.6,0.8-0.9c0.8-0.9,1.6-1.8,2.3-2.7c1.7-2,3.4-4,5-6.1c1.1-1.4,2.3-2.9,3.4-4.3c4.3-5.6,8.3-11.3,12.1-17.2h0.7
	c0.3-0.7,0.8-1.4,1.4-1.8l0.1-0.7l-0.2-0.4c0.8-1.3,1.6-2.6,2.4-3.9v0c0.6-1,1.2-2,1.8-3c0.2-0.4,0.4-0.7,0.6-1.1
	c4.4-7.6,8.4-15.5,12-23.5l1,1c0.2-0.6,0.5-1.3,0.9-1.9c0-1.2,0-2.3,0-3.5c3-7,5.7-14.1,8-21.4c0.1-0.4,0.3-0.9,0.4-1.3
	c0.6-2,1.2-3.9,1.8-5.9l0.1,0c0-0.1,0-0.3,0-0.4v0c0-0.1,0.1-0.3,0.1-0.4l0.8,0.6l0.2,0.1l0.1-0.2v0l-0.1-2c0-0.6-0.1-1.1-0.1-1.7v0
	c2.4-8.7,4.3-17.6,5.8-26.7c-2.2-2.6-4.8-4.1-7.7-4c-4.9,0.1-8.7,4.5-12.1,10.8c-4.1,7.8-7.6,18.5-11.6,28c0,0,0,0,0,0
	c-0.3,0.7-0.6,1.4-0.9,2.1c0,0,0,0,0,0c-0.8,1.9-1.7,3.8-2.6,5.5c-0.8,1.5-1.6,3-2.4,4.3c0,0,0,0,0,0.1c-0.8,1.3-1.7,2.5-2.5,3.6
	c-0.1,0.1-0.2,0.3-0.3,0.4c-0.1,0.1-0.1,0.1-0.2,0.2c-1.9,2.2-3.9,3.9-6.2,4.9c-1.9,0.8-3.9,1.3-5.9,1.4c-1,0.1-2,0.1-3,0
	c-2.3-0.1-4.7-0.6-7-1.2c-1.5-0.4-3.1-0.9-4.6-1.4c-1.1-0.4-2.2-0.8-3.3-1.1c-0.2-0.1-0.4-0.1-0.6-0.2c-3-1.1-5.9-2.1-8.7-2.9
	c-1-0.3-1.9-0.5-2.9-0.7c-0.5-0.1-1-0.2-1.4-0.2c-0.2,0-0.4,0-0.5-0.1c-0.1,0-0.2,0-0.2,0c-0.2,0-0.4,0-0.5,0
	c-3.1-0.2-6,0.4-8.5,2.2c-0.1,0-0.1,0.1-0.2,0.1c-1.3,1-2.4,2.3-3.5,4c-10.9,17.8-2,51.2-20.9,50.8c-7.9-0.2-17.4-1.5-25.9,0.1
	c-11.9,2.2-21.8,10-22.5,34.4v0l1.2,0h93C1112,679.6,1112.6,679.1,1113.1,678.6z"/>
<path class="st5" d="M1177.2,569.2c-0.4-6.6-0.8-11.5-1-13.8c-0.1-1.1-0.1-1.6-0.1-1.6l1.2-0.1c0,0,0.4,4.5,0.9,12v0
	c0,0.5,0.1,1.1,0.1,1.7c0,0.6,0.1,1.3,0.1,2v0l-0.1,0.2l-1-0.7C1177.3,568.9,1177.2,569.1,1177.2,569.2z"/>
<polygon class="st5" points="1178.3,567.3 1177.3,568.7 1177.3,568.8 1177.3,568.8 1178.3,569.5 1178.5,569.3 1178.5,569.3 "/>
<path class="st5" d="M1170.8,571.2l4.5,4.3c-0.1,0.5-0.3,0.9-0.4,1.3l-5.5-5.3l0,0l-1.6-1.5l0,0l-1.6-1.6l-3-2.9l0.9-0.9l2,1.9
	l3.2,3.1L1170.8,571.2L1170.8,571.2z"/>
<path class="st5" d="M1165.9,603.8c0.1-0.4,0.3-0.8,0.5-1.2l-1-1l-9.3-9.1l-0.9,0.9l9.6,9.4L1165.9,603.8z"/>
<path class="st5" d="M1149.9,623.5l3,2.8c-0.2,0.4-0.4,0.7-0.6,1.1l-2.2-2l-2.4-2.2l0.8-0.9L1149.9,623.5z"/>
<path class="st5" d="M1114.4,679.3l-1.3,0c0-0.3,0-0.5,0-0.8c-0.2-3.5-0.5-7.1-0.8-10.6c0-0.5-0.1-0.9-0.1-1.4
	c-0.3-2.7-0.5-5.3-0.9-7.9c-0.2-1.4-0.4-2.9-0.6-4.3c-0.3-2-0.6-4-0.9-6c-0.1-0.5-0.2-1-0.2-1.5c0-0.3-0.1-0.7-0.2-1
	c-1.1-6.9-2.5-13.8-4.1-20.7c-0.1-0.5-0.3-1.1-0.4-1.6c-0.3-1.2-0.6-2.3-0.9-3.5c-0.7-2.9-1.5-5.7-2.3-8.6c-0.4-1.4-0.8-2.9-1.3-4.3
	c0-0.2-0.1-0.4-0.2-0.5c-0.1-0.2-0.1-0.4-0.2-0.5c0,0,0-0.1,0-0.1v0c-0.2-0.6-0.3-0.9-0.3-1l0.3-0.1l0.1,0l0.8-0.3
	c0.3,0.9,0.5,1.8,0.8,2.6c0.2,0.6,0.4,1.3,0.6,1.9c0.2,0.8,0.5,1.6,0.7,2.4c0.5,1.7,1,3.4,1.4,5.1c0.1,0.4,0.2,0.9,0.3,1.3
	c0.2,0.7,0.4,1.4,0.6,2.1c1.8,7.1,3.4,14.3,4.7,21.6c0.1,0.7,0.3,1.4,0.4,2.1c0.1,0.7,0.3,1.4,0.4,2.2c0.5,2.8,0.9,5.7,1.3,8.6
	c0.2,1.4,0.4,2.9,0.6,4.3c0.2,1.5,0.4,2.9,0.5,4.4c0.1,0.6,0.1,1.3,0.2,1.9c0.4,4.1,0.8,8.2,1,12.4
	C1114.3,678,1114.3,678.7,1114.4,679.3z"/>
<path id="path58" class="st5" d="M1108.5,607.7l-4.5,12l1.2,0.4l4.5-12L1108.5,607.7z"/>
<path id="path60" class="st5" d="M1123.2,613.7l-14.1,29.4l1.1,0.5l14.1-29.4L1123.2,613.7z"/>
<path id="path62" class="st5" d="M1127.2,639.7l-15,24.7l1.1,0.7l15-24.7L1127.2,639.7z"/>
<path id="path64" class="st5" d="M1094.4,619.7l11.1,5.6l0.6-1.1l-11.1-5.6L1094.4,619.7z"/>
<path id="path66" class="st5" d="M1088.3,637.6l21.9,10.9l0.6-1.1l-21.9-10.9L1088.3,637.6z"/>
<path id="path68" class="st5" d="M1093.1,660.6l19.7,7.6l0.5-1.2l-19.7-7.6L1093.1,660.6z"/>
<path class="st7" d="M782.3,443.9V293.6h-14.7c-10,7.9-19.4,16.5-28.1,25.8H735v4.3h0.5c-3.1,3.5-6.2,7.1-9.1,10.7
	c-0.6,0.7-1.1,1.4-1.7,2.1c-2.2,2.8-4.4,5.7-6.5,8.6c-1,1.4-2,2.9-3,4.3c-3.6,5.2-7,10.5-10.2,16c-13.9,23.5-24.2,49.5-30.1,77
	v108.9c4.1,19.2,10.3,37.6,18.4,54.9c3.5,7.6,7.4,15,11.7,22.2v2.1c0.3,0.3,0.6,0.6,0.9,1c1.3,1.8,2.4,3.7,3.4,5.7h1.2
	c0.9,1.4,1.9,2.9,2.8,4.3c2.2,3.3,4.5,6.5,6.8,9.7c0.4,0.6,0.9,1.2,1.3,1.8c0.4,0.5,0.7,1,1.1,1.4c0.4,0.6,0.9,1.2,1.4,1.8
	c1.1,1.4,2.1,2.7,3.2,4.1c0.8,1,1.7,2.1,2.5,3.1c2,2.4,4.1,4.8,6.2,7.1c-0.2,0.4-0.5,0.8-0.6,1.2h1.7c0.3,0.4,0.7,0.8,1,1.1l0,0.2
	l0.1,0.9c-0.2,0-0.4,0.1-0.6,0.1c0.7,0.5,1.2,1.2,1.5,2c0.3,0.2,0.5,0.4,0.7,0.7l1.6-0.4c0.8,0.8,1.6,1.6,2.4,2.5
	c-0.2,0.3-0.4,0.6-0.5,0.9c0.3,0.2,0.5,0.4,0.7,0.7h150.2V443.9H782.3z"/>
<rect x="735" y="319.4" class="st1" width="12.9" height="4.3"/>
<path id="path80" class="st1" d="M769.4,323.7h-12.9v-4.3h12.9V323.7L769.4,323.7z"/>
<path class="st1" d="M726.4,334.4v2.1h-1.7C725.3,335.8,725.8,335.1,726.4,334.4z"/>
<path id="path84" class="st1" d="M747.9,336.6H735v-4.3h12.9V336.6L747.9,336.6z"/>
<path id="path86" class="st1" d="M769.4,336.6h-12.9v-4.3h12.9V336.6L769.4,336.6z"/>
<path class="st1" d="M726.4,345.1v4.3h-11.3c1-1.4,2-2.9,3-4.3H726.4z"/>
<path id="path90" class="st1" d="M747.9,349.4H735v-4.3h12.9V349.4L747.9,349.4z"/>
<path id="path92" class="st1" d="M769.4,349.4h-12.9v-4.3h12.9V349.4L769.4,349.4z"/>
<path id="path94" class="st1" d="M726.4,366.6h-12.9v-4.3h12.9V366.6L726.4,366.6z"/>
<path id="path96" class="st1" d="M747.9,366.6H735v-4.3h12.9V366.6L747.9,366.6z"/>
<path id="path98" class="st1" d="M769.4,366.6h-12.9v-4.3h12.9V366.6L769.4,366.6z"/>
<path class="st8" d="M704.9,365.4v263c-4.2-7.2-8.1-14.6-11.7-22.2c-8.1-17.3-14.3-35.7-18.4-54.9c-0.5-2.4-1-4.8-1.4-7.2
	c-1.2-6.5-2.2-13.2-2.9-19.9v-54.7c1-9.2,2.4-18.2,4.3-27.1C680.8,414.9,691,389,704.9,365.4z"/>
<path class="st6" d="M816.6,657.4C816.6,657.4,816.6,657.4,816.6,657.4c-0.1-0.1-0.2-0.2-0.2-0.3c0,0,0,0,0,0
	c-3.1-3.9-6.5-7.8-10-11.3c-2.1-2.1-4.2-4-6.4-5.7c-0.2-0.2-0.4-0.3-0.6-0.4c-1.3-1-2.6-1.9-3.9-2.7c0,0-0.1-0.1-0.1-0.1
	c-1.2-0.7-2.3-1.3-3.5-1.8c-2-0.9-4-1.4-6-1.5c-0.4,0-0.8,0-1.3,0c-1.1,0-2.2,0.2-3.2,0.5c-2.6,0.8-4.9,1.2-6.9,1.2
	c-5.1,0-8.5-2.5-11.1-6.6c-4.4-7-6.6-18.5-11.4-30.2c-2.4-6-5.2-8.8-8.5-9.6c-3.6-0.9-7.8,0.5-12.9,2.5c-6.5,2.5-14.3,5.9-23.9,6.1
	c-0.6,0-1.1,0-1.7-0.1c-0.1,0-0.1,0-0.2,0c-10.3-1.3-14.9-14.8-19.4-28.3c-3-9.1-6-18.2-10.7-23.5c-0.5-0.5-0.9-1-1.4-1.5
	c0.4,2.4,0.9,4.8,1.4,7.2c4.1,19.2,10.3,37.6,18.4,54.9c3.5,7.6,7.4,15,11.7,22.2v2.1c0.3,0.3,0.6,0.6,0.9,1
	c1.3,1.8,2.4,3.7,3.4,5.7h1.2c0.9,1.4,1.9,2.9,2.8,4.3c2.2,3.3,4.5,6.5,6.8,9.7c0.4,0.6,0.9,1.2,1.3,1.8c0.4,0.5,0.7,1,1.1,1.4
	c0.4,0.6,0.9,1.2,1.4,1.8c1.1,1.4,2.1,2.7,3.2,4.1c0.8,1,1.7,2.1,2.5,3.1c2,2.4,4.1,4.8,6.2,7.1c-0.2,0.4-0.5,0.8-0.6,1.2h1.7
	c0.3,0.4,0.7,0.8,1,1.1l0,0.2l0.1,0.9c-0.2,0-0.4,0.1-0.6,0.1c0.7,0.5,1.2,1.2,1.5,2c0.3,0.2,0.5,0.4,0.7,0.7l1.6-0.4
	c0.8,0.8,1.6,1.6,2.4,2.5c-0.2,0.3-0.4,0.6-0.5,0.9c0.3,0.2,0.5,0.4,0.7,0.7h88.4C832.1,680.2,825.6,668.9,816.6,657.4z"/>
<path id="path104" class="st9" d="M717,594.8L717,594.8c4.2-1.1,8.4-2.5,12.4-4.2l0,0C725.4,592.3,721.3,593.7,717,594.8L717,594.8z
	"/>
<path id="path106" class="st10" d="M817,657.3C817,657.3,817,657.3,817,657.3c-0.1-0.1-0.2-0.2-0.2-0.3c0,0,0,0,0,0
	c-3-3.9-6.2-7.6-9.6-11.2h-4.8c2.5,4.8,5,9.7,6.7,13.1c0,0,0,0,0,0c0,0.1,0.1,0.2,0.1,0.3c0.7,1.4,1.2,2.6,1.5,3.3
	c0.7,1.9-0.2,7-1.6,13.1c-0.3,1.2-0.6,2.5-1,3.8c-0.1,0.2-0.1,0.5-0.2,0.7h24.6C827.9,672.2,822.7,664.6,817,657.3z M800.5,668
	C800.5,668,800.5,668,800.5,668l-2.6-4.3c0.1,1.2,0.2,2.1,0.3,2.7c0,0,0,0.1,0,0.1c-0.4,2.8-1.1,5.5-2,8.2c-0.3,0.9-0.7,1.9-1.1,2.8
	c-0.4,0.9-0.8,1.8-1.2,2.7h3.7c0.6-4,1.7-7.9,3.3-11.6L800.5,668z M787,665c0,0,0-0.1-0.1-0.2c0,0,0-0.1,0-0.1c0-0.1,0-0.1-0.1-0.2
	c0,0,0-0.1-0.1-0.2c-1.2-3-5.8-15-7.1-18.5c0,0,0,0,0,0h-36.1v4.9l6-1l3.7,21.9h-2.6l0.2,1.4l0.1,0.4v0.1l0,0.3l0.3,2.1h9.4v4.3
	h21.5l-0.3-0.7l-0.3-0.5c1.2-4.6,2.8-9,5-13.2C786.8,665.5,786.9,665.3,787,665z M717.8,596.5v45.1h12.9v-49.3
	C726.5,593.9,722.2,595.3,717.8,596.5z"/>
<path id="path108" class="st1" d="M1023.1,697.3c-16.5-39.3-55-64.9-97.6-64.9c-42.6,0-81.1,25.6-97.6,64.9h194.9H1023.1z"/>
<path id="path110" class="st11" d="M997,654.4H853.9c4-3.1,8.2-6,12.5-8.6h118.2c4.4,2.6,8.6,5.5,12.5,8.6H997z"/>
<path id="path112" class="st1" d="M730.7,645.8h390.9V375.2H730.7V645.8z"/>
<path id="path116" class="st12" d="M743.6,628.6h90.2V405.3h-90.2V628.6z"/>
<path id="path118" class="st2" d="M743.6,422.5h360.8V401H743.6V422.5z"/>
<path id="path120" class="st13" d="M833.8,422.5h-90.2V401h90.2V422.5L833.8,422.5z"/>
<path id="path122" class="st11" d="M929,389.6c0,1.9-1.5,3.4-3.4,3.4c-1.9,0-3.4-1.5-3.4-3.4s1.5-3.4,3.4-3.4
	C927.4,386.2,929,387.7,929,389.6L929,389.6z"/>
<path id="path124" class="st1" d="M760.8,405.3h-12.9v4.3h12.9l0,0V405.3z"/>
<path id="path126" class="st1" d="M760.8,409.6h-12.9v4.3h12.9V409.6L760.8,409.6z"/>
<path id="path128" class="st1" d="M760.8,409.6h-12.9v4.3h12.9l0,0V409.6z"/>
<path id="path130" class="st14" d="M1070,504.1H863.9v-64.4H1070V504.1L1070,504.1z"/>
<path id="path132" class="st2" d="M924,499.8h-64.4v-64.4H924V499.8L924,499.8z"/>
<path id="path134" class="st13" d="M919.7,495.5v-4.3h-51.5v-47.2h47.2v51.5h3.7l0,0H919.7v-51.5h-51.5v47.2h51.5V495.5L919.7,495.5
	L919.7,495.5z"/>
<path id="path136" class="st13" d="M867.3,443.6l50.3,50.3l0.9-0.9l-50.3-50.3L867.3,443.6z"/>
<path id="path138" class="st13" d="M868.2,493.9l50.3-50.3l-0.9-0.9L867.3,493L868.2,493.9z"/>
<path id="path140" class="st1" d="M1065.7,499.8H924v-64.4h141.7V499.8L1065.7,499.8z"/>
<path id="path142" class="st11" d="M1057.1,495.5h-30.1v-4.3h30.1V495.5L1057.1,495.5z"/>
<path id="path144" class="st15" d="M975.5,452.5h-47.2v-8.6h47.2V452.5L975.5,452.5z"/>
<path id="path146" class="st15" d="M992.7,465.4h-64.4v-8.6h64.4V465.4L992.7,465.4z"/>
<path id="path148" class="st11" d="M1057.1,469.7H924l0,0H1057.1v4.3V469.7z"/>
<path id="path150" class="st11" d="M1057.1,474H924l0,0H1057.1v4.3V474z"/>
<path id="path152" class="st11" d="M962.7,478.3H924l0,0H962.7v4.3V478.3z"/>
<path id="path154" class="st11" d="M971.2,478.3h-4.3l0,0l0,0v4.3L971.2,478.3z"/>
<path id="path156" class="st11" d="M975.5,478.3h-4.3l0,0l0,0v4.3L975.5,478.3z"/>
<path id="path158" class="st11" d="M979.8,478.3h-4.3l0,0l0,0v4.3L979.8,478.3z"/>
<path id="path160" class="st11" d="M984.1,478.3h-4.3l0,0l0,0v4.3L984.1,478.3z"/>
<path id="path162" class="st14" d="M863.9,598.6H1070v-64.4H863.9V598.6z"/>
<path id="path164" class="st2" d="M859.6,598.6H924v-64.4h-64.4V598.6z"/>
<path id="path166" class="st13" d="M919.7,590L919.7,590h-51.5v-51.5h47.2V590h3.7l0,0H919.7v-51.5h-51.5V590H919.7v4.3l0,0V590z"/>
<path id="path168" class="st13" d="M867.3,540.1l50.3,50.3l0.9-0.9l-50.3-50.3L867.3,540.1L867.3,540.1z"/>
<path id="path170" class="st13" d="M868.2,590.4l50.3-50.3l-0.9-0.9l-50.3,50.3L868.2,590.4L868.2,590.4z"/>
<path id="path172" class="st1" d="M1065.7,598.6H924v-64.4h141.7V598.6L1065.7,598.6z"/>
<path id="path174" class="st11" d="M1057.1,590h-30.1v-4.3h30.1V590L1057.1,590z"/>
<path id="path176" class="st15" d="M975.5,547h-47.2v-8.6h47.2V547L975.5,547z"/>
<path id="path178" class="st15" d="M992.7,559.9h-64.4v-8.6h64.4v12.9V559.9z"/>
<path id="path180" class="st11" d="M1057.1,564.2H924v4.3h133.1l0,0V564.2z"/>
<path id="path182" class="st11" d="M1057.1,568.5H924v4.3h133.1l0,0V568.5z"/>
<path id="path184" class="st11" d="M962.7,572.8H924v4.3h38.7v0V572.8z"/>
<path id="path186" class="st11" d="M971.2,572.8h-4.3v4.3l0,0v0L971.2,572.8z"/>
<path id="path188" class="st11" d="M975.5,572.8h-4.3v4.3l0,0v0L975.5,572.8z"/>
<path id="path190" class="st11" d="M979.8,572.8h-4.3v4.3l0,0v0L979.8,572.8z"/>
<path id="path192" class="st11" d="M984.1,572.8h-4.3v4.3l0,0v0L984.1,572.8z"/>
<path id="path194" class="st14" d="M1104.4,620h-4.3V426.8h4.3V620z"/>
<path id="path196" class="st1" d="M1100.7,501.2L1100.7,501.2c-0.9,0-1.6-0.7-0.6-1.6v-64.2c-1.1-0.9-0.3-1.6,0.6-1.6
	c0.9,0,1.6,0.7,3.7,1.6v64.2C1102.3,500.5,1101.6,501.2,1100.7,501.2L1100.7,501.2z"/>
<path id="path198" class="st14" d="M1012.5,516.4l-3.4,3.1c-0.8,0.7-1.9,1.2-3,1.2c-1.1,0-2.2-0.4-3-1.2l-0.4,0.5l0.4-0.4l0,0l0,0
	l0,0c-1.1-1-2.4-1.5-3.8-1.5c-1.4,0-2.8,0.5-3.8,1.5l0,0l0,0l0.4,0.4l-0.4-0.5c-0.8,0.7-1.9,1.2-3,1.2c-1.1,0-2.2-0.4-3-1.2
	l-0.4,0.5l0.4-0.4l0,0l0,0l0,0c-1.1-1-2.4-1.5-3.8-1.5c-1.4,0-2.8,0.5-3.8,1.5l0,0l0,0l0.4,0.4l-0.4-0.5c-0.8,0.7-1.9,1.2-3,1.2
	c-1.1,0-2.2-0.4-3-1.2l-0.4,0.5l0.4-0.4l0,0l0,0l0,0c-1.1-1-2.4-1.5-3.8-1.5c-1.4,0-2.8,0.5-3.8,1.5l0,0l0,0l0.4,0.4l-0.4-0.5
	c-0.8,0.7-1.9,1.2-3,1.2c-1.1,0-2.2-0.4-3-1.2l-0.4,0.5l0.4-0.4l0,0l0,0l0,0c-1.1-1-2.4-1.5-3.8-1.5c-1.4,0-2.8,0.5-3.8,1.5l0,0l0,0
	l0.4,0.4l-0.4-0.5c-0.8,0.7-1.9,1.2-3,1.2c-1.1,0-2.2-0.4-3-1.2l-0.4,0.5l0.4-0.4l0,0l0,0l0,0c-1.1-1-2.4-1.5-3.8-1.5
	c-1.4,0-2.8,0.5-3.8,1.5l0,0l0,0l0.4,0.4l-0.4-0.5c-0.8,0.7-1.9,1.2-3,1.2c-1.1,0-2.2-0.4-3-1.2l-0.4,0.5l0.4-0.4l0,0l0,0l0,0
	c-1.1-1-2.4-1.5-3.8-1.5c-1.4,0-2.8,0.5-3.8,1.5l-2.9,0.2v1.5h3.3l-0.4-1.7c-0.8,0.7-1.9,1.2-3,1.2c-1.1,0-2.2-0.4-3-1.2l-3.4-3.1
	l-0.9,0.9l3.4,3.1c1.1,1,2.4,1.5,3.8,1.5c1.4,0,2.8-0.5,3.8-1.5l0.6-0.2v1h-1l0.4-0.8c0.8-0.7,1.9-1.2,3-1.2c1.1,0,2.2,0.4,3,1.2
	l0.4-0.5l-0.4,0.4l0,0l0,0l0,0c1,1,2.4,1.5,3.8,1.5c1.4,0,2.8-0.5,3.8-1.5l0,0l0,0L941,520l0.4,0.5c0.8-0.7,1.9-1.2,3-1.2
	c1.1,0,2.2,0.4,3,1.2l0.4-0.5l-0.4,0.4l0,0l0,0l0,0c1,1,2.4,1.5,3.8,1.5c1.4,0,2.8-0.5,3.8-1.5l0,0l0,0l-0.4-0.4l0.4,0.5
	c0.8-0.7,1.9-1.2,3-1.2c1.1,0,2.2,0.4,3,1.2l0.4-0.5l-0.4,0.4l0,0l0,0l0,0c1,1,2.4,1.5,3.8,1.5c1.4,0,2.8-0.5,3.8-1.5l0,0l0,0
	l-0.4-0.4l0.4,0.5c0.8-0.7,1.9-1.2,3-1.2c1.1,0,2.2,0.4,3,1.2l0.4-0.5l-0.4,0.4l0,0l0,0l0,0c1,1,2.4,1.5,3.8,1.5
	c1.4,0,2.8-0.5,3.8-1.5l0,0l0,0l-0.4-0.4l0.4,0.5c0.8-0.7,1.9-1.2,3-1.2c1.1,0,2.2,0.4,3,1.2l0.4-0.5l-0.4,0.4l0,0l0,0l0,0
	c1,1,2.4,1.5,3.8,1.5c1.4,0,2.8-0.5,3.8-1.5l0,0l0,0l-0.4-0.4l0.4,0.5c0.8-0.7,1.9-1.2,3-1.2c1.1,0,2.2,0.4,3,1.2l0.4-0.5l-0.4,0.4
	l0,0l0,0l0,0c1,1,2.4,1.5,3.8,1.5c1.4,0,2.8-0.5,3.8-1.5l3.4-3.1L1012.5,516.4L1012.5,516.4z"/>
<path id="path200" class="st14" d="M1012.5,612.8l-3.4,3.1c-0.8,0.7-1.9,1.2-3,1.2c-1.1,0-2.2-0.4-3-1.2l-0.4,0.5l0.4-0.4l0,0l0,0
	l0,0c-1.1-1-2.4-1.5-3.8-1.5c-1.4,0-2.8,0.5-3.8,1.5l0,0l0,0l0.4,0.4l-0.4-0.5c-0.8,0.7-1.9,1.2-3,1.2c-1.1,0-2.2-0.4-3-1.2
	l-0.4,0.5l0.4-0.4l0,0l0,0l0,0c-1.1-1-2.4-1.5-3.8-1.5c-1.4,0-2.8,0.5-3.8,1.5l0,0l0,0l0.4,0.4l-0.4-0.5c-0.8,0.7-1.9,1.2-3,1.2
	c-1.1,0-2.2-0.4-3-1.2l-0.4,0.5l0.4-0.4l0,0l0,0l0,0c-1.1-1-2.4-1.5-3.8-1.5c-1.4,0-2.8,0.5-3.8,1.5l0,0l0,0l0.4,0.4l-0.4-0.5
	c-0.8,0.7-1.9,1.2-3,1.2c-1.1,0-2.2-0.4-3-1.2l-0.4,0.5l0.4-0.4l0,0l0,0l0,0c-1.1-1-2.4-1.5-3.8-1.5c-1.4,0-2.8,0.5-3.8,1.5l0,0l0,0
	l0.4,0.4l-0.4-0.5c-0.8,0.7-1.9,1.2-3,1.2c-1.1,0-2.2-0.4-3-1.2l-0.4,0.5l0.4-0.4l0,0l0,0l0,0c-1.1-1-2.4-1.5-3.8-1.5
	c-1.4,0-2.8,0.5-3.8,1.5l0,0l0,0l0.4,0.4l-0.4-0.5c-0.8,0.7-1.9,1.2-3,1.2c-1.1,0-2.2-0.4-3-1.2l-0.4,0.5l0.4-0.4l0,0l0,0l0,0
	c-1.1-1-2.4-1.5-3.8-1.5c-1.4,0-2.8,0.5-3.8,1.5l-2.9,0.2v-0.4h3.3l-0.4,0.2c-0.8,0.7-1.9,1.2-3,1.2c-1.1,0-2.2-0.4-3-1.2l-3.4-3.1
	l-0.9,0.9l3.4,3.1c1.1,1,2.4,1.5,3.8,1.5c1.4,0,2.8-0.5,3.8-1.5l0.6-0.2v-1h-1l0.4,1.2c0.8-0.7,1.9-1.2,3-1.2c1.1,0,2.2,0.4,3,1.2
	l0.4-0.5l-0.4,0.4l0,0l0,0l0,0c1,1,2.4,1.5,3.8,1.5c1.5,0.1,2.9-0.5,4-1.5l0,0l0,0l-0.4-0.4l0.4,0.5c0.8-0.7,1.9-1.2,3-1.2
	c1.1,0,2.2,0.4,3,1.2l0.4-0.5l-0.4,0.4l0,0l0,0l0,0c1,1,2.4,1.5,3.8,1.5c1.4,0,2.8-0.5,3.8-1.5l0,0l0,0l-0.4-0.4l0.4,0.5
	c0.8-0.7,1.9-1.2,3-1.2c1.1,0,2.2,0.4,3,1.2l0.4-0.5l-0.4,0.4l0,0l0,0l0,0c1.1,1,2.4,1.5,3.8,1.5c1.4,0,2.8-0.5,3.8-1.5l0,0l0,0
	l-0.4-0.4l0.4,0.5c0.8-0.7,1.9-1.2,3-1.2c1.1,0,2.2,0.4,3,1.2l0.4-0.5l-0.4,0.4l0,0l0,0l0,0c1,1,2.4,1.5,3.8,1.5
	c1.4,0,2.8-0.5,3.8-1.5l0,0l0,0l-0.4-0.4l0.4,0.5c0.8-0.7,1.9-1.2,3-1.2c1.1,0,2.2,0.4,3,1.2l0.4-0.5l-0.4,0.4l0,0l0,0l0,0
	c1.1,1,2.4,1.5,3.8,1.5c1.4,0,2.8-0.5,3.8-1.5l0,0l0,0l-0.4-0.4l0.4,0.5c0.8-0.7,1.9-1.2,3-1.2c1.1,0,2.2,0.4,3,1.2l0.4-0.5
	l-0.4,0.4l0,0l0,0l0,0c1.1,1,2.4,1.5,3.8,1.5c1.4,0,2.8-0.5,3.8-1.5l3.4-3.1l-0.9-0.9L1012.5,612.8z"/>
<path id="path202" class="st14" d="M1097.5,413.9l-0.4-0.4c1.1-1.4,1-3.4-0.3-4.7c-1.4-1.4-3.7-1.4-5.1,0c-1.4,1.4-1.4,3.7,0,5.1
	c0,0,0.1,0,0.1,0.1c1.3,1.2,3.2,1.3,4.6,0.2l3.6,3.6l0.7-0.7L1097.5,413.9z M1093.8,413.9c-0.5-0.1-1-0.3-1.4-0.7c-1-1-1-2.7,0-3.7
	c1-1,2.7-1,3.7,0c1,1,1,2.7,0,3.7c-0.4,0.4-0.9,0.6-1.4,0.7C1094.4,413.9,1094.1,413.9,1093.8,413.9z"/>
<path id="path204" class="st14" d="M765.8,444.7c0,2.8-2.2,5-5,5h0c-2.8,0-5-2.2-5-5l0,0c0-2.8,2.2-5,5-5h0
	C763.6,439.7,765.8,442,765.8,444.7L765.8,444.7L765.8,444.7z"/>
<path id="path206" class="st14" d="M816.6,448.2h-47.2v-4.3h47.2V448.2L816.6,448.2z"/>
<path id="path208" class="st14" d="M765.8,465.3c0,2.8-2.2,5-5,5h0c-2.8,0-5-2.2-5-5l0,0c0-2.8,2.2-5,5-5h0
	C763.6,460.3,765.8,462.5,765.8,465.3L765.8,465.3L765.8,465.3z"/>
<path id="path210" class="st14" d="M816.6,461.1h-47.2v4.3h47.2l0,0V461.1z"/>
<path id="path212" class="st14" d="M765.8,485.9c0,2.8-2.2,5-5,5h0c-2.8,0-5-2.2-5-5l0,0c0-2.8,2.2-5,5-5h0
	C763.6,480.9,765.8,483.1,765.8,485.9L765.8,485.9L765.8,485.9z"/>
<path id="path214" class="st14" d="M816.6,486.9h-47.2v-4.3h47.2V486.9L816.6,486.9z"/>
<path id="path216" class="st14" d="M765.8,506.5c0,2.8-2.2,5-5,5h0c-2.8,0-5-2.2-5-5l0,0c0-2.8,2.2-5,5-5h0
	C763.6,501.4,765.8,503.7,765.8,506.5L765.8,506.5L765.8,506.5z"/>
<path id="path218" class="st14" d="M816.6,508.4h-47.2v-4.3h47.2V508.4L816.6,508.4z"/>
<path id="path220" class="st14" d="M765.8,527c0,2.8-2.2,5-5,5h0c-2.8,0-5-2.2-5-5l0,0c0-2.8,2.2-5,5-5h0
	C763.6,522,765.8,524.3,765.8,527L765.8,527L765.8,527z"/>
<path id="path222" class="st14" d="M816.6,529.8h-47.2v-4.3h47.2V529.8L816.6,529.8z"/>
<path id="path224" class="st14" d="M765.8,547.6c0,2.8-2.2,5-5,5h0c-2.8,0-5-2.2-5-5l0,0c0-2.8,2.2-5,5-5h0
	C763.6,542.6,765.8,544.8,765.8,547.6L765.8,547.6L765.8,547.6z"/>
<path id="path226" class="st14" d="M816.6,551.3h-47.2V547h47.2V551.3L816.6,551.3z"/>
<path id="path228" class="st13" d="M971.2,418.2h-94.5v-8.6h94.5V418.2L971.2,418.2z"/>
<path id="path230" class="st16" d="M1123.8,422.2l-0.2-0.2c0.1-0.1,0.2-0.2,0.4-0.3C1123.9,421.9,1123.9,422,1123.8,422.2
	L1123.8,422.2z"/>
<path id="path232" class="st11" d="M1108.8,426.6l-0.1,0.1h0.4c0-0.2,0-0.4,0-0.6L1108.8,426.6z M1108.7,422.5v0.6
	c0.2,0.2,0.3,0.5,0.4,0.7c0,0.1,0,0.1,0,0.2c0,0.2,0,0.3,0,0.5c0,0.4,0,0.9,0,1.5c0,0,0,0.1,0,0.1l0.3-0.4l0-0.1v0l2.4-3.2H1108.7z
	 M1108.6,422.5c0,1.2,0,2.1,0.1,2.8v-2.8H1108.6z M1108.7,425.3v1.2c0,0.2,0,0.3,0,0.3l0-0.3l0-0.1c0,0,0,0,0,0l0.1-0.6
	C1108.8,425.6,1108.7,425.4,1108.7,425.3z"/>
<path id="path234" class="st17" d="M1068.8,422.5c0.3,1.5,0.6,2.4,0.8,4.3h39.1c0,0,0-0.1,0-0.3v-4H1068.8z M1056.8,426.8
	c-0.4-3.2-1.2-4.1-1.4-4.3c0,0,0,0,0,0c0,0,0,0,0,0h-4.7l4.6,4.3h1.4l2.9,2.7l1.9-2.6l0.1-0.1H1056.8z"/>
<path id="path236" class="st16" d="M1057.1,422.5h-6.6c-0.3-0.7-0.5-1.4-0.5-2.1l0,0c0-1.4,0.6-2.8,1.7-3.8
	c-0.1,0.4-0.1,0.7-0.1,1.1c0,2.3,1.5,4.2,3.6,4.9L1057.1,422.5z"/>
<path id="path238" class="st18" d="M1121.6,422.5h-64.8c-2.8,0.6-5.1-1.7-3.9-4.5v0c-1.2-2.8,1.1-5.1,3.9-4.1h0h63.7
	c2.8-1,5.1,1.2,5.1,4.1c0,2.8-2.3,5.1-5.1,5.1L1121.6,422.5z"/>
<text transform="matrix(1 0 0 1 1078.1768 462.9282)" class="st2 st19 st20">search</text>
<path id="path246" class="st21" d="M1149.9,514.6l-3.9,47.1c-0.2,2.8-2.7,4.9-5.5,4.7l0,0c-2.8-0.2-4.9-2.7-4.7-5.5l3.9-47.1
	c0.2-2.8,2.7-4.9,5.5-4.7C1148,509.4,1150.1,511.8,1149.9,514.6L1149.9,514.6z"/>
<text transform="matrix(8.152107e-02 -0.9967 0.9967 8.152107e-02 1099.9036 547.5086)" class="st22 st19 st20">sear</text>
<text transform="matrix(8.152107e-02 -0.9967 0.9967 8.152107e-02 1104.1847 547.8529)" class="st22 st19 st20">ch</text>
<path id="path274" class="st17" d="M834.3,627.5l-0.5-4.1v-58.9l30.1-3.9v33.7l0,0v4.3h29.3l2.7,20.6l-62.1,8.2L834.3,627.5z"/>
<path id="path276" class="st23" d="M833.8,621.4l-3.3-25.1c1.1-1.1,2-2.1,1-2.1h0c-0.4,0-0.8,0.2-1.2,0.3l-4.1-31.2l7.6-1V620
	L833.8,621.4z"/>
<path id="path278" class="st24" d="M893.9,598.6h-30.1v-4.3h29l0.4,4.5L893.9,598.6z"/>
<path id="path280" class="st16" d="M892.2,590.4L892.2,590.4l0-0.5h-24v-30l-4.3,0.7v33.6h28.8L892.2,590.4z M892.6,594.3l0.2,1.8
	l0.1-0.2l1-1.6H892.6z M891.4,585.7l-0.1-0.4l-2-15.4l-3.2,3.2l-3.3,3.3l-2.9,2.9l-6.5,6.5l-1.2,1.2l-3,3.1H892L891.4,585.7z
	 M888.1,561.1l-3.5-3.5l-0.5,0.1l-3.6,0.5h0l-12.4,1.6v28.6l2.6-2.6l0.1-0.1l8.7-8.7l3-3l3.3-3.3l3.1-3.1L888.1,561.1z"/>
<path id="path282" class="st25" d="M893.9,585.7h-30.1v-25.7l4.3-0.2v28.6l-0.9,1.1l0.9,0.9l1.1-0.4H892l0.2,0.6L893.9,585.7z"/>
<path id="path284" class="st16" d="M888,559.1l-1.6-1.6l1.4-0.2L888,559.1L888,559.1z"/>
<path id="path286" class="st25" d="M888.3,561.1l-3.5-3.5l1.6-0.2l1.6,1.6L888.3,561.1L888.3,561.1z"/>
<path id="path288" class="st25" d="M868.2,590.4l-0.9-0.9l1.1-1.1l20.8-20.8l0.2,1.6l-20.1,20.1L868.2,590.4L868.2,590.4z"/>
<path id="path290" class="st1" d="M883.7,553.7l8.2,62.1l-62.1,8.2l-8.2-62.1L883.7,553.7L883.7,553.7z"/>
<path id="path292" class="st26" d="M880.5,557.8l7.2,54.8l-54.8,7.2l-7.2-54.8L880.5,557.8L880.5,557.8z"/>
<path id="path294" class="st27" d="M879.9,578.4c0.8,5.9-3.4,11.4-9.3,12.1c-5.9,0.8-11.4-3.4-12.1-9.3c-0.8-5.9,3.4-11.4,9.3-12.1
	C873.7,568.3,879.1,572.5,879.9,578.4L879.9,578.4z"/>
<path id="path296" class="st28" d="M885.7,597.2l2.1,16.1l-48.7,6.4l28.1-36.6L885.7,597.2L885.7,597.2z"/>
<path id="path298" class="st29" d="M881.4,614.1l-48.5,6.4l-2.9-22l11.5-15l15.9,12.2L881.4,614.1L881.4,614.1z"/>
<path id="path300" class="st30" d="M806.6,562.7c2,3.1,2.8,6.9,2,10.5c-1.2,3.7-4,5.4-4.8,8.9c-0.8,3.5,2,15.8-4.5,16
	c-6.5,0.3-4.8-14.5-4.8-14.5l4.4-19.4L806.6,562.7L806.6,562.7z"/>
<path id="path302" class="st31" d="M794.3,629.5c0,0,14.6,26.9,16.6,32.4c2,5.5-9.8,39.1-9.3,43.7c0.5,4.6,10.6,5.7,10.2,8
	c-0.2,1.4-5,0.9-9.4,0.4c-2.3-0.3-4.6-0.5-6.9-0.4c-3.4,0.5-5.2-1.3-4.1-4.1c1.6-3.6,2.9-7.4,3.9-11.2c0.6-3.1,0.9-21.7,5.5-31.1
	l-13.3-22L794.3,629.5L794.3,629.5z"/>
<path id="path304" class="st32" d="M794.6,647.2l0.4,0.6c0.9,1.3,3.2,4.5,5.2,8c1,1.6,1.9,3.3,2.7,5.1c0.6,1.2,1,2.5,0.8,3.9v0.2
	c0.3,2.8-0.1,5.5-0.5,8.2c-0.9,5.8-2.2,13.4-3.5,19.9c-0.6,3.3-1.3,6.2-1.8,8.6c-0.3,1.6-0.7,3.2-1.2,4.7l1.2,0.5
	c0.3-0.9,0.6-1.8,0.8-2.8c1.1-4.4,2.8-12.9,4.2-21c0.7-4,1.4-7.9,1.8-11.1c0.4-2.3,0.6-4.7,3.4-7v-0.3c-2.9-1.8-3.4-3.5-4.3-5.1
	c-2.4-4.6-5.1-8.9-8.1-13.1L794.6,647.2L794.6,647.2L794.6,647.2z"/>
<path id="path306" class="st33" d="M799.4,654.3L799.4,654.3c-0.1-0.1-0.1-0.2-0.2-0.3c-0.3-0.5-0.6-1-0.9-1.5
	c-0.4-0.6-0.7-1.1-1.1-1.7c0,0,0,0,0,0c-0.1-0.2-0.2-0.3-0.3-0.5c0,0,0,0,0,0c0,0,0,0.1,0,0.1c0.4,4.4,0.8,8.3,1,11.1
	c0,0,0,0.1,0,0.1c0,0.1,0,0.2,0,0.3c0,0,0,0,0,0.1c0,0.1,0,0.2,0,0.3c0,0,0,0,0,0l1.3,2.2v0l0-1.6l0-1.3v-0.1l0-0.3v-0.1
	L799.4,654.3C799.4,654.4,799.4,654.4,799.4,654.3z M795,631.3c0-0.1-0.1-0.2-0.1-0.2c0.2,1.9,0.3,3.8,0.5,5.9
	c0.3,2.9,0.5,5.9,0.8,8.9c0,0.5,0.1,1.1,0.1,1.7l0,0.4c0,0,0.1,0.1,0.1,0.1c0,0.1,0.1,0.1,0.1,0.2c0.7,1,1.7,2.4,2.7,4v-2l0.1-4.3
	l0.1-6.1v-0.2C797.6,636,796,633.1,795,631.3z"/>
<path id="path308" class="st34" d="M799.4,654.4c-0.9-1.5-1.8-2.9-2.6-4c-0.1-0.9-0.2-1.7-0.2-2.6c0.7,1,1.8,2.5,2.9,4.3
	L799.4,654.4L799.4,654.4z"/>
<path id="path310" class="st35" d="M798.6,600.7l5.4,6.5c0,0,16.9-3,18.7-4.8c1.8-1.8,6.2-6.1,8.3-6.1c2.1,0-4,4.3-3.9,5.6
	c0.1,1.3,0.5,3.9,0.5,3.9L803,615l-8.6-8.9L798.6,600.7L798.6,600.7z"/>
<path id="path312" class="st0" d="M802.7,605.6l-2.1-2.5l0,0L802.7,605.6"/>
<path id="path314" class="st36" d="M800,611.9l-2.2-2.3c1.2-2.5,2.3-4.9,2.8-6.4l2.1,2.5L800,611.9L800,611.9z"/>
<path id="path316" class="st37" d="M804.3,568.9l1.3,8.2h-2c0,0-1.4,8.5-6.2,6.9l-0.6,3.4l-5.8-0.3l3.8-11.4L804.3,568.9
	L804.3,568.9z"/>
<path id="path318" class="st38" d="M796.9,584.8l-4.1-0.7c1.1-2.2,2-4.4,2.6-6.8c0.2-0.1,0.4-0.1,0.6-0.2c-0.5,2.5,1.1,4.8,3.6,5.3
	c0.1,0,0.1,0,0.2,0c-0.4,0.2-0.9,0.3-1.4,0.3c-0.4,0-0.8-0.1-1.2-0.2L796.9,584.8L796.9,584.8z"/>
<path class="st39" d="M800.8,601.6c-0.2-1.1-0.6-2.3-1-3.4v0c-0.7-1.9-1.5-3.7-1.8-5c-0.3-2.2-0.3-4.4,0-6.5l-1.2-0.2l-2.4-0.4
	l-1.9-0.3h-11.8c0,0-0.6,3.2-1.3,7c0,0.2-0.1,0.3-0.1,0.5c-0.2,1-0.4,2.1-0.6,3.2c0,0,0,0,0,0c-0.2,1.1-0.4,2.3-0.6,3.3c0,0,0,0,0,0
	c-0.3,1.5-0.5,2.7-0.7,3.5c-0.8,3.7,0.7,8.2,0.2,13c0,0.3-0.1,0.6-0.1,0.9c0,0.3-0.1,0.5-0.2,0.8c-0.8,3.5-2.8,6.6-3.2,10.7
	c-0.1,0.6-0.1,1.3-0.1,1.9c0,1.7,0.2,3.3,0.5,4.7c1,4.5,3,7.6,4.4,10.5c0.3,0.7,0.6,1.3,0.8,1.9c1.3,3.4,4.8,12.6,6.4,16.7
	c0,0.1,0,0.1,0.1,0.2c0,0.1,0,0.1,0.1,0.2c0,0,0,0.1,0,0.1c0.1,0.3,0.2,0.6,0.3,0.8c0.2,0.5,0.3,0.8,0.3,0.8
	c-1.7,2.9-3.4,7.7-5,12.9c-0.1,0.2-0.1,0.4-0.2,0.7c-0.1,0.3-0.2,0.5-0.2,0.8c-0.7,2.4-1.4,4.8-2,7.1c-1.5,5.7-2.8,10.8-3.7,13.2
	c-0.5,1.3-1,2.6-1.6,4c0.9,0.7,1.8,1.3,2.7,2c-0.1,0.4-0.3,0.7-0.4,1c0,0.1-0.1,0.2-0.1,0.2c0.5,0.2,1,0.4,1.5,0.6
	c0.5,0.2,0.9,0.6,1.3,1h1.8c0,0,0,0,0,0c0.6-2.6,5.3-12.5,9.6-22.3c1-2.2,2-4.5,2.8-6.6c0.2-0.4,0.3-0.7,0.5-1.1
	c0.4-0.9,0.7-1.8,1.1-2.7c0.4-1,0.7-1.9,1.1-2.8c1.3-3.7,2.2-6.5,2.1-7.9c0-0.1,0-0.1,0-0.2c-0.1-1-0.2-2.5-0.4-4.5v0c0,0,0,0,0,0
	c0-0.1,0-0.2,0-0.3c0,0,0-0.1,0-0.1c-0.3-3.1-0.7-7.1-1-11.5v0c-0.1-0.7-0.1-1.5-0.2-2.2c0-0.1,0-0.3,0-0.4c0-0.6-0.1-1.2-0.2-1.8
	c-0.3-3-0.5-6-0.8-8.8c-0.2-2-0.3-3.9-0.5-5.7c0-0.2,0-0.3,0-0.5v0c-0.1-0.8-0.1-1.5-0.2-2.1c-0.1-0.9-0.1-1.7-0.2-2.5
	c-0.2-2.9-0.3-4.9-0.3-5.7c0-0.1,0-0.2,0-0.3v0c0,0,0-0.1,0-0.1v0c0.1-0.8,0.4-1.9,0.9-3.1c0.4-1.1,1-2.4,1.6-3.7
	c0.5-1,1-2.1,1.4-3.1c0,0,0,0,0,0c0.2-0.4,0.4-0.8,0.6-1.2c0.9-2,1.7-3.8,1.9-4.8c0-0.2,0.1-0.4,0.1-0.6v0
	C800.9,602.9,800.9,602.2,800.8,601.6z"/>
<path class="st31" d="M784.7,633.5c-0.1-1-0.2-1.9-0.2-2.9c0-0.7,0-1.4,0.1-2c0.1-1.1,0.2-2.1,0.3-3.2c0.1-0.9,0.3-1.9,0.4-2.8l0,0
	l1.2,0.2c-0.2,0.9-0.3,1.9-0.4,2.8c-0.1,1-0.2,2-0.3,3c-0.1,0.7-0.1,1.4-0.1,2c0,1,0.1,1.9,0.2,2.9c0.1,1.2,0.3,2.3,0.6,3.5
	c0.4,1.5,1,3.8,1.8,6.5c0.2,0.8,0.4,1.5,0.7,2.3c0.3,1.1,0.6,2.2,0.9,3.3c1,3.6,2,7.3,2.7,10.4c0.3,1.1,0.5,2.3,0.2,3.4
	c0,0,0,0.1,0,0.2c0,0.1-0.1,0.2-0.1,0.3c0,0,0,0.1,0,0.1c-0.3,0.6-0.8,1.3-1.6,2c0.4-0.6,0.6-1.2,0.7-1.7c0,0,0-0.1,0-0.1
	c0-0.1,0-0.2,0-0.3c0-0.1,0-0.1,0-0.2c0.1-1.1-0.1-2.3-0.4-3.4c-0.6-2.4-1.3-5.2-2.1-8c-0.5-2-1.1-4-1.6-5.9c-1-3.5-1.9-6.5-2.3-8.5
	C785,636.1,784.8,634.8,784.7,633.5z"/>
<path class="st31" d="M790.8,665.6C790.9,665.6,790.9,665.6,790.8,665.6C790.9,665.6,790.9,665.6,790.8,665.6L790.8,665.6z"/>
<path class="st31" d="M790.8,665.4C790.9,665.4,790.9,665.4,790.8,665.4C790.9,665.4,790.9,665.4,790.8,665.4L790.8,665.4z"/>
<path class="st31" d="M790.9,665.6c1.4,1.1,1.2,2.2,0.8,3.3c-0.8,2.8-2.3,6.8-4,11.2c-0.1,0.3-0.2,0.6-0.4,0.9
	c-0.9,2.2-1.8,4.6-2.7,6.9c-0.6,1.5-1.2,3-1.8,4.5c-1.8,4.3-3.4,8.4-4.7,11.7c-0.5,1.1-0.8,2.2-1.2,3.1c-0.1,0.4-0.3,0.7-0.4,1
	c0,0.1-0.1,0.2-0.1,0.2c0.4,0.1,0.8,0.3,1.2,0.5c0.1-0.3,0.2-0.5,0.3-0.8c0-0.1,0-0.1,0.1-0.2c1.5-4.3,4.9-12.2,8-20
	c0.3-0.8,0.7-1.7,1-2.5c0.6-1.5,1.2-2.9,1.7-4.3c0.1-0.3,0.3-0.7,0.4-1c0.9-2.5,1.8-4.8,2.5-6.8c0.6-1.8,1.1-3.3,1.4-4.6
	C793.3,667.7,793.5,666.7,790.9,665.6z"/>
<path id="path324" class="st40" d="M798,586.6l-5.5-0.9h-11.8c0,0-2.5,13.8-3.3,17.5c-0.8,3.7,0.7,8.2,0.2,13
	c-0.4,2.3-1,4.5-1.9,6.6c6,2.4,12.5,3.5,19,3.3c-0.2-2.9-0.3-4.9-0.3-5.7c0.1-3.5,5.7-13.2,6.4-16.4c0.7-3.1-2.2-8.2-2.8-11
	C797.7,590.9,797.7,588.7,798,586.6L798,586.6z"/>
<path id="path326" class="st0" d="M794.3,619.3c0,0.2,0,0.4,0,0.7v0c0,0,0,0.1,0,0.1v0c0,0,0,0,0,0c0,0.1,0,0.1,0,0.2
	c0,0,0,0.1,0,0.2c0,0.3,0,0.5,0,0.8 M794.5,622c0-0.2,0-0.4,0-0.5c0-0.3,0-0.6,0-0.8c0-0.1,0-0.1,0-0.2c0-0.1,0-0.2,0-0.2
	c0,0,0,0,0,0v0c0,0,0-0.1,0-0.1v0c0-0.3,0-0.5,0-0.7c0-0.2,0-0.4,0-0.5"/>
<path id="path328" class="st41" d="M795.3,622l-12-24.3l13.6,15.6c-0.8,1.7-1.4,3.5-1.7,5.4l0,0l0,0l0,0l0,0v0l0,0l0,0l0,0l0,0l0,0
	l0,0l0,0l0,0c0,0.5,0,1.6,0.1,3.2L795.3,622z"/>
<path id="path330" class="st37" d="M782.7,598.3c0,0,10.4,15.6,13,19.3c2.6,3.6,7.8,4.5,13.6,6.3s17.6,3.7,23.9,1.4
	c6.3-2.2,7.6-4.8,7.6-4.8l-7.9,1.1c-0.7,0-0.9-1.1,0.1-2c0.9-0.9,1.6-2.4,0.9-2.6c-0.7-0.2-3.3,1.9-4.4,2.4
	c-1.6,0.9-3.5,1.4-5.3,1.3c-7.4-1.9-14.7-4.3-21.9-7.2c-3-1.8-10.2-17.9-11.3-20.5c-1.1-2.6-2.4-4.2-5-4
	C783.5,589,780.2,592.9,782.7,598.3L782.7,598.3z"/>
<path id="path332" class="st42" d="M806.8,563.1c0,0-2.8,11.7-11.4,14.2c0,0-4.3,17.3-15,14.9c-1.4,2.9-2.5,6.1-3,9.3
	c-4-0.1-7.2-3.4-7.1-7.4c0,0,0,0,0-0.1c-0.9-7.7,11.2-19.2,12.6-22.3c1.4-3.2,1.3-8.7,5.2-12.5c3.5-3.1,8.5-3.9,12.8-2
	C803.3,558.6,805.4,560.6,806.8,563.1L806.8,563.1z"/>
<path id="path334" class="st43" d="M795.6,713.6c3.4-0.5,16,2.4,16.3,0c0.3-2.4-9.5-3.4-10.2-7.9l-8.5-0.5c-0.6,1.6-1.2,3.1-1.7,4.3
	C790.4,712.3,792.1,714.1,795.6,713.6L795.6,713.6z"/>
<path class="st43" d="M793,717.7c0,0.1,0,0.1,0,0.2c0,0.1-0.1,0.1-0.1,0.2c-1.4-2.1-12.1-4.3-11.8-7.5c0-0.1,0-0.2,0.1-0.3
	c0.4,1.6,3.5,3,6.4,4.3C790.3,715.6,793,716.7,793,717.7z"/>
<path id="path338" class="st44" d="M777.4,602.9c-2.6-3.6-3-8.3-1-12.2c0.9,1.5,2.3,2.6,4.1,2.9c-1,2.1-1.8,4.2-2.4,6.4
	C777.7,600.9,777.5,601.9,777.4,602.9L777.4,602.9L777.4,602.9z"/>
<path id="path340" class="st22" d="M1118,564.1l1.7,11.6l2.4,5.2c-6.2,0.7-12.5,0.7-18.7,0l9.9-5.5l-1.7-10.5L1118,564.1L1118,564.1
	z"/>
<path id="path342" class="st45" d="M1103.5,580.9c6.2,0.7,12.5,0.7,18.7,0l-2.4-5.2l-6.3-0.3L1103.5,580.9L1103.5,580.9z"/>
<path id="path344" class="st22" d="M1138.9,564.1l1.7,11.6l2.4,5.2c-6.2,0.7-12.5,0.7-18.7,0l9.9-5.5l-1.7-10.5L1138.9,564.1
	L1138.9,564.1z"/>
<path id="path346" class="st45" d="M1124.4,580.9c6.2,0.7,12.5,0.7,18.7,0l-2.4-5.2l-6.3-0.3L1124.4,580.9L1124.4,580.9z"/>
<path id="path348" class="st46" d="M1127.8,493.3l-27.8-1c0.2,12.9,0.7,26.6,1.4,33.2c1.7,14.4,8.6,43.1,8.6,43.1h10.1l-5-51
	l17.1,51h9.4c0.1-6.6-13.4-67-13.7-71.5C1127.8,495.8,1127.8,494.5,1127.8,493.3L1127.8,493.3z"/>
<path id="path350" class="st47" d="M1120,495.5L1120,495.5c0.1,2.4,0.5,4.7,1.3,6.9c0.6,1.8,1.6,3.5,3,4.8c1.6,1.5,3.6,2.4,5.8,2.6
	l0.1-0.6c-2-0.1-3.9-1-5.4-2.4c-2.6-3.2-4-7.2-4-11.3l0,0h0.9L1120,495.5z"/>
<path id="path352" class="st47" d="M1112.3,501.6l2.4,16.9l0.6-0.1l-2.4-16.9L1112.3,501.6z"/>
<path id="path354" class="st47" d="M1108.9,501.6l1.1,7.1c0.3,2.1,1.9,3.9,3.9,4.5l0.2,0.1l0.2-0.6l-0.2-0.1c-1.8-0.6-3.2-2.1-3.5-4
	l-1.1-7.1L1108.9,501.6L1108.9,501.6z"/>
<path id="path356" class="st22" d="M1133.5,454.7c-4.7-5.9-11.6-9.7-19.1-10.5c-4.2-0.5-8.5-0.5-12.7-0.1
	c-6.4,0.7-12.9,0.4-19.2-0.9c-8.4-2.9-12.7-16.5-12.7-16.5c-0.1-3.6-3.3-10.1-4.4-9.6c-1.2,0.5,0,5.3,0,5.3h-8.7l6.5,6
	c9.8,33.1,36.6,30.3,36.6,30.3s0,23.4,0.5,41c11,8.2,23.7-0.6,27.7-3.9c0-8.6,0.9-17.2,2.4-25.7c7.9,7.3,12.9,31.5,12.9,31.5
	l-0.2,7.2c1.3-0.5,2.8-0.4,4,0.2c1,0.4-0.5,3.5,0,3.9c0.5,0.4,1.7-1.2,1.9-3.5c0.4-10.8-0.4-21.6-2.3-32.3
	C1143.9,468.8,1139.4,461.2,1133.5,454.7L1133.5,454.7z"/>
<path id="path358" class="st37" d="M1065.3,417.1c-1.2,0.5,0,5.3,0,5.3h-8.7l6.5,6l6.7-1.7C1069.7,423.2,1066.5,416.7,1065.3,417.1
	L1065.3,417.1z"/>
<path id="path360" class="st37" d="M1112.4,422.3l-5.8,6.6l2.2,1.1c0,0-1.2,2.6-2.1,5.2s4.5,2.6,4.7,3.9c0.2,1.3-0.6,4.4-0.6,6.8
	c1.3,1.4,7.5,0.4,7.5,0.4l2.3-8.9c0,0,6.3-5.8,7-9.9s-7.2-7-9-8.2s-1.6-5.1-3.3-5.4C1113.6,413.6,1111.8,418.3,1112.4,422.3
	L1112.4,422.3z"/>
<path id="path362" class="st0" d="M1118.4,445.8L1118.4,445.8l2.2-8.3l0,0L1118.4,445.8"/>
<path id="path364" class="st11" d="M1110.8,444.5L1110.8,444.5c0.2-1.8,0.5-3.6,0.5-4.8C1111.4,440.9,1111,442.7,1110.8,444.5
	L1110.8,444.5z"/>
<path id="path366" class="st0" d="M1110.7,445.9L1110.7,445.9c0-0.4,0-0.9,0.1-1.4l0,0C1110.8,445,1110.7,445.4,1110.7,445.9"/>
<path id="path368" class="st0" d="M1120.9,437.2L1120.9,437.2"/>
<path id="path370" class="st38" d="M1115.8,448.5c-1.2,0.1-2.4-0.1-3.4-0.8c0-0.4,0-0.9,0.1-1.4c0.2-1.8,0.5-3.6,0.5-4.8v-0.1
	c0-0.2,0-0.4,0-0.5l0,0l0,0l0,0l0,0l0,0l0,0l0,0c-0.2-0.9-2.5-1.2-3.9-2c1.3,0.4,2.6,0.5,4,0.5c2.5,0,5.1-0.4,7.5-1l2,0.5l-0.1,0.1
	l-0.2,0.2l0,0l-2.2,8.3l-0.1,0.5h0C1118.5,448.4,1117.1,448.5,1115.8,448.5L1115.8,448.5z"/>
<path id="path372" class="st48" d="M1127.6,427.5c0.6-4.1-7.2-7-9-8.2s-1.6-5.1-3.3-5.4s-4.9,3.2-2.9,8.4c2.9,1.9,6.1,3.4,9.4,4.4
	l-2.2,6c0,0,2.8-0.9,2.7,0.7c-0.1,1.5-2.7,3.9-3.7,3.2c0,0-1.5,1.8,1.5,3.4l0.7-2.5C1120.6,437.4,1127,431.6,1127.6,427.5
	L1127.6,427.5z"/>
<path id="path374" class="st47" d="M1130.2,564.2h8.6v4.3h-8.6V564.2z"/>
<path id="path376" class="st47" d="M1108.7,564.2h8.6v4.3h-8.6V564.2z"/>
<path id="path378" class="st48" d="M1109.2,444.4c-0.1,0.3-0.2,0.6-0.2,1c0,1.1,0.7,2.1,1.7,2.5c1.2,0.6,2.6,0.9,3.9,0.9
	c2.5,0,4.9-0.7,7.1-1.8l-0.3-0.6c-2.1,1.1-4.4,1.7-6.8,1.8c-1.3,0-2.5-0.2-3.6-0.8c-0.8-0.3-1.3-1.1-1.3-2c0-0.3,0-0.5,0.1-0.8
	L1109.2,444.4L1109.2,444.4z"/>
<path id="path380" class="st48" d="M1143,499.8h4.3v4.3h-4.3V499.8z"/>
<path id="path382" class="st48" d="M1070.1,428.3l-6.6,2.2l0.2,0.6l6.6-2.2L1070.1,428.3z"/>
<path id="path384" class="st0" d="M1128.6,482.2c0.7-6.1,1.6-11.1,1.7-11.4c0,0,0-0.1-0.1-0.1"/>
<path id="path386" class="st49" d="M1128.6,482.2c-9-0.5-3.4-20.8-3.4-20.8c0.8,3.6,2.5,6.8,5.1,9.4l0,0
	C1130.2,470.9,1129.3,476,1128.6,482.2L1128.6,482.2z"/>
<path id="path388" class="st50" d="M1119.9,567.1l0-0.1v-0.1l-0.1-1.2l-0.1-1.5h-5.7l0,0.5l-0.1,3.8h6.1L1119.9,567.1z M1120,568.5
	l0,0.7l1.5-0.7H1120z M1117.7,543.9L1117.7,543.9l-2.3-23.6l0,0.2v0l-1,32.5l-0.3,11.3h5.6L1117.7,543.9z"/>
<path id="path390" class="st51" d="M1121.6,564.2h-8.6v4.3h6.6l0.1-2.7L1121.6,564.2z"/>
<path id="path392" class="st37" d="M1147,513.6c0.5,0.4,1.7-1.2,1.9-3.5c0.1-1.3,0.2-4.2,0.1-7.8l-5.9-0.1l0,0l0,0.1l-0.2,7.2
	c1.3-0.5,2.8-0.4,4,0.2C1148,510,1146.6,513.2,1147,513.6L1147,513.6z"/>
<path class="st52" d="M1123.4,658.7l-0.4,4.8v0l-0.4,4.9c0.3-0.3,0.5-0.6,0.8-0.9c0.8-0.9,1.6-1.8,2.3-2.7l0.5-6.1v-0.1l0.4-4.2
	l1.1-13.1v0l0.1-1.3l0.2-2.8l0.4-4.3l1.9-21.5l0.4-4.3l0.9-10.9l0.5-6.3l0.4-4.3l0.4-4.3v0h-2.7l-0.5,1.1l-0.3,3.2h0.1l-0.4,4.3
	l-0.5,6.4l-0.9,10.8h-27.7l0.1-1.2v0l0-0.5l0.1-0.6l1.4-16l0.1-0.8V588l0.1-1.5v-0.1l0.1-0.7h0.4l0.3-4.3h-3.1l-0.4,4.3l-0.1,1.4
	v0.1l-0.1,1.4l0,0.2l0,0.1l-2.6,30.4l-0.1,1.4l-1.6,18.8l-0.1,1.3l-0.5,5.2l-3,34.4l-1.7,19.4l0,0.5l-0.1,1.6h1.8l0.2-2.1l0.1-1.1
	l1.6-18.3h1.1l1.6-18.7l0.1-1.3l0.1-1.5H1123.4z M1095.9,654.4l0.7-8.6l0.3-3.9v0l0.1-1.3l0.7-7.7h0.2l1-11l0.1-1.3l0.8-9.1h27.7
	l-1.8,21.5h-0.2l-0.4,4.3l-0.6,7v0l-0.2,2.8l-0.6,7.3H1095.9z"/>
<path id="path396" class="st13" d="M1095.8,581.4h55.8v4.3h-55.8V581.4z"/>
<path id="path398" class="st53" d="M1121.6,581.4h-25.8v4.3h25.8V581.4L1121.6,581.4z"/>
<path id="path400" class="st13" d="M1143,585.7h-27.4l-0.2,4.3h28.6l0.2-2.2L1143,585.7z"/>
<path id="path402" class="st54" d="M1121.6,585.7h-5.9l-0.2,4.3h6.2l0.2-2.2L1121.6,585.7z"/>
<path id="path404" class="st13" d="M1147.3,611.4h-29.7l-0.2-4.3h28.6l0.2,4.1L1147.3,611.4z"/>
<path id="path406" class="st54" d="M1125.9,611.4h-8.2l-0.2-4.3h6.2l0.2,4.1L1125.9,611.4z"/>
<path class="st13" d="M1148.2,635.4l0.1-0.7l-0.2-0.4l-0.5-1l-0.2-0.4h-27.6l-0.2,4.3h27.3C1147.1,636.5,1147.6,635.9,1148.2,635.4z
	"/>
<path id="path410" class="st54" d="M1125.9,632.9h-6.2l-0.2,4.3h6.2l0.2-2.5L1125.9,632.9z"/>
<path class="st13" d="M1134.1,654.4c-1.1,1.4-2.2,2.9-3.4,4.3h-9l-0.2-3.4l0-0.9H1134.1z"/>
<path id="path414" class="st54" d="M1125.9,658.7h-4.2l-0.1-2.8v-1.5h6.2l0.2,3.7L1125.9,658.7z"/>
<path class="st13" d="M1123.3,667.5c-0.3,0.3-0.5,0.6-0.8,0.9c-0.7,0.8-1.4,1.6-2.1,2.4l-1-12.1l-0.3-3.3v0l-0.1-1l-0.1-1.1v0
	l-0.6-7.5l-1.4-16l-0.2-2.5v0l-1.4-15.9l-0.4-4.3l-1.3-14.5l-0.6-6.9l0-0.4v-0.1l-0.1-1.5v-0.1l-0.2-2.2v0h3.2l0.1,1.4l0,0l0.1,1.6
	l0,0.1l0.1,1.2l0.4,4.3l0.3,3.8l1.2,13.4l0.4,4.3l0.9,10.3l0.2,2.5v0l0.8,8.7l0.4,4.3l0.7,8.6l0.3,2.9v0l0.2,2.1l0.3,3.5l0.4,4.3
	l0.4,4.8v0L1123.3,667.5z"/>
<polygon class="st13" points="1124.4,680.2 1124.4,680.2 1124.4,679.8 "/>
<path class="st13" d="M1143.5,586.5l0.3,3.3l0,0.2l1.5,17.2l0.4,4.3l1.9,21.9l0.1,1.6l0.1,0.9c0.1-0.2,0.3-0.3,0.5-0.4l0.1-0.7
	l-0.2-0.4c0.8-1.3,1.6-2.6,2.4-3.9v0l-0.4-5l-0.2-1.8l-3.3-37.8l0-0.1l-0.4-4.3h-3.2l0.4,4.3L1143.5,586.5z"/>
<path id="path424" class="st11" d="M1108.5,427.2c-0.1-0.2-0.1-0.3-0.1-0.5h0.3c0,0.1,0,0.2,0,0.3L1108.5,427.2L1108.5,427.2z"/>
<path id="path426" class="st55" d="M1108.7,426.8L1108.7,426.8c-0.1-1.9-0.2-2.8-0.1-4.3h0.1v0.6c0.6,0.8,0.4,1.8,0.4,2.7
	L1108.7,426.8z"/>
<path id="path428" class="st56" d="M1108.7,422.5h-0.1c0.1-1.5,0.3-3,0.7-4.5c-0.1,1.5,0.1,3,0.5,4.5H1108.7z"/>
<path id="path430" class="st38" d="M1108.7,426.5c0-0.1-0.1-0.2-0.1-0.3l0.1-0.1c0,0.3,0,0.7,0,0.7L1108.7,426.5z"/>
<path class="st57" d="M710.4,637.2c0.9,1.4,1.9,2.9,2.8,4.3c2.2,3.3,4.5,6.5,6.8,9.7c0.4,0.6,0.9,1.2,1.3,1.8c0.4,0.5,0.7,1,1.1,1.4
	c0.4,0.6,0.9,1.2,1.4,1.8c1.1,1.4,2.1,2.7,3.2,4.1c0.8,1,1.7,2.1,2.5,3.1c2,2.4,4.1,4.8,6.2,7.1c-0.2,0.4-0.5,0.8-0.6,1.2h1.7
	c0.3,0.4,0.7,0.8,1,1.1l0,0.2l0.1,0.9c-0.2,0-0.4,0.1-0.6,0.1c0.7,0.5,1.2,1.2,1.5,2h4.7v-38.7H710.4z"/>
<path id="path440" class="st58" d="M727.3,652.8l-0.6-3.5l-2,0.3c1.7-3.4,4.4-6.3,7.8-8.1h6.7v9.3L727.3,652.8L727.3,652.8z"/>
<path class="st29" d="M743.6,637.2v38.7h-4.3v-34.4h-26.1c-1-1.4-1.9-2.9-2.8-4.3H743.6z"/>
<path class="st1" d="M753.9,680.6l-0.1-0.4l-0.7-4.3l-0.4-2.5l0-0.3l0-0.1l-0.1-0.4l-0.2-1l-3.6-21.6l-5.1,0.9l-4.3,0.7l-11.4,1.9
	l-2,0.3l-3.5,0.6c0.4,0.6,0.9,1.2,1.4,1.8c1.1,1.4,2.1,2.7,3.2,4.1c0.8,1,1.7,2.1,2.5,3.1c2,2.4,4.1,4.8,6.2,7.1
	c-0.2,0.4-0.5,0.8-0.6,1.2h1.7c0.3,0.4,0.7,0.8,1,1.1l0,0.2l0.1,0.9c-0.2,0-0.4,0.1-0.6,0.1c0.7,0.5,1.2,1.2,1.5,2
	c0.3,0.2,0.5,0.4,0.7,0.7l1.6-0.4c0.8,0.8,1.6,1.6,2.4,2.5c-0.2,0.3-0.4,0.6-0.5,0.9c0.4,0.3,0.7,0.6,0.9,1c0.5,0,1,0,1.5,0
	c0.1,0.1,0.2,0.2,0.3,0.3c0.6,0.6,1.1,1.1,1.7,1.7c1.3,1.2,2.5,2.5,3.8,3.7c0,0,0,0,0,0c0.6,0.6,1.2,1.1,1.8,1.7l1.9-0.3
	L753.9,680.6z"/>
<path class="st59" d="M751.8,680.6l-0.1-0.4l-0.7-4.3l-0.3-2.1h0l0-0.3v0l0,0l-0.1-0.4v0l-0.3-1.5l-3.3-19.4h0l-3,0.5l-0.5,0.1
	l-4.3,0.7l-11,1.9l-2,0.3l-2.5,0.4c1.1,1.4,2.1,2.7,3.2,4.1c0.8,1,1.7,2.1,2.5,3.1c2,2.4,4.1,4.8,6.2,7.1c-0.2,0.4-0.5,0.8-0.6,1.2
	h1.7c0.3,0.4,0.7,0.8,1,1.1l0,0.2l0.1,0.9c-0.2,0-0.4,0.1-0.6,0.1c0.7,0.5,1.2,1.2,1.5,2c0.3,0.2,0.5,0.4,0.7,0.7l1.6-0.4
	c0.8,0.8,1.6,1.6,2.4,2.5c-0.2,0.3-0.4,0.6-0.5,0.9c0.4,0.3,0.7,0.6,0.9,1c0.5,0,1,0,1.5,0c0.1,0.1,0.2,0.2,0.3,0.3
	c0.6,0.6,1.1,1.1,1.7,1.7c1.3,1.2,2.5,2.5,3.8,3.7c0,0,0,0,0,0l0.5-0.1l0.6-0.1l0.3-0.1h0L751.8,680.6z"/>
<path class="st60" d="M751.8,680.6l-0.1-0.4h0l-0.5-2.7l-0.3-1.6l-0.3-2.1l0-0.3v0l0,0l-0.1-0.4v0l-0.3-1.5l-0.4-2.2
	c-0.1,0-0.2,0-0.3,0.1c-1.1,0.3-2.1,0.5-3.2,0.8c-0.4,0.1-0.9,0.2-1.3,0.4c-0.5,0.2-1,0.3-1.6,0.5c-0.5,0.1-1,0.3-1.4,0.4
	c0,0,0,0,0,0c-0.9,0.3-1.9,0.6-2.8,0.9c-0.1,0-0.2,0.1-0.3,0.1v0c-0.3,0.1-0.6,0.2-1,0.3c0,0-0.1,0-0.1,0l0.1,0.9
	c-0.2,0-0.4,0.1-0.6,0.1c0.7,0.5,1.2,1.2,1.5,2c0.3,0.2,0.5,0.4,0.7,0.7l1.6-0.4c0.8,0.8,1.6,1.6,2.4,2.5c-0.2,0.3-0.4,0.6-0.5,0.9
	c0.4,0.3,0.7,0.6,0.9,1c0.5,0,1,0,1.5,0c0.1,0.1,0.2,0.2,0.3,0.3c0.6,0.6,1.1,1.1,1.7,1.7c1.3,1.2,2.5,2.5,3.8,3.7l0.5-0.1l0.6-0.1
	l0.3,0L751.8,680.6z"/>
<path class="st12" d="M751.5,680.6l-0.1-0.4l-0.7-4.3l-0.3-2l-0.1-0.3l0-0.1l-0.1-0.4l-0.3-1.6l-0.4-2.1l-1.7-10.1l0,0l-4.3-4.3
	l-0.7-0.7l-1.3-1.3l-2.3,0.4l-2.9,0.5c-0.8,1.6-1.3,3-0.7,2.8c1.4-0.5,0.7,3-1.1,6.3c-1.9,3.3,1.4,1.1,3.6,0.9
	c1.8-0.2-0.6,3.4-2.3,6.4c-0.2,0.4-0.5,0.8-0.6,1.2h1.7c0.3,0.4,0.7,0.8,1,1.1l0,0.2l0.1,0.9c0.1,0,0.2,0,0.3,0c0.2,0,0.3,0,0.3,0.1
	c0.2,0.2,0.1,0.7,0,1.3c0,0,0,0,0,0c0,0,0,0,0,0c0,0,0,0,0,0c0.1,0.2,0.2,0.4,0.3,0.6c0.3,0.2,0.5,0.4,0.7,0.7l1.6-0.4
	c0.8,0.8,1.6,1.6,2.4,2.5c-0.2,0.3-0.4,0.6-0.5,0.9c0.4,0.3,0.7,0.6,0.9,1c0.5,0,1,0,1.5,0c0.1,0.1,0.2,0.2,0.3,0.3
	c0.6,0.6,1.1,1.1,1.7,1.7c1.3,1.2,2.5,2.5,3.8,3.7c0,0,0,0,0,0l0.5-0.1l0.6-0.1v0L751.5,680.6z"/>
<path class="st13" d="M751.8,680.6l-0.1-0.4l-0.5-2.7l-0.3-1.6l-0.3-2.1l0-0.3v0l0,0l-0.1-0.4v0l-0.3-1.5l-0.4-2.2l-2.9-17.2l-3,0.5
	c-0.1,0.2-0.3,0.4-0.5,0.7c-0.2,0.3-0.4,0.7-0.7,1c0,0,0,0,0,0c-1.5,2.4-2.9,4.8-2.1,5.3c0.6,0.3,1.4,0.4,2,0.3
	c0.3,0,0.5-0.1,0.8-0.1c0.9,0,1.5,0.3,1.3,1.9c-0.1,1-0.7,2.1-1.3,3.2c-1.6,2.6-4,5.2-2.2,6.3c0.3,0.1,0.5,0.2,0.8,0.3
	c0,0,0.1,0,0.1,0c0.3,0,0.6,0,1,0c0.1,0,0.3-0.1,0.4-0.1c0.4-0.1,0.7-0.3,1-0.5c0.2-0.1,0.4-0.2,0.5-0.3c0.5-0.3,1-0.5,1.3-0.4
	c0.3,0.1,0.4,0.4,0.5,1c0,0.1,0,0.2,0,0.2c0,0.7-0.3,1.6-0.8,2.6h0c-0.1,0.2-0.1,0.3-0.2,0.5c0,0,0,0,0,0c-0.1,0.1-0.1,0.3-0.2,0.4
	c-0.1,0.3-0.3,0.5-0.4,0.8c-0.6,1-1.2,1.9-1.7,2.8c-0.2,0.3-0.4,0.6-0.5,0.9c0.4,0.3,0.7,0.6,0.9,1c0.5,0,1,0,1.5,0
	c0.1,0.1,0.2,0.2,0.3,0.3c0.4-0.2,0.7-0.3,1.1-0.3c0,0,0,0,0,0c0.4-0.1,0.7-0.1,0.9,0c0.2,0.1,0.3,0.2,0.4,0.4
	c0.1,0.4-0.1,1-0.6,1.6c1.3,1.2,2.5,2.5,3.8,3.7c0,0,0,0,0,0l0.5-0.1l0.6-0.1l0.3-0.1v0L751.8,680.6z"/>
<path class="st1" d="M729.6,663.3c-0.9-1-1.7-2-2.5-3.1c-1.1-1.3-2.2-2.7-3.2-4.1c-0.5-0.6-0.9-1.2-1.4-1.8c-0.4-0.5-0.7-1-1.1-1.4
	c-0.4-0.6-0.9-1.2-1.3-1.8l6.8-1.2l0.5-0.1l0.5,2.8l0.1,0.7l0.3,1.9L729.6,663.3z"/>
<path class="st12" d="M727.1,660.2c-1.1-1.3-2.2-2.7-3.2-4.1c-0.5-0.6-0.9-1.2-1.4-1.8c-0.4-0.5-0.7-1-1.1-1.4l4.3-0.7h0l0.3,1.6
	l0.3,1.9L727.1,660.2z"/>
<path id="path492" class="st61" d="M753.3,675.5L753.3,675.5l-0.7-3.9h0.1L753.3,675.5L753.3,675.5z"/>
<path id="path494" class="st11" d="M752.2,675.9h-1l-0.7-4.3h2.2l0.7,4.3H752.2z"/>
<path class="st0" d="M737.9,672.9l0.1,0.9c-0.2,0-0.4,0.1-0.6,0.1c0.4,0.3,0.7,0.6,1,1l0.3-1l0.1-0.3l0.3-1.1v0l0.3-1h-2.4
	c0.3,0.4,0.7,0.8,1,1.1L737.9,672.9z"/>
<polyline class="st0" points="750.3,671.6 750.6,673.1 750.6,673.1 750.6,673.5 750.7,673.5 750.7,673.5 750.7,673.8 751,675.9 
	751.3,677.5 "/>
<path class="st23" d="M737.9,672.7c-0.4-0.4-0.7-0.8-1-1.1h0.9L737.9,672.7z"/>
<path class="st23" d="M746.5,671.6c-0.4,1-0.9,1.9-1.5,2.9c-0.1,0.2-0.2,0.3-0.3,0.5c0,0,0,0,0,0c-0.1,0.1-0.2,0.3-0.3,0.4
	c0,0-0.1,0.1-0.1,0.1l0-0.1l0,0l0-0.3l0,0l-0.1-0.4l-0.6-3.1H746.5z"/>
<path id="path502" class="st25" d="M752.2,675.9H744c0.9-1.4,1.7-2.8,2.3-4.3h4.6l0.7,4.3H752.2z"/>
<path class="st62" d="M756.5,688.8l-0.7,1.5c-0.6-0.5-1.1-1-1.7-1.5H756.5z"/>
<path class="st63" d="M1141.4,349.4h-45.7c-1.8,0-3.4-0.7-4.6-1.9c-1.2-1.2-1.9-2.8-1.9-4.6c0-3.5,2.9-6.4,6.4-6.4h6.8
	c0,0,11.5-8.6,20-11.3C1129.2,332.9,1135.6,341,1141.4,349.4z"/>
<path id="path544" class="st63" d="M846.7,349.4h-4.3v0c-6.5,0-9.8-5.1-14.7-6.3c-2.8-0.8-5.8-0.4-8.4,0.9
	c-3.5-4.6-8.8-7.4-14.5-7.8c-4.4-0.4-8.9,1-12.3,3.8c-4.9-3.6-10.8-5.5-16.9-5.6c-14.6,0-19.2,15-23.5,15h-3.8
	c-2.4,0-4.3,1.9-4.3,4.3s1.9,4.3,4.3,4.3h97.3c2.4,0,4.3-1.9,4.3-4.3s-1.9-4.3-4.3-4.3H846.7z"/>
<path class="st29" d="M738.9,675.9C738.9,675.9,738.9,675.9,738.9,675.9c0.3,0.2,0.5,0.5,0.7,0.7l1.6-0.4c0.8,0.8,1.6,1.6,2.4,2.5
	c-0.2,0.3-0.4,0.6-0.5,0.9c0.4,0.3,0.7,0.6,0.9,1c0.5,0,1,0,1.5,0c0.1,0.1,0.2,0.2,0.3,0.3c0.6,0.6,1.1,1.1,1.7,1.7
	c1.3,1.2,2.5,2.5,3.8,3.7c0,0,0,0,0,0c0.6,0.6,1.2,1.1,1.8,1.7c0.2,0.2,0.4,0.4,0.7,0.6c0.1,0.1,0.2,0.2,0.3,0.3
	c0.6,0.5,1.1,1,1.7,1.5c1.6,1.5,3.3,2.9,5,4.4v-18.8H738.9z"/>
<path class="st64" d="M1187.4,496.9c0,14.3-1.2,28.4-3.4,42.1c-1.5,9-3.4,17.9-5.8,26.7v0c-0.2,0.6-0.3,1.3-0.5,1.9
	c-0.1,0.4-0.2,0.8-0.3,1.2c0,0,0,0,0,0c0,0.2-0.1,0.3-0.1,0.4v0c0,0.1-0.1,0.3-0.1,0.4c-0.6,2-1.2,3.9-1.8,5.9
	c-0.1,0.5-0.3,0.9-0.4,1.3c-2.4,7.3-5,14.4-8,21.4c-0.5,1.1-0.9,2.1-1.4,3.2c-0.2,0.4-0.4,0.8-0.5,1.2c-3.6,8.1-7.6,15.9-12,23.5
	c-0.2,0.4-0.4,0.7-0.6,1.1c-0.6,1-1.2,2-1.8,3v0c-0.8,1.3-1.6,2.6-2.4,3.9c-0.1,0.2-0.3,0.4-0.4,0.6c-0.5,0.8-1,1.6-1.5,2.3
	c-3.8,5.9-7.8,11.6-12.1,17.2c-1.1,1.4-2.2,2.9-3.4,4.3c-1.6,2.1-3.3,4.1-5,6.1c-0.8,0.9-1.6,1.8-2.3,2.7c-0.3,0.3-0.5,0.6-0.8,0.9
	c-0.7,0.8-1.4,1.6-2.1,2.4c-2,2.2-4.1,4.4-6.2,6.6c-0.4,0.4-0.8,0.8-1.2,1.2c-0.5,0.5-1,1.1-1.6,1.6c-6.4,6.4-13.2,12.5-20.3,18.3
	c-0.5,0.4-0.9,0.8-1.4,1.1c-0.2,0.2-0.4,0.3-0.6,0.5c-1,0.8-2,1.6-3.1,2.4c-34,26.2-74.8,44.1-119.3,50.8
	c-12.6,1.9-25.5,2.9-38.6,2.9s-26-1-38.6-2.9c-35-5.2-67.8-17.5-96.8-35.3c-1.8-1.1-3.7-2.3-5.5-3.4c-2.1-1.4-4.3-2.8-6.3-4.3
	c0,0,0,0,0,0c-1-0.7-2.1-1.4-3.1-2.2c-0.3-0.3-0.7-0.5-1-0.8c-0.9-0.6-1.8-1.3-2.7-2c-4.6-3.4-9.1-7-13.5-10.7
	c-1.7-1.4-3.4-2.9-5-4.4c-0.6-0.5-1.1-1-1.7-1.5c-0.1-0.1-0.2-0.2-0.3-0.3c-0.2-0.2-0.4-0.4-0.7-0.6c-0.6-0.6-1.2-1.1-1.8-1.7
	c0,0,0,0,0,0c-1.3-1.2-2.6-2.4-3.8-3.7c-0.6-0.6-1.1-1.1-1.7-1.7c-0.1-0.1-0.2-0.2-0.3-0.3l-0.4-0.4c-0.5-0.5-1-1-1.5-1.5
	c-0.8-0.8-1.6-1.6-2.4-2.5c-0.1-0.1-0.2-0.2-0.3-0.3l0,0c-0.1-0.1-0.2-0.2-0.3-0.4c-0.4-0.4-0.8-0.9-1.2-1.3
	c-0.2-0.2-0.4-0.4-0.5-0.6c-0.2-0.3-0.5-0.5-0.7-0.7c-0.1-0.1-0.1-0.1-0.2-0.2c-0.4-0.4-0.7-0.8-1-1.1c-0.4-0.4-0.7-0.8-1.1-1.2
	c-2.1-2.3-4.2-4.7-6.2-7.1c-0.9-1-1.7-2-2.5-3.1c-1.1-1.3-2.2-2.7-3.2-4.1c-0.5-0.6-0.9-1.2-1.4-1.8c-0.4-0.5-0.7-1-1.1-1.4
	c-0.4-0.6-0.9-1.2-1.3-1.8c-2.3-3.2-4.6-6.4-6.8-9.7c-1-1.4-1.9-2.9-2.8-4.3c-1.9-2.9-3.7-5.8-5.5-8.8c-4.2-7.2-8.1-14.6-11.7-22.2
	c-8.1-17.3-14.3-35.7-18.4-54.9c-0.5-2.4-1-4.8-1.4-7.2c-1.2-6.5-2.2-13.2-2.9-19.9c-1-9-1.4-18.1-1.4-27.3c0-9.2,0.5-18.3,1.4-27.3
	c1-9.2,2.4-18.2,4.3-27.1c5.9-27.6,16.2-53.5,30.1-77c3.2-5.5,6.6-10.8,10.2-16c1-1.4,2-2.9,3-4.3c2.1-2.9,4.3-5.8,6.5-8.6
	c0.6-0.7,1.1-1.4,1.7-2.1c3-3.7,6-7.3,9.1-10.7c1.3-1.5,2.6-2.9,4-4.3c8.7-9.3,18.1-17.9,28.1-25.8c44.2-35,100-55.8,160.7-55.8
	c77.3,0,146.7,33.8,194.2,87.5c6.8,7.7,13.1,15.7,18.9,24.2c9,13,16.9,26.8,23.4,41.4C1179.3,423.2,1187.4,459.1,1187.4,496.9z"/>
</svg>
