<svg xmlns="http://www.w3.org/2000/svg" xmlns:xlink="http://www.w3.org/1999/xlink" viewBox="0 0 156 140">
  <defs>
    <style>
      .cls-1 {
        clip-path: url(#clip-OJ91B01);
      }

      .cls-2 {
        fill: #22386c;
      }

      .cls-3 {
        fill: #274b82;
      }

      .cls-4 {
        fill: #fcd4a5;
      }

      .cls-10, .cls-11, .cls-12, .cls-13, .cls-14, .cls-15, .cls-16, .cls-17, .cls-18, .cls-4, .cls-5, .cls-6, .cls-7, .cls-8, .cls-9 {
        fill-rule: evenodd;
      }

      .cls-5 {
        fill: #f3646a;
      }

      .cls-6 {
        fill: #f78e92;
      }

      .cls-7 {
        fill: #4fa051;
      }

      .cls-8 {
        fill: #fdfdfd;
      }

      .cls-9 {
        fill: #f7b22d;
      }

      .cls-10, .cls-19 {
        fill: #fff;
      }

      .cls-11 {
        fill: #3c4b66;
      }

      .cls-12 {
        fill: #babbbc;
      }

      .cls-13 {
        fill: #cccac6;
      }

      .cls-14 {
        fill: #b8e7f0;
      }

      .cls-15 {
        fill: #f24f66;
      }

      .cls-16 {
        fill: #f36447;
      }

      .cls-17 {
        fill: #5e8ebf;
      }

      .cls-18 {
        fill: #bddee7;
      }
    </style>
    <clipPath id="clip-OJ91B01">
      <rect width="156" height="140"/>
    </clipPath>
  </defs>
  <g id="OJ91B01" class="cls-1">
    <rect class="cls-19" width="156" height="140"/>
    <g id="Group_20" data-name="Group 20" transform="translate(3932.551 2524.551)">
      <path id="path14" class="cls-2" d="M131-1469H0v-131H131v131" transform="translate(-3919.551 -919.555)"/>
      <path id="path16" class="cls-3" d="M355.112-1288.441a43.556,43.556,0,0,1-43.556,43.556A43.556,43.556,0,0,1,268-1288.441,43.556,43.556,0,0,1,311.556-1332a43.556,43.556,0,0,1,43.556,43.556" transform="translate(-4165.608 -1165.612)"/>
      <path id="path42" class="cls-4" d="M149.374-715.783c-2.808-2.852-.124-10.3,4.292-13.552,5.66-4.161,10.65-5.907,14.4-3.259-3.528,3.39-7.464,6.365-10.868,9.871-2.9,3,3.834,1.2,6.787-1.659l.451,9.457a21.964,21.964,0,0,0-1.564,3.666c-.728,2.67-1.048,5.711-1.608,8.526l-8.082.32c-.858-5.514-.058-9.558-3.812-13.37h0" transform="translate(-4055.639 -1714.786)"/>
      <path id="path44" class="cls-5" d="M191.232-345.116a37.819,37.819,0,0,0,6.387.553,36.745,36.745,0,0,0,4.11-.233v-5.928a.846.846,0,0,0-.757-.91h-8.991a.841.841,0,0,0-.749.91v5.608" transform="translate(-4095.125 -2065.71)"/>
      <path id="path46" class="cls-6" d="M193.122-368.662H182.21a.576.576,0,0,1-.575-.575v-1.193a.576.576,0,0,1,.575-.575h10.912a.576.576,0,0,1,.575.575v1.193a.576.576,0,0,1-.575.575h0" transform="translate(-4086.315 -2047.925)"/>
      <path id="path48" class="cls-4" d="M1229.388-715.783c2.8-2.852.123-10.3-4.292-13.552-5.666-4.161-10.649-5.907-14.4-3.259,3.528,3.39,7.456,6.365,10.868,9.871,2.9,3-3.834,1.2-6.787-1.659l-.451,9.457a21.94,21.94,0,0,1,1.564,3.666c.728,2.67,1.04,5.711,1.608,8.526l8.081.32c.851-5.514.059-9.558,3.812-13.37h0" transform="translate(-5031.121 -1714.786)"/>
      <path id="path50" class="cls-5" d="M1292.361-345.116a37.892,37.892,0,0,1-6.387.553,36.646,36.646,0,0,1-4.11-.233v-5.928a.846.846,0,0,1,.756-.91h8.991a.841.841,0,0,1,.75.91v5.608" transform="translate(-5096.465 -2065.71)"/>
      <path id="path52" class="cls-6" d="M1272.932-368.662h10.9a.578.578,0,0,0,.582-.575v-1.193a.578.578,0,0,0-.582-.575h-10.9a.572.572,0,0,0-.574.575v1.193a.571.571,0,0,0,.574.575h0" transform="translate(-5087.736 -2047.925)"/>
      <path id="path54" class="cls-7" d="M270.792-1082.333h80.4a3.517,3.517,0,0,1,3.506,3.506v46.04a3.517,3.517,0,0,1-3.506,3.506h-80.4a3.517,3.517,0,0,1-3.506-3.506v-46.04a3.517,3.517,0,0,1,3.506-3.506h0" transform="translate(-4164.953 -1394.835)"/>
      <path id="path56" class="cls-8" d="M422.216-1041.373h66.4a2.561,2.561,0,0,1,2.553,2.553v40.911a2.561,2.561,0,0,1-2.553,2.554h-66.4a2.561,2.561,0,0,1-2.553-2.554v-40.911a2.561,2.561,0,0,1,2.553-2.553h0" transform="translate(-4304.855 -1432.441)"/>
      <path id="path58" class="cls-9" d="M312.336-786.547a2.76,2.76,0,0,0,2.757-2.757,2.765,2.765,0,0,0-2.757-2.757,2.769,2.769,0,0,0-2.757,2.757,2.765,2.765,0,0,0,2.757,2.757h0" transform="translate(-4203.784 -1661.342)"/>
      <path id="path60" class="cls-9" d="M319.759-962.019c1.164,0,2.1.437,2.1.975s-.938.975-2.1.975-2.095-.437-2.095-.975S318.6-962.019,319.759-962.019Zm0,2.764c1.164,0,2.1.437,2.1.975s-.938.975-2.1.975-2.095-.437-2.095-.975S318.6-959.255,319.759-959.255Zm0-5.528c1.164,0,2.1.436,2.1.975s-.938.975-2.1.975-2.095-.436-2.095-.975.938-.975,2.095-.975h0" transform="translate(-4211.207 -1502.761)"/>
      <path id="path62" class="cls-4" d="M1203.291-702.152l2.415,11.311-7.013,4.307a57.306,57.306,0,0,0-1.106-5.667,21.921,21.921,0,0,0-1.564-3.666c.008-.065-4.634-12.257-5.106-13.5a2.86,2.86,0,0,1,1.28-3.339,2.842,2.842,0,0,1,2.386-.211c2.379,1.3,3.848,10.97,8.708,10.766h0" transform="translate(-5012.821 -1733.843)"/>
      <path id="path64" class="cls-10" d="M1198.5-699.695a15.163,15.163,0,0,1-.517-1.622c.058-3.106,2.888-3.012,4-1.164a6.236,6.236,0,0,1,.618,1.666c.458,1.615-3.514,2.822-4.1,1.12h0" transform="translate(-5019.455 -1742.397)"/>
      <path id="path66" class="cls-4" d="M230.431-702.152l-2.415,11.311,7.013,4.307a57.421,57.421,0,0,1,1.106-5.667,21.966,21.966,0,0,1,1.564-3.666c-.007-.065,4.634-12.257,5.107-13.5a2.87,2.87,0,0,0-1.28-3.339,2.842,2.842,0,0,0-2.386-.211c-2.379,1.3-3.848,10.97-8.707,10.766h0" transform="translate(-4128.897 -1733.843)"/>
      <path id="path68" class="cls-10" d="M350.579-699.695a13.8,13.8,0,0,0,.524-1.622c-.066-3.106-2.888-3.012-4.008-1.164a6.5,6.5,0,0,0-.611,1.666c-.458,1.615,3.506,2.822,4.1,1.12h0" transform="translate(-4237.633 -1742.397)"/>
      <path id="path70" class="cls-11" d="M942.81-1104.784a15.4,15.4,0,0,1,15.4-15.4v6.678a8.725,8.725,0,0,0-8.729,8.722H942.81" transform="translate(-4785.169 -1360.083)"/>
      <path id="path72" class="cls-9" d="M958.21-916.687a15.4,15.4,0,0,1-15.4-15.4h6.671a8.725,8.725,0,0,0,8.729,8.722v6.678" transform="translate(-4785.169 -1532.78)"/>
      <path id="path74" class="cls-5" d="M1130.907-1120.184a15.4,15.4,0,0,1,15.393,15.4,15.4,15.4,0,0,1-15.393,15.4v-6.678a8.723,8.723,0,0,0,8.722-8.722,8.723,8.723,0,0,0-8.722-8.722v-6.678" transform="translate(-4957.867 -1360.083)"/>
      <path id="path76" class="cls-11" d="M1053.937-950.759a1.945,1.945,0,0,1,.48.633l.786-.138.175,1.273-.793.138a2.055,2.055,0,0,1-.109.4,2.112,2.112,0,0,1-.182.364l.487.64-.967.822-.495-.64a1.856,1.856,0,0,1-.771.131l-.3.785-1.142-.451.3-.786a1.917,1.917,0,0,1-.48-.625l-.793.138-.167-1.273.786-.138a2.785,2.785,0,0,1,.116-.4,1.537,1.537,0,0,1,.182-.364l-.487-.647.968-.815.487.64a2.023,2.023,0,0,1,.778-.138l.3-.778,1.142.451-.3.779" transform="translate(-4883.553 -1514.508)"/>
      <path id="path78" class="cls-8" d="M1069.848-933a1.249,1.249,0,0,1,.669,1.63,1.219,1.219,0,0,1-1.579.749,1.267,1.267,0,0,1-.669-1.637A1.226,1.226,0,0,1,1069.848-933Zm-.218.582a.64.64,0,0,1,.335.829.615.615,0,0,1-.8.378.645.645,0,0,1-.342-.829.634.634,0,0,1,.807-.378h0" transform="translate(-4900.278 -1531.864)"/>
      <path id="path80" class="cls-5" d="M1112.108-1017.535a2.93,2.93,0,0,1,.706.924l1.149-.2.255,1.862-1.156.2a3.32,3.32,0,0,1-.16.582,3.092,3.092,0,0,1-.269.538l.72.946-1.426,1.2-.72-.938a2.85,2.85,0,0,1-1.135.2l-.437,1.142-1.673-.662.437-1.142a2.8,2.8,0,0,1-.7-.924l-1.157.2-.247-1.869,1.149-.2a3.279,3.279,0,0,1,.16-.582,3.736,3.736,0,0,1,.269-.538l-.713-.946,1.426-1.2.713.946a2.772,2.772,0,0,1,1.135-.2l.436-1.142,1.673.662-.437,1.142" transform="translate(-4935.271 -1452.672)"/>
      <path id="path82" class="cls-8" d="M1135.38-991.5a1.851,1.851,0,0,1,.982,2.393,1.809,1.809,0,0,1-2.32,1.091,1.839,1.839,0,0,1-.975-2.393,1.8,1.8,0,0,1,2.313-1.091Zm-.327.858a.936.936,0,0,1,.495,1.215.911.911,0,0,1-1.171.553.933.933,0,0,1-.5-1.215.916.916,0,0,1,1.178-.553h0" transform="translate(-4959.729 -1478.121)"/>
      <path id="path84" class="cls-9" d="M1126.237-908.834a1.875,1.875,0,0,1,.3.647l.72.029-.1,1.149-.72-.029a1.792,1.792,0,0,1-.174.327,1.724,1.724,0,0,1-.233.284l.306.662-1.011.531-.305-.662a1.775,1.775,0,0,1-.706-.029l-.415.626-.916-.618.415-.626a1.941,1.941,0,0,1-.3-.647l-.72-.037.1-1.149.72.037a1.418,1.418,0,0,1,.175-.327,1.506,1.506,0,0,1,.233-.291l-.306-.654,1.011-.531.306.655a1.775,1.775,0,0,1,.705.036l.415-.626.917.619-.415.625" transform="translate(-4950.034 -1552.927)"/>
      <path id="path86" class="cls-8" d="M1140.489-893.825a1.127,1.127,0,0,1,.269,1.564,1.1,1.1,0,0,1-1.528.342,1.119,1.119,0,0,1-.269-1.557A1.1,1.1,0,0,1,1140.489-893.825Zm-.306.473a.571.571,0,0,1,.131.793.561.561,0,0,1-.778.175.572.572,0,0,1-.131-.793.555.555,0,0,1,.778-.175h0" transform="translate(-4965.077 -1567.747)"/>
      <path id="path88" class="cls-11" d="M491.988-950.551h32.6v-6.416h-32.6v6.416" transform="translate(-4371.259 -1509.937)"/>
      <path id="path90" class="cls-12" d="M491.988-839.648h9.238v-1.28h-9.238v1.28" transform="translate(-4371.259 -1616.475)"/>
      <path id="path92" class="cls-12" d="M491.988-803.659h13.217v-1.288H491.988v1.288" transform="translate(-4371.258 -1649.512)"/>
      <path id="path94" class="cls-12" d="M491.988-767.59h6.8v-1.28h-6.8v1.28" transform="translate(-4371.258 -1682.634)"/>
      <path id="path96" class="cls-12" d="M491.988-731.518h10.781v-1.28H491.988v1.28" transform="translate(-4371.259 -1715.753)"/>
      <path id="path98" class="cls-5" d="M709.492-841.49h5.39v-5.39h-5.39v5.39" transform="translate(-4570.955 -1611.01)"/>
      <path id="path100" class="cls-13" d="M794.521-841.49h5.39v-5.39h-5.39v5.39" transform="translate(-4649.022 -1611.01)"/>
      <path id="path102" class="cls-9" d="M709.492-753.27h5.39v-5.383h-5.39v5.383" transform="translate(-4570.955 -1692.015)"/>
      <path id="path104" class="cls-11" d="M794.521-753.27h5.39v-5.383h-5.39v5.383" transform="translate(-4649.022 -1692.015)"/>
      <path id="path106" class="cls-13" d="M709.492-665.125h5.39v-5.39h-5.39v5.39" transform="translate(-4570.955 -1772.936)"/>
      <path id="path108" class="cls-5" d="M794.521-665.125h5.39v-5.39h-5.39v5.39" transform="translate(-4649.022 -1772.936)"/>
      <path id="path110" class="cls-14" d="M515.088-661.9a5.517,5.517,0,0,0,5.507-5.507,5.517,5.517,0,0,0-5.507-5.507,5.522,5.522,0,0,0-5.506,5.507,5.521,5.521,0,0,0,5.506,5.507h0" transform="translate(-4387.412 -1770.734)"/>
      <path id="path112" class="cls-15" d="M539.611-689.459l2.859,4.881,6.758-11.079-6.59,7.558-3.026-1.36" transform="translate(-4414.982 -1749.853)"/>
      <path id="path114" class="cls-9" d="M393.187-1146.914h38.067v-7.922H393.187v7.922" transform="translate(-4280.547 -1328.268)"/>
      <path id="path116" class="cls-10" d="M792.039-1134.86a1.076,1.076,0,0,0-.473,1.448,1.087,1.087,0,0,0,1.455.473,1.084,1.084,0,0,0,.465-1.455A1.067,1.067,0,0,0,792.039-1134.86Zm-.269-.538a1.67,1.67,0,0,0-.735,2.255,1.676,1.676,0,0,0,1.971.851l.837,1.658.553-.284-.844-1.651a1.681,1.681,0,0,0,.473-2.1,1.673,1.673,0,0,0-2.255-.735h0" transform="translate(-4645.652 -1345.945)"/>
      <path id="path118" class="cls-10" d="M452.362-1126.906a.239.239,0,0,0,.269-.269.244.244,0,0,0-.269-.277.244.244,0,0,0-.269.277A.239.239,0,0,0,452.362-1126.906Zm-1.557,0a.239.239,0,0,0,.269-.269.244.244,0,0,0-.269-.277.242.242,0,0,0-.262.277A.237.237,0,0,0,450.805-1126.906Zm-1.549,0a.239.239,0,0,0,.269-.269.244.244,0,0,0-.269-.277.242.242,0,0,0-.262.277A.237.237,0,0,0,449.256-1126.906Zm-3.055-2.364a.81.81,0,0,1,.626.24.16.16,0,0,0,.116.051.165.165,0,0,0,.167-.167.151.151,0,0,0-.044-.109,1.04,1.04,0,0,0-.865-.364c-.487,0-.873.218-.873.691,0,.938,1.5.706,1.5,1.295,0,.291-.276.4-.6.4a.987.987,0,0,1-.727-.276.175.175,0,0,0-.124-.058.165.165,0,0,0-.167.167.191.191,0,0,0,.044.109,1.276,1.276,0,0,0,.975.407c.546,0,.975-.233.975-.749,0-.917-1.506-.7-1.506-1.295,0-.262.255-.342.509-.342Zm-1.739-.858a.2.2,0,0,0,.218-.218c0-.167-.08-.226-.218-.226s-.218.058-.218.226A.2.2,0,0,0,444.462-1130.129Zm.182.72a.18.18,0,0,0-.182-.182.18.18,0,0,0-.182.182v2.321a.18.18,0,0,0,.182.182.18.18,0,0,0,.182-.182Zm-3.172-.138h-.225a.166.166,0,0,0-.167.175.165.165,0,0,0,.167.167h.225v1.579a.662.662,0,0,0,.7.72.171.171,0,0,0,.175-.167.173.173,0,0,0-.175-.175c-.2,0-.335-.131-.335-.378v-1.579h.371a.166.166,0,0,0,.175-.167.168.168,0,0,0-.175-.175h-.371v-.6a.185.185,0,0,0-.182-.182.19.19,0,0,0-.182.182Zm-1.964,2.335c-.451,0-.655-.182-.655-.48,0-.334.255-.487.633-.487h.8v.24A.719.719,0,0,1,439.508-1127.212Zm.109-2.073a.6.6,0,0,1,.669.633v.153h-.8c-.619,0-1,.305-1,.807,0,.524.386.815.989.815a.9.9,0,0,0,.815-.415v.211a.178.178,0,0,0,.182.174.177.177,0,0,0,.175-.174v-1.571a.921.921,0,0,0-1.026-.975,1.08,1.08,0,0,0-.953.451.206.206,0,0,0-.029.094.165.165,0,0,0,.167.167.168.168,0,0,0,.145-.08.815.815,0,0,1,.669-.291Zm-2.7-.342a.825.825,0,0,0-.757.4v-1.615a.18.18,0,0,0-.182-.182.18.18,0,0,0-.182.182v3.754a.18.18,0,0,0,.182.182.18.18,0,0,0,.182-.182v-1.411c0-.458.2-.8.757-.8s.691.305.691.756v1.455a.18.18,0,0,0,.182.182.18.18,0,0,0,.182-.182v-1.528C437.973-1129.1,437.8-1129.627,436.919-1129.627Zm-3.012,2.575a.194.194,0,0,0,.189.146.194.194,0,0,0,.189-.146l1.011-3.528a.252.252,0,0,0,.015-.073.19.19,0,0,0-.2-.189.2.2,0,0,0-.189.138l-.837,2.961-.815-2.961a.188.188,0,0,0-.189-.138.188.188,0,0,0-.189.138l-.815,2.961-.836-2.961a.2.2,0,0,0-.189-.138.19.19,0,0,0-.2.189.255.255,0,0,0,.015.073l1.011,3.528a.194.194,0,0,0,.189.146.188.188,0,0,0,.189-.146l.822-2.91.822,2.91" transform="translate(-4315.134 -1350.131)"/>
      <path id="path120" class="cls-6" d="M668-446.61h43.079V-453.9H668v7.289" transform="translate(-4532.858 -1971.818)"/>
      <path id="path122" class="cls-10" d="M792.145-415.072h29.941a.469.469,0,0,1,.465.466h0a.47.47,0,0,1-.465.473H792.145a.47.47,0,0,1-.465-.473h0a.469.469,0,0,1,.465-.466h0" transform="translate(-4646.413 -2007.465)"/>
      <path id="path124" class="cls-5" d="M845.457-425.064a1.536,1.536,0,0,0,1.535-1.535,1.54,1.54,0,0,0-1.535-1.535,1.54,1.54,0,0,0-1.535,1.535,1.535,1.535,0,0,0,1.535,1.535h0" transform="translate(-4694.378 -1995.473)"/>
      <path id="path126" class="cls-10" d="M709.569-429.452l-1.549.894-1.55.895v-3.579l1.55.895,1.549.895" transform="translate(-4568.18 -1992.62)"/>
      <path id="path128" class="cls-16" d="M922.764-1176.438a6.8,6.8,0,0,0,6.787-6.794,6.8,6.8,0,0,0-6.787-6.787,6.8,6.8,0,0,0-6.787,6.787,6.805,6.805,0,0,0,6.787,6.794h0" transform="translate(-4760.534 -1295.965)"/>
      <path id="path130" class="cls-10" d="M971.109-1220.8a2.528,2.528,0,0,1,1.069.24v-7.4h6.227v.96a.964.964,0,0,1-.96.96h-4.2v6.416a2.538,2.538,0,0,1,.393,1.353,2.533,2.533,0,0,1-2.532,2.531,2.533,2.533,0,0,1-2.531-2.531,2.533,2.533,0,0,1,2.531-2.531h0" transform="translate(-4808.829 -1261.131)"/>
      <path id="path132" class="cls-17" d="M573.816-1259.415a3.035,3.035,0,0,0-1.79,3.179,3.718,3.718,0,0,0-3.273-1.826,3.706,3.706,0,0,0,1.921-3.215,3.048,3.048,0,0,0,3.143,1.862h0" transform="translate(-4441.739 -1230.542)"/>
      <path id="path134" class="cls-17" d="M768.622-1235.267a1.989,1.989,0,0,0-1.171,2.095,2.467,2.467,0,0,0-2.161-1.2,2.443,2.443,0,0,0,1.266-2.117,2,2,0,0,0,2.066,1.222h0" transform="translate(-4622.185 -1253.3)"/>
      <path id="path136" class="cls-18" d="M688.753-1323.753a4.02,4.02,0,0,0-2.371,4.219,4.93,4.93,0,0,0-4.343-2.422,4.948,4.948,0,0,0,2.553-4.27,4.024,4.024,0,0,0,4.161,2.473h0" transform="translate(-4545.749 -1170.91)"/>
      <path id="path138" class="cls-18" d="M452.833-1236.207a2.029,2.029,0,0,0-1.2,2.139,2.5,2.5,0,0,0-2.2-1.229,2.489,2.489,0,0,0,1.295-2.168,2.044,2.044,0,0,0,2.109,1.259h0" transform="translate(-4332.183 -1252.404)"/>
      <path id="path140" class="cls-17" d="M251.935-1168.7a3.324,3.324,0,0,0-1.957,3.477,4.056,4.056,0,0,0-3.572-2,4.061,4.061,0,0,0,2.095-3.514,3.331,3.331,0,0,0,3.434,2.037h0" transform="translate(-4145.783 -1313.667)"/>
      <path id="path142" class="cls-17" d="M497.285-1319.334a2.108,2.108,0,0,0-1.244,2.212,2.6,2.6,0,0,0-2.277-1.273,2.59,2.59,0,0,0,1.339-2.233,2.121,2.121,0,0,0,2.182,1.295h0" transform="translate(-4372.889 -1176.05)"/>
      <path id="path144" class="cls-18" d="M306.723-1265.384a3.72,3.72,0,0,0-2.19,3.906,4.574,4.574,0,0,0-4.015-2.248,4.566,4.566,0,0,0,2.357-3.95,3.728,3.728,0,0,0,3.848,2.292h0" transform="translate(-4195.464 -1224.667)"/>
    </g>
  </g>
</svg>
