<svg xmlns="http://www.w3.org/2000/svg" xmlns:xlink="http://www.w3.org/1999/xlink" viewBox="0 0 156 140">
  <defs>
    <style>
      .cls-1 {
        clip-path: url(#clip-OJ91BD1_1_);
      }

      .cls-2, .cls-20 {
        fill: #4bc197;
      }

      .cls-3 {
        fill: #5ac6a3;
      }

      .cls-18, .cls-4 {
        fill: #fbda5e;
      }

      .cls-5 {
        fill: #314059;
      }

      .cls-10, .cls-11, .cls-12, .cls-13, .cls-14, .cls-15, .cls-16, .cls-17, .cls-18, .cls-19, .cls-20, .cls-5, .cls-6, .cls-7, .cls-8, .cls-9 {
        fill-rule: evenodd;
      }

      .cls-6 {
        fill: #313a4b;
      }

      .cls-7 {
        fill: #687b8f;
      }

      .cls-8 {
        fill: #fce89d;
      }

      .cls-21, .cls-9 {
        fill: #fff;
      }

      .cls-10 {
        fill: #323943;
      }

      .cls-11 {
        fill: #f04e4d;
      }

      .cls-12 {
        fill: #c12128;
      }

      .cls-13 {
        fill: #d2d3d4;
      }

      .cls-14 {
        fill: #767779;
      }

      .cls-15 {
        fill: #313945;
      }

      .cls-16 {
        fill: #f36447;
      }

      .cls-17 {
        fill: #81d5dc;
      }

      .cls-19 {
        fill: #cdccca;
      }
    </style>
    <clipPath id="clip-OJ91BD1_1_">
      <rect width="156" height="140"/>
    </clipPath>
  </defs>
  <g id="OJ91BD1_1_" data-name="OJ91BD1 (1)" class="cls-1">
    <rect class="cls-21" width="156" height="140"/>
    <g id="Group_21" data-name="Group 21" transform="translate(3112 1336)">
      <path id="path14" class="cls-2" d="M131-1469H0v-131H131v131" transform="translate(-3099 268.996)"/>
      <path id="path16" class="cls-3" d="M355.114-1288.439a43.558,43.558,0,0,1-43.557,43.557A43.558,43.558,0,0,1,268-1288.439,43.558,43.558,0,0,1,311.557-1332a43.558,43.558,0,0,1,43.557,43.557" transform="translate(-3345.057 22.939)"/>
      <path id="path36" class="cls-4" d="M544.6-1350.277h16.732v11.4h13.5v5.951h-.783v-5.169h-13.5v-11.4H544.6v-.783" transform="translate(-3599.011 39.723)"/>
      <path id="path38" class="cls-4" d="M281.545-1290.429h-8.61v14.834h-.783v-15.617h9.392v.783" transform="translate(-3348.87 -14.507)"/>
      <path id="path40" class="cls-5" d="M413.541-1051.861h65.185a2.419,2.419,0,0,1,2.407,2.414v44.525H411.127v-44.525a2.42,2.42,0,0,1,2.414-2.414h0" transform="translate(-3476.466 -234.26)"/>
      <path id="path42" class="cls-6" d="M276.858-473.561h91.7c.251,0,.2-.192-.111-.428l-9.842-7.569a2.1,2.1,0,0,0-1.019-.428H287.837a2.1,2.1,0,0,0-1.019.428l-9.85,7.569c-.31.236-.362.428-.111.428h0" transform="translate(-3353.043 -757.477)"/>
      <path id="path44" class="cls-5" d="M276.794-385.759h90.969c.687,0,.753.561.147,1.255l-1.233,1.4a3.786,3.786,0,0,1-2.363,1.255H280.242a3.752,3.752,0,0,1-2.363-1.255l-1.233-1.4c-.613-.694-.546-1.255.148-1.255h0" transform="translate(-3352.611 -845.825)"/>
      <path id="path46" class="cls-7" d="M727.3-430.491h14.288l2.148,2.355H725.149l2.149-2.355" transform="translate(-3764.777 -804.756)"/>
      <path id="path48" class="cls-8" d="M438-973.534h65.613v-41.534H438v41.534" transform="translate(-3501.14 -268.041)"/>
      <path id="path50" class="cls-9" d="M1138-1302.114a7.312,7.312,0,0,0,1-2.724l2.909-.5-.783-4.512-2.91.51a7.547,7.547,0,0,0-.819-1.211,7.979,7.979,0,0,0-1.041-1.019l1.011-2.769-4.29-1.58-1.019,2.776a7.184,7.184,0,0,0-2.858.495l-1.89-2.267-3.515,2.939,1.891,2.259a7.365,7.365,0,0,0-1,2.725l-2.909.51.783,4.5,2.909-.5a7.23,7.23,0,0,0,.819,1.2,7.137,7.137,0,0,0,1.041,1.019l-1.019,2.776,4.3,1.573,1.019-2.776a7.183,7.183,0,0,0,2.858-.495l1.891,2.267,3.514-2.932-1.89-2.267" transform="translate(-4128.934 8.181)"/>
      <path id="path52" class="cls-10" d="M1197.1-1240.752a4.506,4.506,0,0,0,.569-6.343,4.506,4.506,0,0,0-6.343-.568,4.506,4.506,0,0,0-.568,6.343A4.5,4.5,0,0,0,1197.1-1240.752Zm-1.418-1.7a2.285,2.285,0,0,0,.288-3.219,2.294,2.294,0,0,0-3.227-.3,2.293,2.293,0,0,0-.288,3.227,2.293,2.293,0,0,0,3.227.288h0" transform="translate(-4191.305 -53.528)"/>
      <path id="path54" class="cls-9" d="M963.592-1317.219a5.007,5.007,0,0,0-1.159-1.647l.857-1.861-2.894-1.329-.857,1.861a5.138,5.138,0,0,0-1.012-.007,5.486,5.486,0,0,0-.989.2l-1.189-1.676-2.6,1.839,1.189,1.676a5.056,5.056,0,0,0-.842,1.831l-2.045.185.3,3.168,2.045-.192a5.135,5.135,0,0,0,1.167,1.646l-.856,1.868,2.887,1.322.857-1.861a5.141,5.141,0,0,0,1.011.008,4.866,4.866,0,0,0,1-.192l1.189,1.669,2.592-1.839-1.189-1.676a4.961,4.961,0,0,0,.841-1.824l2.046-.192-.3-3.168-2.045.192" transform="translate(-3973.102 13.812)"/>
      <path id="path56" class="cls-10" d="M1004.854-1273.647a3.135,3.135,0,0,0-3.4-2.828,3.135,3.135,0,0,0-2.828,3.4,3.137,3.137,0,0,0,3.412,2.828A3.124,3.124,0,0,0,1004.854-1273.647Zm-1.529.14a1.591,1.591,0,0,0-1.735-1.432,1.589,1.589,0,0,0-1.432,1.728,1.6,1.6,0,0,0,1.728,1.44,1.6,1.6,0,0,0,1.44-1.735h0" transform="translate(-4015.847 -28.025)"/>
      <path id="path58" class="cls-9" d="M333.383-1421.7a6.742,6.742,0,0,0-6.594,4.8,5.964,5.964,0,0,0-5.486,5.774,6.028,6.028,0,0,0,6.21,5.826h15.92a5.2,5.2,0,0,0,5.361-5.028,5.035,5.035,0,0,0-3.234-4.615v-.1a3.676,3.676,0,0,0-3.788-3.552,3.966,3.966,0,0,0-2.186.651,6.856,6.856,0,0,0-6.2-3.751h0" transform="translate(-3393.997 105.301)"/>
      <path id="path60" class="cls-9" d="M663.095-1258.566a3.513,3.513,0,0,0-3.441,2.5,3.123,3.123,0,0,0-2.865,3.02,3.141,3.141,0,0,0,3.242,3.035h8.307a2.716,2.716,0,0,0,2.8-2.621,2.617,2.617,0,0,0-1.691-2.407v-.059a1.916,1.916,0,0,0-1.972-1.853,2.069,2.069,0,0,0-1.145.339,3.566,3.566,0,0,0-3.234-1.957h0" transform="translate(-3702.014 -44.479)"/>
      <path id="path62" class="cls-9" d="M1164.8-777.331h21.952v-28.236H1164.8v28.236" transform="translate(-4168.429 -460.389)"/>
      <path id="path64" class="cls-11" d="M1165.345-879.683a1.2,1.2,0,0,0-1.2,1.2,1.2,1.2,0,0,0,1.2,1.2,1.2,1.2,0,0,0,1.2-1.2A1.2,1.2,0,0,0,1165.345-879.683Zm11.113,4.312h-22.226a.8.8,0,0,1-.8-.8v-1.182a.8.8,0,0,1,.8-.8h8.019a2.514,2.514,0,0,1-.022-.332,3.117,3.117,0,0,1,3.116-3.116,3.116,3.116,0,0,1,3.109,3.116c0,.111-.008.221-.015.332h8.019a.8.8,0,0,1,.8.8v1.182a.8.8,0,0,1-.8.8h0" transform="translate(-4157.997 -390.586)"/>
      <path id="path66" class="cls-12" d="M1176.458-814.592h-22.226a.8.8,0,0,1-.8-.8v-.007h23.82v.007a.8.8,0,0,1-.8.8h0" transform="translate(-4157.997 -451.364)"/>
      <path id="path68" class="cls-13" d="M1389.09-500.944l3.588-3.589-3.588.051Z" transform="translate(-4374.358 -736.777)"/>
      <path id="path70" class="cls-14" d="M1204.3-755.375h15.484v-1.314H1204.3v1.314" transform="translate(-4204.695 -505.265)"/>
      <path id="path72" class="cls-14" d="M1204.3-693.419h15.484v-1.314H1204.3v1.314" transform="translate(-4204.695 -562.148)"/>
      <path id="path74" class="cls-14" d="M1204.3-631.371h15.484v-1.314H1204.3v1.314" transform="translate(-4204.695 -619.116)"/>
      <path id="path76" class="cls-14" d="M1204.3-569.416h15.484v-1.315H1204.3v1.315" transform="translate(-4204.695 -675.998)"/>
      <path id="path78" class="cls-9" d="M175.81-1138.891h73.942a1.869,1.869,0,0,1,1.861,1.868v42.073a1.869,1.869,0,0,1-1.861,1.868H175.81a1.875,1.875,0,0,1-1.868-1.868v-42.073a1.875,1.875,0,0,1,1.868-1.868h0" transform="translate(-3258.701 -154.356)"/>
      <path id="path80" class="cls-15" d="M175.581-1138.891h74.392a1.645,1.645,0,0,1,1.639,1.639v5.036a.132.132,0,0,1-.133.133H173.942v-5.169a1.645,1.645,0,0,1,1.639-1.639h0" transform="translate(-3258.701 -154.356)"/>
      <path id="path82" class="cls-16" d="M204.855-1113.45a1.46,1.46,0,0,0,1.425-1.492,1.455,1.455,0,0,0-1.425-1.491,1.46,1.46,0,0,0-1.425,1.491,1.465,1.465,0,0,0,1.425,1.492h0" transform="translate(-3285.774 -174.975)"/>
      <path id="path84" class="cls-17" d="M253.557-1113.45a1.465,1.465,0,0,0,1.425-1.492,1.46,1.46,0,0,0-1.425-1.491,1.455,1.455,0,0,0-1.425,1.491,1.46,1.46,0,0,0,1.425,1.492h0" transform="translate(-3330.488 -174.975)"/>
      <path id="path86" class="cls-18" d="M302.173-1113.45a1.465,1.465,0,0,0,1.425-1.492,1.46,1.46,0,0,0-1.425-1.491,1.461,1.461,0,0,0-1.432,1.491,1.466,1.466,0,0,0,1.432,1.492h0" transform="translate(-3375.117 -174.975)"/>
      <path id="path88" class="cls-9" d="M362.066-1110.721h60.06v-2.828h-60.06v2.828" transform="translate(-3431.422 -177.623)"/>
      <path id="path90" class="cls-19" d="M250.146-1021.073h16.665v-2.2H250.146v2.2" transform="translate(-3328.665 -260.507)"/>
      <path id="path92" class="cls-19" d="M538.105-1021.073h16.665v-2.2H538.105v2.2" transform="translate(-3593.048 -260.507)"/>
      <path id="path94" class="cls-19" d="M826.966-1021.073h16.665v-2.2H826.966v2.2" transform="translate(-3858.258 -260.507)"/>
      <path id="path96" class="cls-18" d="M244.646-933.955h40.095v-18.253H244.646v18.253" transform="translate(-3323.616 -325.754)"/>
      <path id="path98" class="cls-16" d="M774.661-940.527h12.286v-11.681H774.661v11.681" transform="translate(-3810.235 -325.754)"/>
      <path id="path100" class="cls-19" d="M240.949-702.043h30.636V-703.3H240.949v1.255" transform="translate(-3320.221 -554.284)"/>
      <path id="path102" class="cls-19" d="M312.465-673.265H343.1v-1.262H312.465v1.262" transform="translate(-3385.881 -580.699)"/>
      <path id="path104" class="cls-19" d="M251.951-642.515h30.636v-1.263H251.951v1.263" transform="translate(-3330.323 -608.932)"/>
      <path id="path106" class="cls-9" d="M824.279-914.653l-2.488,1.506-2.488,1.506v-6.025l2.488,1.506,2.488,1.506" transform="translate(-3851.221 -357.468)"/>
      <path id="path108" class="cls-20" d="M774.661-763.044h24.574v-11.681H774.661v11.681" transform="translate(-3810.235 -488.706)"/>
      <path id="path110" class="cls-18" d="M924.724-940.527h12.287v-11.681H924.724v11.681" transform="translate(-3948.012 -325.754)"/>
      <path id="path112" class="cls-15" d="M342.889-874l3.507-1.344.1-.591-3.042-1.344-.1.605,2.326,1.034-2.688,1.034Zm-2.621,2.06.133-.753h-2.112l1.145-6.645h-.819l-1.285,7.4Zm-3.537-5.952-1.026,5.952h.783l1.277-7.4h-1.152l-2.193,5.907-.192-5.907h-1.152l-1.285,7.4h.716l1.026-5.9.207,5.892h.79Zm-6.852,5.952,1.152-6.653h1.359l.133-.746h-3.544l-.126.746h1.366l-1.152,6.653Zm-2.976-3.33-.576,3.33h.827l1.278-7.4H327.6l-.576,3.33h-1.816l.576-3.33h-.827l-1.278,7.4h.827l.576-3.33Zm-5.242.665-2.326-1.034,2.68-1.034.111-.605-3.515,1.344-.1.591L321.557-874l.1-.605" transform="translate(-3391.429 -392.658)"/>
      <path id="path114" class="cls-9" d="M836.987-733.887l2.747-1.063.074-.473-2.429-1.055-.074.472,1.861.82-2.1.82Zm-4.319-4.223.221,5.848h.967l1.964-5.848h-.6l-1.706,5.087-.192-5.087Zm-1.16,0-.871,5.848h.65l.879-5.848Zm-3.441,5.257.7-4.667h.7c.473,0,.657.3.576.827l-.451,3.013c-.081.532-.347.827-.82.827Zm.133-5.257-.871,5.848h1.366a1.481,1.481,0,0,0,1.551-1.447l.436-2.946c.141-.9-.2-1.455-1.107-1.455Zm-2.518,3.744-1.86-.82,2.1-.82.066-.472-2.747,1.055-.066.473,2.429,1.063.074-.48" transform="translate(-3854.781 -522.323)"/>
    </g>
  </g>
</svg>
