<?xml version="1.0" encoding="UTF-8" standalone="no"?>
<svg
   xmlns:dc="http://purl.org/dc/elements/1.1/"
   xmlns:cc="http://creativecommons.org/ns#"
   xmlns:rdf="http://www.w3.org/1999/02/22-rdf-syntax-ns#"
   xmlns:svg="http://www.w3.org/2000/svg"
   xmlns="http://www.w3.org/2000/svg"
   viewBox="0 0 3023.6133 3023.6133"
   height="3023.6133"
   width="3023.6133"
   xml:space="preserve"
   id="svg2"
   version="1.1"><metadata
     id="metadata8"><rdf:RDF><cc:Work
         rdf:about=""><dc:format>image/svg+xml</dc:format><dc:type
           rdf:resource="http://purl.org/dc/dcmitype/StillImage" /></cc:Work></rdf:RDF></metadata><defs
     id="defs6" /><g
     transform="matrix(1.3333333,0,0,-1.3333333,0,3023.6133)"
     id="g10"><g
       transform="scale(0.1)"
       id="g12"><g
         transform="scale(1.39123)"
         id="g14"><path
           id="path16"
           style="fill:#a5dcf0;fill-opacity:1;fill-rule:nonzero;stroke:none"
           d="M 0,16300.1 V 0 H 16300.1 V 16300.1 H 0" /></g><g
         transform="scale(1.30988)"
         id="g18"><path
           id="path20"
           style="fill:#d8edee;fill-opacity:1;fill-rule:nonzero;stroke:none"
           d="m 15318.4,1288.29 c -66.8,13.36 -133.3,20.08 -199,21.22 18,51.53 32.9,104.82 43.9,159.94 127.5,638.69 -286.8,1259.81 -925.5,1387.31 -544.5,108.71 -1075.9,-176.66 -1299.9,-658.77 -130.4,116.27 -292.4,200.48 -476.3,237.2 -401.5,80.24 -794.8,-88.41 -1020.8,-399.12 -65.3,26.26 -133.7,47.1 -205.2,61.45 -621.4,124.06 -1225.7,-279.1 -1349.71,-900.46 C 9789.93,716.175 10009.8,245.75 10402,0 h 5786.1 c 111.9,594.408 -275.1,1169.65 -869.7,1288.29" /></g><path
         id="path22"
         style="fill:#d8edee;fill-opacity:1;fill-rule:nonzero;stroke:none"
         d="m 1075.73,1734 c 13.77,4.6 27.23,9.6 40.4,14.9 2.76,-27.2 6.85,-54.2 11.98,-81 -16.29,23 -33.93,44.8 -52.38,66.1 z m 1966.13,-403.9 c -59.82,25.3 -120.83,42.3 -182.14,52.7 17.56,31 33.55,63.3 47.76,97 200.3,475.8 -23.06,1023.8 -498.88,1223.8 -261.68,110.4 -545.3,92.2 -780.72,-25.7 -50.15,266.2 -228.42,503 -496.72,616.1 C 805.273,3430.9 441.516,3345.5 208.926,3106.7 147.766,3165 77.7539,3215.5 0,3256.4 V 208.898 C 277.449,101.199 575.813,130.898 818.441,266.5 863.008,167.102 927.52,76.3984 1008.25,0 h 2294.46 c 72.62,72.6016 132.74,160 175,260.402 175,415.797 -20.16,894.698 -435.85,1069.698" /><path
         id="path24"
         style="fill:#d8edee;fill-opacity:1;fill-rule:nonzero;stroke:none"
         d="m 10808.5,9974.2 -1347.37,-8837.7 4175.77,292 -1589,8638.2 -1239.4,-92.5" /><path
         id="path26"
         style="fill:#d8edee;fill-opacity:1;fill-rule:nonzero;stroke:none"
         d="m 14363.3,594.402 c 127.2,350.297 48.6,724.998 -173.9,992.098 83.4,74 150.1,169.2 190.8,281.3 120.5,331.8 -28,695.6 -334,852.9 83,93.2 150.3,203.4 195.5,327.9 191.5,526.8 -80.4,1109 -607.2,1300.4 -526.9,191.4 -1109.1,-80.4 -1300.6,-607.3 -21.3,-58.8 -36.6,-118.2 -46.8,-177.7 -44.2,23.6 -90.5,44.5 -139.1,62.2 -561.9,204.1 -1183.2,-86 -1387.3,-648 -174.1,-479.1 11.3,-1000.9 417.9,-1271.1 -123.6,-102.3 -222.5,-237.7 -281.3,-399.4 C 10768.9,954.301 10867.4,574 11118.2,325.801 11085.3,270.203 11056.8,211 11034,148.102 11016.2,99.1016 11002.4,49.6016 10992.1,0 h 2793.2 c 259.3,102.703 475.3,311.602 578,594.402" /><g
         transform="scale(1.39123)"
         id="g28"><path
           id="path30"
           style="fill:#d8edee;fill-opacity:1;fill-rule:nonzero;stroke:none"
           d="m 16300.1,2342.47 c -36.8,22.92 -76.1,42.98 -118,59.44 -371,145.7 -790,-36.87 -935.7,-407.99 -16.3,-41.4 -28.2,-83.38 -36.6,-125.5 -31,17.61 -63.5,33.36 -97.7,46.73 -395.8,155.47 -842.8,-39.32 -998.4,-435.16 -132.4,-337.54 -10.2,-711.89 274,-911.5 -89.9,-70.369 -162.7,-164.816 -207.5,-278.818 -37.4,-95.239 -51,-193.9999 -44.1,-289.672 h 2164 v 2342.47" /></g><path
         id="path32"
         style="fill:#d8edee;fill-opacity:1;fill-rule:nonzero;stroke:none"
         d="m 10340.7,3049 c 51.2,75.5 92.6,160.7 120.9,254 135.2,445.4 -75.3,903.7 -470.34,1023.5 -357.43,108.5 -743.36,-97.5 -913.6,-467.7 -332.44,10.3 -655.5,-231.1 -768.45,-603.1 -91.81,-302.6 -20.01,-611 161.76,-810.4 -161.76,-61.5 -299.33,-205.2 -357.74,-397.9 -94.27,-310.3 52.53,-629.7 327.68,-713.2 24.33,-7.4 48.81,-12.1 73.29,-15.4 -0.67,-2.1 -1.56,-4.1 -2.16,-6.2 -101.49,-333.998 56.47,-677.698 352.68,-767.6 296.27,-89.797 618.59,108.102 719.93,442 18.3,60.5 28.05,121.2 30.06,180.7 7.58,-2.5 14.95,-5.2 22.47,-7.5 473.72,-143.8 989.22,172.7 1151.42,707 148.2,488.5 -50.5,989.8 -447.9,1181.8" /><path
         id="path34"
         style="fill:#d8edee;fill-opacity:1;fill-rule:nonzero;stroke:none"
         d="m 10744.5,1507.3 c -22.2,829.8 -712.8,1484.3 -1542.51,1462.1 -285.19,-7.7 -549.77,-94.2 -773.13,-238.2 -0.08,5.8 0.07,11.5 -0.08,17.3 -21.28,795.8 -683.7,1423.6 -1479.45,1402.3 -531.54,-14.1 -987.86,-314.5 -1226.1,-749.5 -141.81,72 -302.98,110.7 -473.21,106.2 -503.35,-13.5 -908.55,-401 -957.43,-889.3 -167.26,61.4 -348.51,93.1 -537.35,88.1 C 2955.84,2684.9 2325.05,2019.6 2346.47,1220.1 2360.54,694.801 2652.65,242.5 3078.09,0 h 6489.6 C 10257,152.199 10764.1,775.5 10744.5,1507.3" /><g
         transform="scale(1.24406)"
         id="g36"><path
           id="path38"
           style="fill:#ffffff;fill-opacity:1;fill-rule:nonzero;stroke:none"
           d="m 15471.9,1602.58 c -519.2,268.72 -1140.1,134.88 -1507.2,-287.76 -98.1,155.77 -237.5,288.24 -412.7,378.92 -383,198.14 -830.1,142.11 -1149.3,-106.35 -58.3,45.58 -121.5,86.65 -189.7,121.94 -592.5,306.66 -1321.4,74.84 -1627.9,-517.66 -202.6,-391.464 -170,-842.249 46,-1191.67 h 5406.5 c 262.4,595.152 19.9,1299.54 -565.7,1602.58" /></g><path
         id="path40"
         style="fill:#ffffff;fill-opacity:1;fill-rule:nonzero;stroke:none"
         d="m 1256.16,669.801 c 8.85,9.301 17.34,18.801 25.52,28.301 13.32,-20.102 27.68,-39.602 42.78,-58.5 -22.24,11.199 -45.08,21.101 -68.3,30.199 z M 3745.79,505.5 c -34.3,397.898 -384.67,692.7 -782.58,658.4 -57.29,-4.8 -112.05,-16.6 -164.43,-33.8 0.97,31.6 0.22,63.5 -2.61,95.7 -39.21,455.4 -440.1,792.7 -895.37,753.3 C 1650.21,1957.7 1435.47,1826.4 1299.61,1637 1150.58,1824.9 913.313,1937 656.387,1915 344.563,1887.9 94.7891,1671.1 11.0117,1387.9 7.36328,1389 3.64453,1389.6 0,1390.6 V 0 h 3595.5 c 107.96,138.801 166.59,316.5 150.29,505.5" /><path
         id="path42"
         style="fill:#ffffff;fill-opacity:1;fill-rule:nonzero;stroke:none"
         d="m 10974.7,8840.9 -1045.12,-6855 3238.92,226.5 -1232.5,6700.3 -961.3,-71.8" /><path
         id="path44"
         style="fill:#ffffff;fill-opacity:1;fill-rule:nonzero;stroke:none"
         d="m 14189.4,824.602 c 83.4,74 150.1,169.199 190.8,281.298 120.5,331.8 -28,695.6 -334,852.9 83,93.2 150.3,203.4 195.5,327.9 191.5,526.8 -80.4,1109 -607.2,1300.4 -526.9,191.5 -1109.1,-80.4 -1300.6,-607.3 -21.3,-58.8 -36.6,-118.2 -46.8,-177.7 -44.2,23.6 -90.5,44.5 -139.1,62.2 -561.9,204.1 -1183.2,-86 -1387.3,-648 -174.1,-479.1 11.3,-1000.9 417.9,-1270.999 C 11055,842.902 10956.1,707.5 10897.3,545.801 10831.1,363.699 10825.6,174.602 10869.8,0 h 3538.1 c 53.6,298.602 -31.2,599.699 -218.5,824.602" /><g
         transform="scale(1.39123)"
         id="g46"><path
           id="path48"
           style="fill:#ffffff;fill-opacity:1;fill-rule:nonzero;stroke:none"
           d="m 16300.1,1108.81 c -304.9,138.51 -675.1,49.52 -880.6,-231.454 -26.3,-35.939 -48.5,-73.462 -67.3,-112.061 -25.5,24.871 -53,48.375 -82.6,70.012 C 14926.3,1086.38 14444.4,1011.7 14193.4,668.404 14047.1,468.219 14011.7,221.101 14075.5,0 h 2224.6 v 1108.81" /></g><path
         id="path50"
         style="fill:#ffffff;fill-opacity:1;fill-rule:nonzero;stroke:none"
         d="m 10606.1,319.102 c -4.7,63 -17.5,123.097 -37.1,179.398 8.1,0.301 15.9,0.5 23.7,1.102 493.8,36.296 860.8,517.198 819.8,1073.998 -37.6,509.1 -403.5,905.3 -843.3,941.4 20.6,88.9 28.5,183.3 21.3,280.5 -34.1,464.2 -395.5,815.9 -807.19,785.5 -372.62,-27.4 -658.48,-358.5 -684,-765.2 -313.91,-110 -528.34,-451.6 -499.85,-839.2 23.29,-315.4 201.26,-577.3 442.63,-697.9 -128.79,-115.6 -205.43,-299.2 -190.55,-500.001 23.81,-323.496 275.67,-568.597 562.5,-547.398 25.3,1.801 49.85,6.301 73.88,12 0.15,-2.102 0,-4.403 0.22,-6.602 6.25,-85 27.31,-164.699 59.75,-236.699 h 1006.71 c 40.4,95.8984 59.9,204.801 51.5,319.102" /><path
         id="path52"
         style="fill:#ffffff;fill-opacity:1;fill-rule:nonzero;stroke:none"
         d="m 11360.7,260.5 c -22.1,829.8 -712.7,1484.3 -1542.42,1462.1 -285.12,-7.6 -549.77,-94.2 -773.07,-238.2 -0.14,5.8 0,11.5 -0.14,17.3 -21.28,795.8 -683.62,1423.7 -1479.45,1402.3 -531.54,-14.1 -987.79,-314.5 -1226.1,-749.5 -141.81,72 -302.98,110.8 -473.21,106.2 -503.35,-13.5 -908.55,-401 -957.43,-889.3 -167.19,61.4 -348.44,93.1 -537.35,88.1 C 3581.14,1438.3 2955.92,787.5 2962.76,0 h 8382.14 c 12.4,84.8008 18.2,171.801 15.8,260.5" /><g
         transform="scale(1.3033)"
         id="g54"><path
           id="path56"
           style="fill:#ffffff;fill-opacity:1;fill-rule:nonzero;stroke:none"
           d="m 15480.2,14673.9 c -68.9,-13.5 -133.3,-36.9 -192.2,-68.4 -1.5,10 -3.1,20 -5,29.9 -75.1,384.7 -447.8,635.7 -832.6,560.7 -223.5,-43.7 -401.7,-187.9 -497.2,-376.4 -129,80.3 -287.4,114 -448.3,82.6 -246.3,-48 -429.9,-235.1 -485.7,-463.8 -71.5,12.8 -146.2,13.1 -221.6,-1.7 -284.8,-55.6 -483.3,-303.3 -487.2,-582.3 h 3967 c 20.1,89.4 22.6,184.2 3.9,279.9 -72.3,370.2 -430.9,611.7 -801.1,539.5" /></g><g
         transform="scale(1.14233)"
         id="g58"><path
           id="path60"
           style="fill:#ffffff;fill-opacity:1;fill-rule:nonzero;stroke:none"
           d="m 2514.42,15388.5 c 4.82,6.2 9.51,12.6 13.94,19.2 9.63,-11.7 19.87,-22.8 30.42,-33.5 -14.52,5.4 -29.38,10.1 -44.36,14.3 z m 1028.14,420.8 c -35.24,-6.9 -68.66,-17.8 -99.98,-32 -1.57,19.7 -4.11,39.5 -8.01,59.3 -54.71,280.4 -326.33,463.4 -606.73,408.7 -154.37,-30.2 -279.03,-126 -350.94,-252.9 -105.12,107 -260.07,160.8 -418.29,129.9 -192.08,-37.5 -332.9,-189 -366.05,-370.5 -59.86,10.3 -122.51,10.3 -185.63,-2 -205.95,-40.2 -358.76,-198.6 -401.81,-391.1 h 2976.1 c 0.45,30.8 -2.22,62.1 -8.35,93.5 -47.86,245.1 -285.27,404.9 -530.31,357.1" /></g><g
         transform="scale(1.29646)"
         id="g62"><path
           id="path64"
           style="fill:#ffffff;fill-opacity:1;fill-rule:nonzero;stroke:none"
           d="m 4994.56,15673 c 3.27,4.3 6.54,8.7 9.59,13.2 6.59,-8 13.65,-15.7 20.89,-23.1 -9.93,3.8 -20.22,7 -30.48,9.9 z m 707.22,289.4 c -24.22,-4.7 -47.23,-12.2 -68.76,-22 -1.09,13.6 -2.87,27.2 -5.5,40.8 -37.66,192.9 -224.51,318.8 -417.4,281.2 -106.18,-20.8 -191.92,-86.7 -241.39,-173.9 -72.31,73.5 -178.89,110.5 -287.75,89.3 -132.11,-25.8 -228.99,-130 -251.77,-254.9 -41.21,7.1 -84.25,7 -127.69,-1.4 -141.71,-27.7 -246.79,-136.6 -276.46,-269 h 2047.23 c 0.28,21.1 -1.49,42.7 -5.74,64.2 -32.88,168.7 -196.22,278.6 -364.77,245.7" /></g><path
         id="path66"
         style="fill:#f05a2a;fill-opacity:1;fill-rule:nonzero;stroke:none"
         d="m 11470.8,10490.3 c -585.8,-14.7 -1086.5,-674.7 -1074.6,-1144.1 11.9,-469.1 1160.5,-2245.1 1160.5,-2245.1 324.2,813.1 1056.8,1839.8 1045.2,2301 -11.7,461.3 -545.2,1103.1 -1131.1,1088.2" /><path
         id="path68"
         style="fill:#f8ec3a;fill-opacity:1;fill-rule:nonzero;stroke:none"
         d="m 11471.8,10456.3 c -478.8,-12 -888,-551.5 -878.3,-934.7 9.7,-383.7 948.3,-1835 948.3,-1835 265,664.5 863.9,1503.5 854.4,1880.4 -9.7,377.1 -445.7,901.5 -924.4,889.3" /><path
         id="path70"
         style="fill:#ffffff;fill-opacity:1;fill-rule:nonzero;stroke:none"
         d="m 11471.6,10460.3 c -369,-9.3 -684.1,-424.9 -676.7,-720.4 7.4,-295.5 730.8,-1413.8 730.8,-1413.8 204.1,512 665.5,1158.4 658.2,1449 -7.3,290.4 -343.3,694.5 -712.3,685.2" /><path
         id="path72"
         style="fill:#f05a2a;fill-opacity:1;fill-rule:nonzero;stroke:none"
         d="m 11027,10246.9 c -382.3,75.7 -803.4,-279.8 -864.1,-585.9 -60.6,-306.2 426.1,-1625.8 426.1,-1625.8 328.8,480.2 953.8,1039.7 1013.4,1340.8 59.6,300.9 -193.1,795.2 -575.4,870.9" /><path
         id="path74"
         style="fill:#f8ec3a;fill-opacity:1;fill-rule:nonzero;stroke:none"
         d="m 11022.5,10224.7 c -312.4,62 -656.5,-228.4 -706,-478.7 -49.6,-250.4 348.3,-1328.9 348.3,-1328.9 268.6,392.6 779.4,849.9 828,1095.9 48.8,246 -157.8,649.8 -470.3,711.7" /><path
         id="path76"
         style="fill:#ffffff;fill-opacity:1;fill-rule:nonzero;stroke:none"
         d="m 11023,10227.1 c -240.7,47.9 -505.8,-176 -544.1,-368.8 -38.2,-192.8 268.4,-1023.9 268.4,-1023.9 207.1,302.4 600.7,654.8 638.2,844.4 37.6,189.6 -121.6,500.9 -362.5,548.3" /><path
         id="path78"
         style="fill:#f05a2a;fill-opacity:1;fill-rule:nonzero;stroke:none"
         d="m 11201.9,10339.4 c -227.1,-98.6 -318.7,-436.5 -239.6,-618.2 79,-181.9 810.2,-695.4 810.2,-695.4 -1.9,369.7 122.5,887.9 44.8,1066.6 -77.7,178.8 -388.3,345.6 -615.4,247" /><path
         id="path80"
         style="fill:#f8ec3a;fill-opacity:1;fill-rule:nonzero;stroke:none"
         d="m 11207.6,10326.3 c -185.5,-80.5 -260.3,-356.7 -195.7,-505.4 64.5,-148.7 662,-568.3 662,-568.3 -1.3,302.3 100,725.7 36.7,871.9 -63.5,146.1 -317.4,282.3 -503,201.8" /><path
         id="path82"
         style="fill:#ffffff;fill-opacity:1;fill-rule:nonzero;stroke:none"
         d="m 11207,10327.7 c -143,-61.9 -200.6,-274.8 -150.9,-389.4 49.8,-114.3 510.2,-437.8 510.2,-437.8 -1.1,232.9 77.2,559.2 28.2,671.8 -48.9,112.6 -244.5,217.5 -387.5,155.4" /><path
         id="path84"
         style="fill:#c6421e;fill-opacity:1;fill-rule:nonzero;stroke:none"
         d="m 10003,13231.6 c 0,0 -721.74,-413.2 -1078.32,-1144.3 -452.6,-927.6 -572.16,-2348.6 -396.13,-2438.9 176.05,-90.5 388.92,592.9 743.97,993.6 587.2,662.7 1093.78,623.1 1093.78,623.1 l -363.3,1966.5" /><path
         id="path86"
         style="fill:#aa290b;fill-opacity:1;fill-rule:nonzero;stroke:none"
         d="m 12730,13231.6 c 0,0 721.6,-413.2 1078.3,-1144.3 452.6,-927.6 572.1,-2348.6 396.1,-2438.9 -176.1,-90.5 -388.9,592.9 -744,993.6 -587.2,662.7 -1093.7,623.1 -1093.7,623.1 l 363.3,1966.5" /><g
         transform="scale(1.08436)"
         id="g88"><path
           id="path90"
           style="fill:#2b2b38;fill-opacity:1;fill-rule:nonzero;stroke:none"
           d="m 11458.3,9325.88 c 74.5,231.1 575.5,1859.72 575.5,3882.92 0,1672.9 -966.2,2622.2 -1551.1,3091.2 -585.06,-469 -1551.21,-1418.3 -1551.21,-3091.2 0,-2023.2 500.99,-3651.82 575.6,-3882.92 h 1951.21" /></g><g
         transform="scale(1.14124)"
         id="g92"><path
           id="path94"
           style="fill:#ffffff;fill-opacity:1;fill-rule:nonzero;stroke:none"
           d="m 8094.22,13422.3 c 0,-2433.7 602.73,-3878.68 692.42,-4156.71 h 2346.96 c 89.9,278.03 692.5,1723.01 692.5,4156.71 0,1072.6 -330.2,2082.6 -745.2,2877.7 H 8839.39 c -414.95,-795.1 -745.17,-1805.1 -745.17,-2877.7" /></g><g
         transform="scale(1.24568)"
         id="g96"><path
           id="path98"
           style="fill:#c6421e;fill-opacity:1;fill-rule:nonzero;stroke:none"
           d="m 9125.14,16300 c -301.12,-241.4 -693.76,-728.3 -1026.83,-1366.6 h 2053.59 c -333.08,638.3 -725.72,1125.2 -1026.76,1366.6" /></g><g
         transform="scale(1.14124)"
         id="g100"><path
           id="path102"
           style="fill:#f0f1f1;fill-opacity:1;fill-rule:nonzero;stroke:none"
           d="M 11080.9,16300 H 9960.18 V 9265.59 h 1173.42 c 89.9,278.03 692.5,1723.01 692.5,4156.71 0,1072.6 -330.2,2082.6 -745.2,2877.7" /></g><g
         transform="scale(1.06748)"
         id="g104"><path
           id="path106"
           style="fill:#a5dcf0;fill-opacity:1;fill-rule:nonzero;stroke:none"
           d="m 10648.2,16300 c -474.6,0 -859.39,-384.8 -859.39,-859.4 0,-474.5 384.79,-859.3 859.39,-859.3 474.7,0 859.4,384.8 859.4,859.3 0,474.6 -384.7,859.4 -859.4,859.4" /></g><g
         transform="scale(1.08712)"
         id="g108"><path
           id="path110"
           style="fill:#2b2b38;fill-opacity:1;fill-rule:nonzero;stroke:none"
           d="m 11134.2,14772.7 c -212.2,-374.6 -687.9,-506.3 -1062.6,-293.9 -374.53,212.2 -506.16,688.2 -293.76,1062.6 212.3,374.6 687.96,506.1 1062.56,293.8 374.6,-212.2 506.2,-688 293.8,-1062.5 m 192.3,-109.1 c 272.5,480.8 103.7,1091.4 -377,1363.9 -480.8,272.5 -1091.45,103.7 -1364,-377.1 -272.46,-480.8 -103.58,-1091.3 377.14,-1363.9 480.86,-272.4 1091.46,-103.7 1363.86,377.1" /></g><g
         transform="scale(1.06289)"
         id="g112"><path
           id="path114"
           style="fill:#b9dfed;fill-opacity:1;fill-rule:nonzero;stroke:none"
           d="m 10693.5,14705 c -133.2,0 -268.1,33.4 -392.3,103.8 -383.09,217.1 -517.72,703.9 -300.5,1086.8 146.8,259 416.5,404.4 694.3,404.4 133.3,0 268.3,-33.4 392.5,-103.8 383.2,-217.1 517.7,-703.8 300.5,-1086.8 -146.8,-258.9 -416.6,-404.4 -694.5,-404.4 m 2.1,1489.6 c -144.2,0 -289.8,-43.8 -415.5,-134.8 -257.3,-186.3 -352.77,-513.1 -257.5,-799.2 0,0 245.7,309.3 468.7,470.6 216.2,156.5 628.5,323.3 628.5,323.3 -123.9,92.1 -273.3,140.1 -424.2,140.1" /></g><g
         transform="scale(1.06772)"
         id="g116"><path
           id="path118"
           style="fill:#63636d;fill-opacity:1;fill-rule:nonzero;stroke:none"
           d="m 10645.3,14565 c -145,0 -291.9,36.4 -427,112.9 -416.66,236.2 -563.05,765.5 -326.94,1182.3 159.64,281.6 453.34,439.8 755.44,439.8 145,0 291.8,-36.4 426.9,-112.9 416.7,-236.3 563.2,-765.5 326.9,-1182.4 -159.6,-281.7 -453.2,-439.7 -755.3,-439.7 m 1.4,1661.3 c -276.6,0 -545.1,-144.7 -691.18,-402.5 -216.26,-381.2 -82.24,-865.8 299.18,-1081.9 123.6,-70.1 257.9,-103.4 390.5,-103.4 276.6,0 545.2,144.9 691.3,402.6 216.3,381.3 82.3,865.8 -299.1,1081.9 -123.7,70 -258.1,103.3 -390.7,103.3" /></g><g
         transform="scale(1.05602)"
         id="g120"><path
           id="path122"
           style="fill:#dceff6;fill-opacity:1;fill-rule:nonzero;stroke:none"
           d="m 10087.9,15359.9 c -95.96,288 0.2,616.9 259.1,804.4 126.6,91.6 273.1,135.7 418.2,135.7 151.9,0 302.3,-48.3 427,-141 0,0 -415.1,-167.9 -632.7,-325.4 -224.4,-162.4 -471.6,-473.7 -471.6,-473.7" /></g><path
         id="path124"
         style="fill:#c6421e;fill-opacity:1;fill-rule:nonzero;stroke:none"
         d="m 11372.8,12904 h -1.3 c -180.7,0 -301.2,-280 -301.2,-655.4 0,-375.6 40.1,-2608.4 301.2,-2608.4 h 0.6 0.7 c 260.9,0 301,2232.8 301,2608.4 0,375.4 -120.3,655.4 -301,655.4" /><g
         transform="scale(1.24568)"
         id="g126"><path
           id="path128"
           style="fill:#aa290b;fill-opacity:1;fill-rule:nonzero;stroke:none"
           d="m 9124.98,14933.4 h 1026.92 c -333.08,638.3 -725.72,1125.2 -1026.76,1366.6 l -0.16,-0.1 v -1366.5" /></g><path
         id="path130"
         style="fill:#aa290b;fill-opacity:1;fill-rule:nonzero;stroke:none"
         d="m 11372.8,12904 h -0.7 V 9640.2 h 0.7 c 260.9,0 301,2232.8 301,2608.4 0,375.4 -120.3,655.4 -301,655.4" /></g></g></svg>