<svg xmlns="http://www.w3.org/2000/svg" xmlns:xlink="http://www.w3.org/1999/xlink" viewBox="0 0 24 22">
  <defs>
    <style>
      .cls-1 {
        clip-path: url(#clip-Artboard_2);
      }

      .cls-2 {
        fill: #2ecc71;
      }
    </style>
    <clipPath id="clip-Artboard_2">
      <rect width="24" height="22"/>
    </clipPath>
  </defs>
  <g id="Artboard_2" data-name="Artboard – 2" class="cls-1">
    <g id="telephone" transform="translate(3.994 3)">
      <g id="Group_9" data-name="Group 9" transform="translate(0.006)">
        <path id="Path_15" data-name="Path 15" class="cls-2" d="M12.885,55.717a1.187,1.187,0,0,0-1.794,0c-.419.416-.839.832-1.251,1.255a.247.247,0,0,1-.345.063c-.271-.148-.56-.268-.821-.43A13.014,13.014,0,0,1,5.535,53.75a7.433,7.433,0,0,1-1.125-1.8.258.258,0,0,1,.063-.331c.419-.405.828-.821,1.241-1.237a1.192,1.192,0,0,0,0-1.837c-.328-.331-.656-.656-.984-.987s-.673-.68-1.015-1.015a1.2,1.2,0,0,0-1.794,0C1.5,46.961,1.09,47.388.66,47.8a2.043,2.043,0,0,0-.642,1.378,5.84,5.84,0,0,0,.451,2.513A15.273,15.273,0,0,0,3.18,56.2,16.775,16.775,0,0,0,8.736,60.55a8.035,8.035,0,0,0,3.077.9,2.255,2.255,0,0,0,1.935-.737c.36-.4.765-.768,1.146-1.153A1.2,1.2,0,0,0,14.9,57.73Q13.9,56.72,12.885,55.717Z" transform="translate(-0.006 -44.511)"/>
        <path id="Path_16" data-name="Path 16" class="cls-2" d="M241.675,101.013l1.3-.222A5.839,5.839,0,0,0,238.037,96l-.183,1.308a4.512,4.512,0,0,1,3.821,3.7Z" transform="translate(-229.469 -92.616)"/>
        <path id="Path_17" data-name="Path 17" class="cls-2" d="M248.437,2.743A9.591,9.591,0,0,0,242.937,0l-.183,1.308a8.369,8.369,0,0,1,7.082,6.863l1.3-.222A9.661,9.661,0,0,0,248.437,2.743Z" transform="translate(-234.197)"/>
      </g>
    </g>
  </g>
</svg>
