<?xml version="1.0" encoding="utf-8"?>
<!-- Generator: Adobe Illustrator 22.1.0, SVG Export Plug-In . SVG Version: 6.00 Build 0)  -->
<svg version="1.1" id="Layer_1" xmlns="http://www.w3.org/2000/svg" xmlns:xlink="http://www.w3.org/1999/xlink" x="0px" y="0px"
	 viewBox="0 0 300 300" style="enable-background:new 0 0 300 300;" xml:space="preserve">
<style type="text/css">
	.st0{fill:#F79971;}
	.st1{fill:#DC8863;}
	.st2{fill:#F6885C;}
	.st3{fill:#2F9466;}
	.st4{fill:#3CBB7A;}
	.st5{fill:#F68457;}
	.st6{fill:#FFFFFF;}
	.st7{fill:#EC7C4F;}
	.st8{fill:#E2794D;}
	.st9{fill:#34A970;}
	.st10{fill:#DCDDDA;}
	.st11{fill:#FCD3C2;}
	.st12{fill:#F8A07A;}
	.st13{fill:#F57442;}
	.st14{fill:#FBC7B2;}
	.st15{fill:#C2C3C1;}
	.st16{fill:none;}
	.st17{fill:#DDB9A8;}
	.st18{fill:#E08A65;}
	.st19{fill:#C16139;}
	.st20{font-family:'Arial-ItalicMT';}
	.st21{font-size:2.0423px;}
	.st22{fill:#A2B0E0;}
	.st23{fill:#4C54AE;}
	.st24{fill:#E08F6E;}
	.st25{fill:#DDB09D;}
	.st26{fill:#E56A3A;}
	.st27{fill:#BFC8EA;}
	.st28{fill:#F6831E;}
	.st29{fill:#A8B5E2;}
	.st30{fill:#6379C5;}
	.st31{fill:#452217;}
	.st32{fill:#802B72;}
	.st33{fill:#5C2151;}
	.st34{fill:#6F2662;}
	.st35{fill:#4F1D46;}
	.st36{fill:#F36479;}
	.st37{fill:#E55B6C;}
	.st38{fill:#F57F92;}
	.st39{fill:#E27381;}
	.st40{fill:#902F81;}
	.st41{fill:#EF2F95;}
	.st42{fill:#E82886;}
	.st43{fill:#572A1C;}
	.st44{fill:#FCD8C8;}
	.st45{fill:#4C2419;}
	.st46{fill:#1F5B54;}
	.st47{fill:#53C5B0;}
	.st48{fill:#3FA392;}
	.st49{fill:#27326F;}
	.st50{fill:#474FAB;}
	.st51{fill:#45C0A6;}
	.st52{fill:#388F82;}
	.st53{fill:#BC5C34;}
	.st54{fill:#BF5D35;}
	.st55{fill:#D96638;}
	.st56{fill:#C0C1BF;}
	.st57{fill:#A85633;}
	.st58{fill:#485DB4;}
	.st59{fill:#4055AA;}
	.st60{fill:#FABDA1;}
	.st61{fill:#2E9465;}
	.st62{fill:#596EBF;}
	.st63{fill:#F9AB89;}
	.st64{fill:none;stroke:#FFFFFF;stroke-miterlimit:10;}
</style>
<path class="st0" d="M262.9,125.2c-5.7-12.9-13.5-24.6-23.1-34.7c-3.2-3.4-6.7-6.6-10.3-9.6C208.3,63,180.9,52.3,151,52.3
	c-27.3,0-52.5,8.9-72.8,24.1c-5.1,3.8-9.8,7.9-14.2,12.4h-3.5v1.8h1.8c-2,2.1-3.9,4.2-5.7,6.4c-0.1,0.1-0.2,0.2-0.2,0.3
	c-1.3,1.6-2.6,3.3-3.8,4.9h-1.8v1.8h0.5c-1.7,2.4-3.3,4.9-4.8,7.4c-7.6,12.5-13,26.5-15.6,41.4c-1.3,7.1-1.9,14.4-1.9,21.8
	c0,6.9,0.6,13.7,1.7,20.4c0.1,0.5,0.2,1,0.3,1.5c1.8,10.2,4.9,19.9,9.1,29.1c1.9,4.2,4.1,8.3,6.5,12.3v1.1c1.6,0.8,2.4,2.1,2.9,3.7
	h0.1c1,1.5,2,3,3.1,4.4c0.2,0.3,0.4,0.6,0.6,0.8c0.2,0.2,0.3,0.5,0.5,0.7c0.2,0.3,0.4,0.6,0.6,0.8c0.8,1,1.6,2,2.4,3l0.3,2.1
	c0.1,0,0.1,0.1,0.2,0.1c0.9,0.2,1.8,0.6,2.5,1.2c0.7,0.6,1.3,1.3,1.8,2.1c0.2,0.2,0.3,0.4,0.5,0.6c0,0,0,0,0,0c0,0,0,0,0,0
	c0,0,0,0.1,0,0.1c0.1,0.2,0.2,0.3,0.3,0.5c0.1,0.1,0.2,0.2,0.3,0.3c0,0,0.1,0,0.1,0.1h0.4c0.2,0.2,0.4,0.5,0.7,0.7l0.2,0.2
	c0,0,0,0,0,0c0.1,0.1,0.1,0.1,0.2,0.2c0,0,0,0.1-0.1,0.1c0.2,0.2,0.5,0.5,0.7,0.7c0,0,0.1,0,0.1-0.1c0.3,0.3,0.7,0.7,1,1
	c-0.1,0.1-0.1,0.1-0.2,0.2c0.1,0.1,0.2,0.3,0.3,0.4c0.3,0.3,0.5,0.6,0.7,0.9l0.6-0.1c0.3,0.3,0.6,0.5,0.9,0.8l-0.9,0.2l0,0
	c0.4,0,0.7,0,1.1,0c0.4,0.4,0.9,0.8,1.3,1.2c0.1,0.1,0.2,0.2,0.3,0.3l0,0c1,0.9,2.1,1.8,3.1,2.7c1.7,1.4,3.5,2.8,5.3,4.2
	c-0.1,0.2-0.1,0.3-0.2,0.5c0.9,0.3,1.6,0.9,2.2,1.6c0-0.1,0.1-0.3,0.1-0.4h0.2c2,1.4,4,2.8,6.1,4c-0.1,0-0.2,0-0.4,0
	c0.1,0,0.3,0,0.4,0c14.7,9.1,31.5,15.2,49.6,17.4h29.6c22.6-2.7,43.2-11.6,60.3-24.9c0.5-0.4,1-0.8,1.5-1.2c0.2,0,0.4,0,0.6,0
	c0.4-0.5,0.8-0.9,1.3-1.2c0.2-0.2,0.5-0.3,0.7-0.4l0.1-0.6c2.4-2,4.7-4.1,6.9-6.3c0.4-0.4,0.7-0.7,1.1-1.1h0.6
	c0.1-0.1,0.2-0.2,0.3-0.2c0.1-0.5,0.3-0.9,0.6-1.2c0.3-0.5,0.7-1,1.2-1.4c0.8-0.9,1.6-1.8,2.4-2.7c0.4-0.4,0.8-0.9,1.1-1.3
	c0.1-0.1,0.1-0.2,0.2-0.3v0c0.5-0.6,1-1.2,1.4-1.7c0.3-0.4,0.7-0.8,1-1.3c0.3-0.4,0.6-0.8,0.9-1.1c2.5-3.2,4.8-6.6,6.9-10h0.1
	c0.3-0.5,0.7-1,1.2-1.4l-0.1-0.6c0.4-0.8,0.9-1.5,1.3-2.3c0,0,0-0.1,0-0.1c0.1-0.2,0.2-0.4,0.3-0.5v0c2-3.7,3.9-7.5,5.6-11.4
	c0.1-0.2,0.2-0.4,0.3-0.6c0.6-1.5,1.2-3,1.8-4.5c0.9-2.4,1.8-4.9,2.5-7.4c0.1-0.2,0.1-0.4,0.2-0.6c0.7-2.3,1.3-4.7,1.9-7
	c0,0,0,0,0,0c0.1-0.7,0.3-1.3,0.4-2c0,0,0,0,0,0c0.6-2.9,1.2-5.9,1.6-8.9c0.8-5.6,1.2-11.3,1.2-17.1
	C273.2,157,269.5,140.3,262.9,125.2z"/>
<path class="st1" d="M227.5,269.9c-0.5,0.4-1,0.8-1.5,1.2c-0.8-0.1-1.3-0.3-1.3-0.5C224.8,270.3,225.9,270,227.5,269.9z"/>
<path id="path22" class="st1" d="M204.5,268.1c0,1-24.1,1.7-53.8,1.7s-53.8-0.8-53.8-1.7c0-1,24.1-1.7,53.8-1.7
	S204.5,267.2,204.5,268.1L204.5,268.1z"/>
<path class="st1" d="M107.2,262.4L107.2,262.4c-1.8-0.4-6.3-0.7-12.6-1c-0.7,0-1.4,0-2.1-0.1c-0.2,0-0.4,0-0.6,0
	c-0.7,0-1.5,0-2.2-0.1c-0.7,0-1.3,0-2-0.1c-0.7,0-1.3,0-2,0c-0.2,0-0.4,0-0.6,0c-1,0-2,0-3-0.1c-2.9-0.1-5.9-0.1-9.1-0.1
	c-1.3,0-2.5,0-3.9,0c-0.3,0-0.6,0-1,0H68c-0.6,0-1.2,0-1.8,0h-0.3c0,0,0,0,0,0c-0.5,0-1,0-1.5,0h-0.2c0.2,0.2,0.3,0.3,0.4,0.5
	c0,0,0.1,0,0.1-0.1c0.3,0.3,0.7,0.7,1,1c-0.1,0.1-0.1,0.1-0.2,0.2c0.1,0.1,0.2,0.3,0.3,0.4c0.3,0.3,0.5,0.6,0.7,0.9l0.6-0.1
	c0.3,0.3,0.6,0.5,0.9,0.8l-0.9,0.2l0,0c0.4,0,0.7,0,1.1,0c1.6,0,3.2,0,4.8,0c2.8,0,5.5-0.1,8.1-0.1c0.9,0,1.8,0,2.6-0.1
	c0.2,0,0.4,0,0.7,0h0c0.7,0,1.3,0,1.9,0c1,0,2.1-0.1,3-0.1c0.7,0,1.4,0,2.1-0.1h0c0.2,0,0.4,0,0.6,0c0.7,0,1.3,0,1.9-0.1
	c6.2-0.3,10.7-0.6,12.8-0.9h0c0.9-0.1,1.4-0.3,1.4-0.5C108.1,262.6,107.8,262.5,107.2,262.4z"/>
<path class="st2" d="M255,239c0.3-0.5,0.7-1,1.2-1.4l-0.1-0.6c0.4-0.8,0.9-1.5,1.3-2.3c0,0,0-0.1,0-0.1c0.1-0.2,0.2-0.4,0.3-0.5v0
	c2-3.7,3.9-7.5,5.6-11.4c0.1-0.2,0.2-0.4,0.3-0.6c0.6-1.5,1.2-3,1.8-4.5c0.9-2.4,1.8-4.9,2.5-7.4c0.1-0.2,0.1-0.4,0.2-0.6
	c0.7-2.3,1.3-4.7,1.9-7c0,0,0,0,0,0c0.1-0.7,0.3-1.3,0.4-2c0,0,0,0,0,0c0.6-2.9,1.2-5.9,1.6-8.9c0.8-5.6,1.2-11.3,1.2-17.1
	c0-17.6-3.7-34.3-10.4-49.3c-4.6,7.8-8.9,18.3-13,28.8c-0.8,2.1-1.7,4.2-2.5,6.3c-0.7,1.7-1.3,3.3-2,5c-0.5,1.2-1,2.5-1.5,3.7
	c-0.4,1-0.8,2-1.3,3c-0.7,1.6-1.3,3.1-2,4.6c-0.2,0.4-0.4,0.8-0.6,1.3v0c-0.1,0.2-0.2,0.3-0.2,0.5v0c-0.3,0.6-0.5,1.2-0.8,1.7
	c-0.1,0.1-0.1,0.2-0.2,0.3c-0.7,1.4-1.3,2.7-2,3.9c-0.8,1.6-1.7,3-2.5,4.4v0c-0.1,0.1-0.1,0.2-0.2,0.3c-0.2,0.3-0.4,0.6-0.6,0.9
	c-2.7,4.1-5.6,6.7-8.5,7.1c-2.1,0.3-4.3,0-6.5-0.9c-0.4-0.1-0.7-0.3-1.1-0.4c-1.9-0.8-3.9-2-5.9-3.3c-0.6-0.4-1.2-0.8-1.8-1.3
	c-3.8-2.8-7.7-6.4-11.8-9.9c-1.9-1.7-3.8-3.3-5.8-4.9c-0.5-0.4-1-0.9-1.6-1.3c-5.5-4.3-11.3-7.9-17.2-9.2c-0.3-0.1-0.6-0.1-0.9-0.2
	c-0.4-0.1-0.7-0.1-1.1-0.2c-0.3,0-0.6-0.1-0.9-0.1c-0.6,0-1.2-0.1-1.8-0.1c-1.7,0-3.3,0.2-5,0.7c-0.8,0.2-1.5,0.4-2.3,0.7
	c-4.2,1.6-7.5,4.6-10.2,8.3c-0.3,0.4-0.6,0.8-0.9,1.3c-1.4,2.1-2.6,4.4-3.7,6.8c-0.1,0.2-0.2,0.4-0.3,0.6c-1.1,2.4-2.1,4.9-3,7.5
	c-0.2,0.4-0.3,0.8-0.5,1.3c-0.2,0.5-0.3,0.9-0.5,1.4c-0.1,0.2-0.1,0.4-0.2,0.6c-0.7,2-1.4,3.9-2,5.9c-0.2,0.4-0.3,0.9-0.5,1.3
	c-0.8,2.2-1.5,4.4-2.4,6.5c-0.1,0.2-0.2,0.4-0.2,0.6c-0.8,2.1-1.7,4.1-2.7,6c-0.1,0.2-0.2,0.4-0.3,0.6c-0.4,0.8-0.9,1.6-1.3,2.4
	c0,0,0,0.1-0.1,0.1c-0.1,0.2-0.2,0.3-0.3,0.5c0,0,0,0,0,0c-0.4,0.6-0.8,1.2-1.2,1.7v0c-0.2,0.3-0.4,0.5-0.6,0.8c0,0,0,0.1-0.1,0.1
	c-0.4,0.4-0.7,0.9-1.1,1.3c-1.4,1.5-2.9,2.8-4.6,3.8c-2.8,1.6-6.1,2.4-10,2.1c-0.8,0-1.5-0.1-2.3-0.2c-2.1-0.2-4.1-0.5-6-0.8
	c-0.3,0-0.6-0.1-0.9-0.2c0,0,0,0,0,0c-0.6-0.1-1.2-0.2-1.8-0.3c-0.7-0.1-1.4-0.3-2-0.4h0c-1.5-0.3-2.9-0.7-4.2-1.1
	c-2.3-0.6-4.5-1.4-6.4-2.1h0c0,0,0,0,0,0c-1.3-0.5-2.5-1-3.7-1.5c-1.8-0.8-3.6-1.5-5.3-2.3c-0.2-0.1-0.4-0.2-0.6-0.3c0,0,0,0,0,0
	c-0.2-0.1-0.4-0.2-0.6-0.3c0,0,0,0,0,0c-0.2-0.1-0.5-0.2-0.7-0.3c0,0,0,0,0,0c-0.3-0.1-0.6-0.3-0.9-0.4c-0.7-0.3-1.5-0.6-2.2-0.9
	c-4.1-1.6-8.2-2.8-13-3c-1,0-2,0-3,0c-1.2,0-2.5,0.3-3.9,0.7c-3.4,1-7.2,3.1-11.2,5.9c0,0-0.1,0-0.1,0.1c-2.1,1.4-4.3,3-6.4,4.8
	c1.9,4.2,4.1,8.3,6.5,12.3v1.1c1.6,0.8,2.4,2.1,2.9,3.7h0.1c1,1.5,2,3,3.1,4.4c0.2,0.3,0.4,0.6,0.6,0.8c0.2,0.2,0.3,0.5,0.5,0.7
	c0.2,0.3,0.4,0.6,0.6,0.8c0.8,1,1.6,2,2.4,3l0.3,2.1c0.1,0,0.1,0.1,0.2,0.1c0.9,0.2,1.8,0.6,2.5,1.2c0.7,0.6,1.3,1.3,1.8,2.1
	c0.2,0.2,0.3,0.4,0.5,0.6c0,0,0,0,0,0c0,0,0,0,0,0c0,0,0,0.1,0,0.1c0.1,0.2,0.2,0.3,0.3,0.5c0.1,0.1,0.2,0.2,0.3,0.3
	c0,0,0.1,0,0.1,0.1h0.4c0.2,0.2,0.4,0.5,0.7,0.7l0.2,0.2h175.3c0.1-0.1,0.1-0.1,0.2-0.2c0.1-0.4,0.3-0.9,0.5-1.2
	c0.3-0.5,0.7-1,1.2-1.4c0.8-0.9,1.6-1.8,2.4-2.7c0.4-0.4,0.8-0.9,1.1-1.3c0.1-0.1,0.1-0.2,0.2-0.3v0c0.5-0.6,1-1.2,1.4-1.7
	c0.3-0.4,0.7-0.8,1-1.3c0.3-0.4,0.6-0.8,0.9-1.1C250.4,245.8,252.8,242.5,255,239L255,239z"/>
<path class="st3" d="M255,239c0.3-0.5,0.7-1,1.2-1.4l-0.1-0.6c0.4-0.8,0.9-1.5,1.3-2.3c0,0,0-0.1,0-0.1c0.1-0.2,0.2-0.4,0.3-0.5v0
	c2-3.7,3.9-7.5,5.6-11.4c0.1-0.2,0.2-0.4,0.3-0.6c0.6-1.5,1.2-3,1.8-4.5c0-3.4-0.1-6.8-0.3-10.1c0-0.3,0-0.6,0-0.9
	c-0.2-3.6-0.5-7.2-0.8-10.4c-1.2-10.4-3.4-18.3-7.2-19.9c-0.3-0.1-0.7-0.2-1-0.3c-0.6-0.1-1.2-0.1-1.8,0h0c-2.5,0.3-4.4,1.9-6,4.2
	c-1.7,2.5-3,5.9-4.3,9.5c-0.2,0.5-0.3,1-0.5,1.5v0c-0.2,0.6-0.4,1.2-0.6,1.8c-0.3,0.8-0.5,1.6-0.8,2.3c0,0,0,0,0,0v0
	c-0.5,1.4-0.9,2.7-1.4,4v0c-0.8,2.1-1.7,4.1-2.8,5.7c-0.3,0.4-0.5,0.8-0.8,1.1c-0.8,1.1-1.7,2-2.7,2.6c-0.2,0.1-0.4,0.3-0.6,0.4
	c-1.1,0.6-2.4,0.9-3.8,0.9c-4.3-0.1-8-1.2-11.2-2.4c-0.4-0.1-0.7-0.3-1.1-0.4c-5.4-2.1-9.4-4-12.5-0.7c-0.3,0.3-0.5,0.6-0.7,0.9
	c-0.3,0.3-0.5,0.7-0.7,1.2c-0.2,0.3-0.3,0.6-0.5,0.9c-0.2,0.4-0.4,0.8-0.5,1.2c-0.7,1.6-1.2,3.3-1.8,4.8c-0.3,1-0.6,1.9-0.9,2.8
	c-0.2,0.8-0.5,1.5-0.7,2.2c-0.1,0.4-0.3,0.9-0.4,1.3c-2.6,7.8-5.3,13-13.8,10.3c-3.4-1.1-7.3,0.6-11.1,3.5c-1.8,1.4-3.5,3-5.2,4.8
	c-1.1,1.2-2.2,2.4-3.2,3.7c-1,1.2-2,2.5-2.9,3.7c-4.8,6.3-8.1,12-8.1,12h84.6c0,0,0,0,0.1,0c0.1-0.4,0.3-0.9,0.5-1.2
	c0.3-0.5,0.7-1,1.2-1.4c0.8-0.9,1.6-1.8,2.4-2.7c0.4-0.4,0.8-0.9,1.1-1.3c0.1-0.1,0.1-0.2,0.2-0.3v0c0.5-0.6,1-1.2,1.4-1.7
	c0.3-0.4,0.7-0.8,1-1.3c0.3-0.4,0.6-0.8,0.9-1.1C250.4,245.8,252.8,242.5,255,239L255,239z"/>
<path class="st4" d="M255,239c0.3-0.5,0.7-1,1.2-1.4l-0.1-0.6c0.4-0.8,0.9-1.5,1.3-2.3c0,0,0-0.1,0-0.1c0.1-0.2,0.2-0.4,0.3-0.5v0
	c2-3.7,3.9-7.5,5.6-11.4c0.1-0.2,0.2-0.4,0.3-0.6c0.6-1.5,1.2-3,1.8-4.5c0.9-2.4,1.8-4.9,2.5-7.4c0.1-0.2,0.1-0.4,0.2-0.6
	c0.7-2.3,1.3-4.7,1.9-7c0,0,0,0,0,0c0.1-0.7,0.3-1.3,0.4-2c0,0,0,0,0,0c0.6-2.9,1.2-5.9,1.6-8.9c-0.6-0.4-1.3-0.6-2.1-0.5
	c-2.3,0.1-4.1,2.1-5.7,5.1c-2.5,4.8-4.6,11.9-7.3,17.1c-0.1,0.3-0.3,0.5-0.4,0.8c-0.3,0.5-0.5,0.9-0.8,1.3v0
	c-0.4,0.7-0.9,1.3-1.3,1.9c-0.9,1.1-1.9,1.9-3,2.4c-0.9,0.4-1.8,0.6-2.7,0.7c-0.5,0-1,0-1.5,0c-1.1-0.1-2.2-0.3-3.3-0.6
	c-0.7-0.2-1.5-0.4-2.2-0.7c-0.5-0.2-1-0.3-1.5-0.5c-0.1,0-0.2-0.1-0.3-0.1c-1-0.4-2-0.7-2.9-1c-0.8-0.3-1.6-0.5-2.4-0.6
	c-0.1,0-0.2,0-0.3-0.1c-0.2,0-0.4-0.1-0.6-0.1c-0.2,0-0.4,0-0.6-0.1c-2.3-0.2-4.3,0.5-5.8,3c-2.7,4.5-2.8,11-3.7,16.2
	c-0.7,4.6-2,8.1-6.3,8c-4.3-0.1-9.6-0.9-14,0.5c-4.8,1.5-8.7,5.5-9,15.8c0,0,0,0.1,0,0.2h44.5c0.1-0.1,0.1-0.1,0.2-0.2
	c0.1-0.4,0.3-0.9,0.5-1.2c0.3-0.5,0.7-1,1.2-1.4c0.8-0.9,1.6-1.8,2.4-2.7c0.4-0.4,0.8-0.9,1.1-1.3c0.1-0.1,0.1-0.2,0.2-0.3v0
	c0.5-0.6,1-1.2,1.4-1.7c0.3-0.4,0.7-0.8,1-1.3c0.3-0.4,0.6-0.8,0.9-1.1C250.4,245.8,252.8,242.5,255,239L255,239z"/>
<polygon class="st4" points="301,231.4 300.6,231.8 300.5,231.8 300.5,231 "/>
<path class="st3" d="M270.5,200.6c-0.1,0.7-0.3,1.3-0.4,2c0-0.5-0.1-0.9-0.1-1.3c0-0.5-0.1-0.8-0.1-0.8l0.6,0
	C270.4,200.5,270.4,200.5,270.5,200.6C270.5,200.6,270.5,200.6,270.5,200.6z"/>
<polygon class="st3" points="301,231.4 300.6,231.8 300.5,231.8 300.5,231 "/>
<polygon class="st3" points="301,231.4 300.6,231.8 300.5,231.8 300.5,231 "/>
<path class="st3" d="M265.1,206.7l3.1,3c-0.1,0.2-0.1,0.4-0.2,0.6l-2.8-2.7l-1.4-1.4l0.4-0.4L265.1,206.7z"/>
<path class="st3" d="M263.6,222.1c-0.1,0.2-0.2,0.4-0.3,0.6l-3.4-3.3l0.4-0.4L263.6,222.1z"/>
<path class="st3" d="M257.4,233.7l0.4,0.4v0c-0.1,0.2-0.2,0.4-0.3,0.5l-0.1-0.1l-1.2-1l0.4-0.4L257.4,233.7z"/>
<path class="st3" d="M239.5,254.2c0,0.2,0,0.4,0.1,0.7c0.1,1.2,0.2,2.5,0.3,3.7c0,0,0,0,0,0c0.2-0.3,0.3-0.5,0.6-0.7
	c-0.1-1.5-0.2-3-0.4-4.5c0-0.3-0.1-0.6-0.1-0.9c-0.1-0.8-0.2-1.5-0.3-2.3c0-0.4-0.1-0.8-0.1-1.1c-0.2-1.6-0.5-3.2-0.7-4.8
	c0-0.3-0.1-0.6-0.2-1c-0.1-0.3-0.1-0.7-0.2-1c-0.2-1.1-0.4-2.1-0.6-3.2c-0.1-0.4-0.1-0.8-0.2-1.1c-0.2-0.9-0.4-1.7-0.6-2.6
	c-0.3-1.1-0.5-2.2-0.8-3.3c-0.1-0.3-0.2-0.7-0.3-1c-0.3-1-0.5-2.1-0.8-3.1c-0.1-0.4-0.2-0.8-0.3-1.2c-0.2-0.5-0.3-1-0.5-1.5
	c-0.1-0.2-0.1-0.4-0.2-0.6l-0.2,0.1l-0.2,0.1l-0.2,0c0,0,0.1,0.2,0.2,0.5c0,0.1,0.1,0.2,0.1,0.3c0,0.1,0,0.1,0.1,0.2v0
	c0.1,0.3,0.2,0.6,0.3,0.9c0.1,0.2,0.1,0.4,0.2,0.6s0.1,0.4,0.2,0.6c0.6,1.9,1.1,3.8,1.5,5.8c0.1,0.3,0.1,0.5,0.2,0.8
	c0.1,0.5,0.2,0.9,0.3,1.3c0.2,0.7,0.3,1.4,0.5,2.1c0.1,0.4,0.2,0.8,0.2,1.1c0.4,1.7,0.7,3.5,1,5.2c0,0.2,0.1,0.4,0.1,0.5
	c0,0.2,0.1,0.5,0.1,0.7c0.2,1.2,0.4,2.4,0.5,3.6c0,0.4,0.1,0.7,0.1,1.1C239.2,251.5,239.3,252.9,239.5,254.2z"/>
<path id="path58" class="st3" d="M237.7,226.2l-2.1,5.7l0.6,0.2l2.1-5.7L237.7,226.2z"/>
<path id="path60" class="st3" d="M244.7,229l-6.7,14l0.5,0.3l6.7-14L244.7,229z"/>
<path id="path62" class="st3" d="M246.6,241.4l-7.1,11.8l0.5,0.3l7.1-11.8L246.6,241.4z"/>
<path id="path64" class="st3" d="M231,231.9l5.3,2.7l0.3-0.5l-5.3-2.7L231,231.9z"/>
<path id="path66" class="st3" d="M228.1,240.4l10.4,5.2l0.3-0.5l-10.4-5.2L228.1,240.4z"/>
<path id="path68" class="st3" d="M230.4,251.3l9.4,3.6l0.2-0.6l-9.4-3.6L230.4,251.3z"/>
<path class="st5" d="M82.7,147V76.4h-4.5c-5.1,3.8-9.8,7.9-14.2,12.4h-3.5v1.8h1.8c-2,2.1-3.9,4.2-5.7,6.4c-0.1,0.1-0.2,0.2-0.2,0.3
	c-1.3,1.6-2.6,3.3-3.8,4.9h-1.8v1.8h0.5c-1.7,2.4-3.3,4.9-4.8,7.4c-7.6,12.5-13,26.5-15.6,41.4v43.6c1.8,10.2,4.9,19.9,9.1,29.1
	c1.9,4.2,4.1,8.3,6.5,12.3v1.1c1.6,0.8,2.4,2.1,2.9,3.7h0.1c1,1.5,2,3,3.1,4.4c0.2,0.3,0.4,0.6,0.6,0.8c0.2,0.2,0.3,0.5,0.5,0.7
	c0.2,0.3,0.4,0.6,0.6,0.8c0.8,1,1.6,2,2.4,3l0.3,2.1c0.1,0,0.1,0.1,0.2,0.1c0.9,0.2,1.8,0.6,2.5,1.2c0.7,0.6,1.3,1.3,1.8,2.1
	c0.2,0.2,0.3,0.4,0.5,0.6c0,0,0,0,0,0c0,0,0,0,0,0c0,0,0,0.1,0,0.1c0.1,0.2,0.2,0.3,0.3,0.5c0.1,0.1,0.2,0.2,0.3,0.3
	c0,0,0.1,0,0.1,0.1h0.4c0.2,0.2,0.4,0.5,0.7,0.7l0.2,0.2c0,0,0,0,0,0h71.1V147H82.7z"/>
<rect x="60.3" y="88.8" class="st6" width="5.8" height="1.8"/>
<path id="path80" class="st6" d="M75.9,90.6h-5.8v-1.8h5.8V90.6L75.9,90.6z"/>
<path class="st6" d="M56.5,97v0.3h-0.2C56.3,97.2,56.4,97.1,56.5,97z"/>
<path id="path84" class="st6" d="M66.2,97.3h-5.8v-1.8h5.8V97.3L66.2,97.3z"/>
<path id="path86" class="st6" d="M75.9,97.3h-5.8v-1.8h5.8V97.3L75.9,97.3z"/>
<rect x="50.6" y="102.2" class="st6" width="5.8" height="1.8"/>
<path id="path90" class="st6" d="M66.2,104h-5.8v-1.8h5.8V104L66.2,104z"/>
<path id="path92" class="st6" d="M75.9,104h-5.8v-1.8h5.8V104L75.9,104z"/>
<path id="path94" class="st6" d="M56.5,110.7h-5.8v-1.8h5.8V110.7L56.5,110.7z"/>
<path id="path96" class="st6" d="M66.2,110.7h-5.8v-1.8h5.8V110.7L66.2,110.7z"/>
<path id="path98" class="st6" d="M75.9,110.7h-5.8v-1.8h5.8V110.7L75.9,110.7z"/>
<path class="st7" d="M46.3,111.4v126.4c-2.4-3.9-4.6-8.1-6.5-12.3c-4.2-9.1-7.3-18.9-9.1-29.1v-43.6
	C33.3,137.9,38.7,123.9,46.3,111.4z"/>
<path class="st4" d="M106.3,260C106.3,260,106.3,260,106.3,260c-0.1-0.1-0.1-0.2-0.1-0.2c0,0,0-0.1-0.1-0.1
	c-0.3-0.5-0.5-0.9-0.8-1.4c-0.5-0.8-0.9-1.5-1.4-2.2c-0.1-0.2-0.3-0.4-0.4-0.6c-0.1-0.2-0.3-0.4-0.4-0.6c-0.2-0.3-0.4-0.6-0.6-0.9
	c0,0-0.1-0.1-0.1-0.2c-0.3-0.4-0.6-0.8-0.9-1.2c-1.9-2.6-4.2-5.6-6.7-8.2c0,0,0,0,0,0c0,0-0.1-0.1-0.1-0.1c-1.3-1.4-2.7-2.6-4.1-3.7
	c0,0,0,0,0,0s0,0,0,0c-0.5-0.4-1-0.7-1.6-1.1c0,0,0,0,0,0c-0.5-0.3-1-0.6-1.5-0.8c-1.1-0.5-2.1-0.8-3.1-0.8c-0.2,0-0.4,0-0.6,0
	c-0.5,0-1,0.1-1.5,0.3c-1.2,0.4-2.3,0.6-3.2,0.6c-2.3,0-3.9-1.1-5.1-2.9c-2.2-3.3-3.3-8.9-5.6-14.6c-1.1-2.7-2.4-4-3.8-4.5
	c-1.9-0.6-4.2,0.3-6.9,1.3h0v0c-0.1,0-0.2,0.1-0.3,0.1c-0.2,0.1-0.3,0.1-0.5,0.2c-0.2,0.1-0.3,0.1-0.5,0.2c-0.1,0-0.1,0-0.2,0.1
	c-0.1,0-0.2,0.1-0.3,0.1c0,0,0,0,0,0c-0.1,0-0.2,0.1-0.3,0.1c-0.1,0-0.1,0-0.2,0.1c-0.2,0.1-0.4,0.1-0.6,0.2
	c-0.9,0.3-1.8,0.6-2.7,0.8l-0.1,0c-0.1,0-0.1,0-0.2,0c-1.5,0.4-3.1,0.6-4.9,0.7c-0.2,0-0.3,0-0.5,0c0,0-0.1,0-0.1,0
	c-5.1-0.4-7.3-6.9-9.5-13.5c-1.6-4.9-3.3-9.8-6-12.1c-0.1-0.1-0.2-0.1-0.3-0.2c0.1,0.5,0.2,1,0.3,1.5c1.8,10.2,4.9,19.9,9.1,29.1
	c1.9,4.2,4.1,8.3,6.5,12.3v1.1c1.6,0.8,2.4,2.1,2.9,3.7h0.1c1,1.5,2,3,3.1,4.4c0.2,0.3,0.4,0.6,0.6,0.8c0.2,0.2,0.3,0.5,0.5,0.7
	c0.2,0.3,0.4,0.6,0.6,0.8c0.8,1,1.6,2,2.4,3l0.3,2.1c0.1,0,0.1,0.1,0.2,0.1c0.9,0.2,1.8,0.6,2.5,1.2c0.7,0.6,1.3,1.3,1.8,2.1
	c0.2,0.2,0.3,0.4,0.5,0.6c0,0,0,0,0,0c0,0,0,0,0,0c0,0,0,0.1,0,0.1c0.1,0.2,0.2,0.3,0.3,0.5c0.1,0.1,0.2,0.2,0.3,0.3
	c0,0,0.1,0,0.1,0.1h0.4c0.2,0.2,0.4,0.5,0.7,0.7L106.3,260C106.3,260,106.3,260,106.3,260L106.3,260z"/>
<path id="path104" class="st8" d="M51.6,220.1L51.6,220.1c2-0.5,4-1.2,5.9-2l0,0C55.6,218.9,53.6,219.5,51.6,220.1L51.6,220.1z"/>
<path id="path106" class="st9" d="M57.5,218L57.5,218c-0.1,0-0.2,0.1-0.3,0.1c-0.2,0.1-0.3,0.1-0.5,0.2c-0.2,0.1-0.3,0.1-0.5,0.2
	c-0.1,0-0.1,0-0.2,0.1c-0.1,0-0.2,0.1-0.3,0.1c0,0,0,0,0,0c-0.1,0-0.2,0.1-0.3,0.1c0,0,0,0,0,0c-0.1,0-0.1,0-0.2,0.1c0,0,0,0,0,0
	c-0.2,0.1-0.4,0.1-0.5,0.2c-0.2,0-0.3,0.1-0.5,0.1c-0.5,0.2-1,0.3-1.6,0.5c-0.3,0.1-0.6,0.2-1,0.3v21.4h5.9L57.5,218L57.5,218z
	 M81.4,244.4c0-0.1,0-0.1-0.1-0.2v0H63.5v2.5l3.1-0.5v0l1.9,11.2h0v0l0.3,1.9h4.1v0.7h9.4c0-0.1,0.1-0.3,0.1-0.4c0,0,0-0.1,0-0.1
	c0.2-0.6,0.4-1.2,0.6-1.8c0.1-0.2,0.1-0.4,0.2-0.6c0-0.1,0-0.1,0.1-0.2c0.4-1.2,1-2.4,1.6-3.6c0,0,0,0,0,0S82.2,246.6,81.4,244.4z
	 M90.7,253.3L90.7,253.3L90.7,253.3l-0.6-1.1l0,0c0,0.6,0.1,1,0.1,1.3c-0.1,0.8-0.3,1.7-0.5,2.5c0,0.1-0.1,0.2-0.1,0.3
	c-0.3,1.3-0.8,2.5-1.4,3.7c0,0,0,0.1,0,0.1h1.8v0c0.1-0.9,0.3-1.7,0.5-2.5c0.1-0.4,0.2-0.8,0.3-1.1c0.1-0.4,0.3-0.8,0.4-1.2
	c0.1-0.1,0.1-0.3,0.2-0.4c0,0,0,0,0,0c0-0.1,0.1-0.1,0.1-0.2L90.7,253.3z M95.5,258c-0.1,0.5-0.2,1-0.4,1.5c0,0.2-0.1,0.4-0.1,0.5
	h11.3c0,0,0,0,0,0c0-0.1-0.1-0.1-0.1-0.2c0,0,0-0.1-0.1-0.1c-0.3-0.5-0.5-0.9-0.8-1.4c-0.5-0.8-0.9-1.5-1.4-2.2
	c-0.1-0.2-0.3-0.4-0.4-0.6c-0.1-0.2-0.3-0.4-0.4-0.6c-0.2-0.3-0.4-0.6-0.6-0.9c0,0-0.1-0.1-0.1-0.2c-0.3-0.4-0.6-0.8-0.9-1.2
	c-2.1-2.8-4.3-5.6-6.7-8.2c0,0,0,0,0,0c0,0,0-0.1-0.1-0.1h-2.2c0.1,0.1,0.1,0.2,0.2,0.4c0.2,0.5,0.5,0.9,0.7,1.3
	c0.2,0.4,0.5,0.9,0.7,1.3c0.3,0.6,0.6,1.2,0.9,1.8c0.1,0.3,0.3,0.5,0.4,0.8c0.2,0.4,0.3,0.7,0.5,1c0.1,0.2,0.2,0.4,0.3,0.6
	c0.1,0.1,0.1,0.2,0.1,0.3c0,0.1,0.1,0.2,0.1,0.3c0.1,0.3,0.1,0.7,0.1,1.2c0,0.1,0,0.2,0,0.3C96.2,254.6,95.9,256.2,95.5,258z"/>
<path id="path108" class="st6" d="M197.1,268.1c-7.8-18.7-26.1-30.9-46.4-30.9c-20.3,0-38.6,12.2-46.4,30.9H197.1L197.1,268.1z"/>
<path id="path110" class="st10" d="M181.7,248h-62.1c1.7-1.4,3.5-2.6,5.4-3.7h51.2C178.2,245.4,180,246.6,181.7,248L181.7,248z"/>
<path id="path112" class="st6" d="M57.5,244.3h186.4V115.6H57.5V244.3z"/>
<path id="path114" class="st11" d="M64.4,235.8H237V128.7H64.4V235.8z"/>
<path id="path116" class="st12" d="M64.4,235.8h42.4V128.7H64.4V235.8z"/>
<path id="path118" class="st0" d="M64.4,138.3H237v-9.6H64.4V138.3z"/>
<path id="path120" class="st13" d="M106.8,138.3H64.4v-9.6h42.4L106.8,138.3L106.8,138.3z"/>
<path id="path122" class="st10" d="M152.3,122.5c0,0.9-0.7,1.6-1.6,1.6c-0.9,0-1.6-0.7-1.6-1.6c0-0.9,0.7-1.6,1.6-1.6
	C151.6,120.9,152.3,121.6,152.3,122.5L152.3,122.5z"/>
<path id="path124" class="st6" d="M72.6,131.6h-5.5V131h5.5V131.6L72.6,131.6z"/>
<path id="path126" class="st6" d="M72.6,132.9h-5.5v-0.6h5.5V132.9L72.6,132.9z"/>
<path id="path128" class="st6" d="M72.6,134.2h-5.5v-0.6h5.5V134.2L72.6,134.2z"/>
<path id="path130" class="st14" d="M218.8,176.1h-97.4v-29.8h97.4L218.8,176.1L218.8,176.1z"/>
<path id="path132" class="st0" d="M150.1,174.8h-29.8V145h29.8V174.8L150.1,174.8z"/>
<path id="path134" class="st13" d="M147.1,171.9v-0.3h-23.6v-23.3h23.3v23.6L147.1,171.9L147.1,171.9l0.3,0v-24.2h-24.5v24.5h24.5
	v-0.3L147.1,171.9L147.1,171.9z"/>
<path id="path136" class="st13" d="M123,148.2l23.9,23.9l0.4-0.4l-23.9-23.9L123,148.2z"/>
<path id="path138" class="st13" d="M123.4,172.1l23.9-23.9l-0.4-0.4L123,171.7L123.4,172.1z"/>
<path id="path140" class="st6" d="M217.7,174.8h-67.6V145h67.6L217.7,174.8L217.7,174.8z"/>
<path id="path142" class="st10" d="M213.9,172.6h-15v-2.8h15L213.9,172.6L213.9,172.6z"/>
<path id="path144" class="st15" d="M173.6,152.1h-22.3v-5.1h22.3V152.1L173.6,152.1z"/>
<path id="path146" class="st15" d="M181.8,158.6h-30.5v-5.1h30.5L181.8,158.6L181.8,158.6z"/>
<path id="path148" class="st10" d="M213.9,161.6h-62.6v-0.9h62.6L213.9,161.6L213.9,161.6z"/>
<path id="path150" class="st10" d="M213.9,163.7h-62.6v-0.9h62.6L213.9,163.7L213.9,163.7z"/>
<path id="path152" class="st10" d="M169,165.8h-17.7v-0.9H169V165.8L169,165.8z"/>
<path id="path154" class="st10" d="M171.7,165.8h-0.9v-0.9h0.9V165.8L171.7,165.8z"/>
<path id="path156" class="st10" d="M173.7,165.8h-0.9v-0.9h0.9V165.8L173.7,165.8z"/>
<path id="path158" class="st10" d="M175.6,165.8h-0.9v-0.9h0.9V165.8L175.6,165.8z"/>
<path id="path160" class="st10" d="M177.6,165.8h-0.9v-0.9h0.9L177.6,165.8L177.6,165.8z"/>
<path id="path162" class="st14" d="M121.4,222h97.4v-29.8h-97.4V222z"/>
<path id="path164" class="st0" d="M120.3,220.7h29.8v-29.8h-29.8V220.7z"/>
<path id="path166" class="st13" d="M147.1,217.7v-0.3h-23.6v-23.3h23.3v23.6L147.1,217.7L147.1,217.7l0.3,0v-24.2h-24.5V218h24.5
	v-0.3L147.1,217.7L147.1,217.7z"/>
<path id="path168" class="st13" d="M123,194l23.9,23.9l0.4-0.4l-23.9-23.9L123,194L123,194z"/>
<path id="path170" class="st13" d="M123.4,217.9l23.9-23.9l-0.4-0.4L123,217.5L123.4,217.9L123.4,217.9z"/>
<path id="path172" class="st6" d="M217.7,220.7h-67.6v-29.8h67.6L217.7,220.7L217.7,220.7z"/>
<path id="path174" class="st10" d="M213.9,218.5h-15v-2.8h15L213.9,218.5L213.9,218.5z"/>
<path id="path176" class="st15" d="M173.6,198h-22.3v-5.1h22.3V198L173.6,198z"/>
<path id="path178" class="st15" d="M181.8,204.5h-30.5v-5.1h30.5L181.8,204.5L181.8,204.5z"/>
<path id="path180" class="st10" d="M213.9,207.5h-62.6v-0.9h62.6L213.9,207.5L213.9,207.5z"/>
<path id="path182" class="st10" d="M213.9,209.6h-62.6v-0.9h62.6L213.9,209.6L213.9,209.6z"/>
<path id="path184" class="st10" d="M169,211.6h-17.7v-0.9H169V211.6L169,211.6z"/>
<path id="path186" class="st10" d="M171.7,211.6h-0.9v-0.9h0.9V211.6L171.7,211.6z"/>
<path id="path188" class="st10" d="M173.7,211.6h-0.9v-0.9h0.9V211.6L173.7,211.6z"/>
<path id="path190" class="st10" d="M175.6,211.6h-0.9v-0.9h0.9V211.6L175.6,211.6z"/>
<path id="path192" class="st10" d="M177.6,211.6h-0.9v-0.9h0.9L177.6,211.6L177.6,211.6z"/>
<path id="path194" class="st14" d="M233.7,232.9h0.6v-91.9h-0.6V232.9z"/>
<path id="path196" class="st6" d="M234,175.6L234,175.6c-0.4,0-0.8-0.4-0.8-0.8v-30.5c0-0.4,0.4-0.8,0.8-0.8c0.4,0,0.8,0.4,0.8,0.8
	v30.5C234.8,175.2,234.4,175.6,234,175.6L234,175.6z"/>
<path id="path198" class="st14" d="M192.1,182.8l-1.6,1.5c-0.4,0.4-0.9,0.6-1.4,0.5c-0.5,0-1-0.2-1.4-0.5l-0.2,0.2l0.2-0.2l0,0l0,0
	l0,0c-0.5-0.5-1.2-0.7-1.8-0.7c-0.7,0-1.3,0.3-1.8,0.7l0,0l0,0l0.2,0.2l-0.2-0.2c-0.4,0.4-0.9,0.6-1.4,0.5c-0.5,0-1-0.2-1.4-0.5
	l-0.2,0.2l0.2-0.2l0,0l0,0l0,0c-0.5-0.5-1.2-0.7-1.8-0.7c-0.7,0-1.3,0.3-1.8,0.7l0,0l0,0l0.2,0.2l-0.2-0.2c-0.4,0.4-0.9,0.6-1.4,0.5
	c-0.5,0-1-0.2-1.4-0.5l-0.2,0.2l0.2-0.2l0,0l0,0l0,0c-0.5-0.5-1.2-0.7-1.8-0.7c-0.7,0-1.3,0.3-1.8,0.7l0,0l0,0l0.2,0.2l-0.2-0.2
	c-0.4,0.4-0.9,0.6-1.4,0.5c-0.5,0-1-0.2-1.4-0.5l-0.2,0.2l0.2-0.2l0,0l0,0l0,0c-0.5-0.5-1.2-0.7-1.8-0.7c-0.7,0-1.3,0.3-1.8,0.7l0,0
	l0,0l0.2,0.2l-0.2-0.2c-0.4,0.4-0.9,0.6-1.4,0.5c-0.5,0-1-0.2-1.4-0.5l-0.2,0.2l0.2-0.2l0,0l0,0l0,0c-0.5-0.5-1.2-0.7-1.8-0.7
	c-0.7,0-1.3,0.3-1.8,0.7l0,0l0,0l0.2,0.2l-0.2-0.2c-0.4,0.4-0.9,0.6-1.4,0.5c-0.5,0-1-0.2-1.4-0.5l-0.2,0.2l0.2-0.2l0,0l0,0l0,0
	c-0.5-0.5-1.2-0.7-1.8-0.7c-0.7,0-1.3,0.3-1.8,0.7l-0.1,0.1v0.1h0.3l-0.2-0.2c-0.4,0.4-0.9,0.6-1.4,0.5c-0.5,0-1-0.2-1.4-0.5
	l-1.6-1.5l-0.4,0.4l1.6,1.5c0.5,0.5,1.2,0.7,1.8,0.7c0.7,0,1.3-0.3,1.8-0.7l0.1-0.1v-0.1h-0.3l0.2,0.2c0.4-0.4,0.9-0.6,1.4-0.5
	c0.5,0,1,0.2,1.4,0.5l0.2-0.2l-0.2,0.2l0,0l0,0l0,0c0.5,0.5,1.2,0.7,1.8,0.7c0.7,0,1.3-0.3,1.8-0.7l0,0l0,0l-0.2-0.2l0.2,0.2
	c0.4-0.4,0.9-0.6,1.4-0.5c0.5,0,1,0.2,1.4,0.5l0.2-0.2l-0.2,0.2l0,0l0,0l0,0c0.5,0.5,1.2,0.7,1.8,0.7c0.7,0,1.3-0.3,1.8-0.7l0,0l0,0
	l-0.2-0.2l0.2,0.2c0.4-0.4,0.9-0.6,1.4-0.5c0.5,0,1,0.2,1.4,0.5l0.2-0.2l-0.2,0.2l0,0l0,0l0,0c0.5,0.5,1.2,0.7,1.8,0.7
	c0.7,0,1.3-0.3,1.8-0.7l0,0l0,0l-0.2-0.2l0.2,0.2c0.4-0.4,0.9-0.6,1.4-0.5c0.5,0,1,0.2,1.4,0.5l0.2-0.2l-0.2,0.2l0,0l0,0l0,0
	c0.5,0.5,1.2,0.7,1.8,0.7c0.7,0,1.3-0.3,1.8-0.7l0,0l0,0l-0.2-0.2l0.2,0.2c0.4-0.4,0.9-0.6,1.4-0.5c0.5,0,1,0.2,1.4,0.5l0.2-0.2
	l-0.2,0.2l0,0l0,0l0,0c0.5,0.5,1.2,0.7,1.8,0.7c0.7,0,1.3-0.3,1.8-0.7l0,0l0,0l-0.2-0.2l0.2,0.2c0.4-0.4,0.9-0.6,1.4-0.5
	c0.5,0,1,0.2,1.4,0.5l0.2-0.2l-0.2,0.2l0,0l0,0l0,0c0.5,0.5,1.2,0.7,1.8,0.7c0.7,0,1.3-0.3,1.8-0.7l1.6-1.5L192.1,182.8L192.1,182.8
	z"/>
<path id="path200" class="st14" d="M192.1,228.6l-1.6,1.5c-0.4,0.4-0.9,0.6-1.4,0.5c-0.5,0-1-0.2-1.4-0.5l-0.2,0.2l0.2-0.2l0,0l0,0
	l0,0c-0.5-0.5-1.2-0.7-1.8-0.7c-0.7,0-1.3,0.3-1.8,0.7l0,0l0,0l0.2,0.2l-0.2-0.2c-0.4,0.4-0.9,0.6-1.4,0.5c-0.5,0-1-0.2-1.4-0.5
	l-0.2,0.2l0.2-0.2l0,0l0,0l0,0c-0.5-0.5-1.2-0.7-1.8-0.7c-0.7,0-1.3,0.3-1.8,0.7l0,0l0,0l0.2,0.2l-0.2-0.2c-0.4,0.4-0.9,0.6-1.4,0.5
	c-0.5,0-1-0.2-1.4-0.5l-0.2,0.2l0.2-0.2l0,0l0,0l0,0c-0.5-0.5-1.2-0.7-1.8-0.7c-0.7,0-1.3,0.3-1.8,0.7l0,0l0,0l0.2,0.2l-0.2-0.2
	c-0.4,0.4-0.9,0.6-1.4,0.5c-0.5,0-1-0.2-1.4-0.5l-0.2,0.2l0.2-0.2l0,0l0,0l0,0c-0.5-0.5-1.2-0.7-1.8-0.7c-0.7,0-1.3,0.3-1.8,0.7l0,0
	l0,0l0.2,0.2l-0.2-0.2c-0.4,0.4-0.9,0.6-1.4,0.5c-0.5,0-1-0.2-1.4-0.5l-0.2,0.2l0.2-0.2l0,0l0,0l0,0c-0.5-0.5-1.2-0.7-1.8-0.7
	c-0.7,0-1.3,0.3-1.8,0.7l0,0l0,0l0.2,0.2l-0.2-0.2c-0.4,0.4-0.9,0.6-1.4,0.5c-0.5,0-1-0.2-1.4-0.5l-0.2,0.2l0.2-0.2l0,0l0,0l0,0
	c-0.5-0.5-1.2-0.7-1.8-0.7c-0.7,0-1.3,0.3-1.8,0.7l-0.1,0.1v0.1h0.3l-0.2-0.2c-0.4,0.4-0.9,0.6-1.4,0.5c-0.5,0-1-0.2-1.4-0.5
	l-1.6-1.5l-0.4,0.4l1.6,1.5c0.5,0.5,1.2,0.7,1.8,0.7c0.7,0,1.3-0.3,1.8-0.7l0.1-0.1v-0.1h-0.3l0.2,0.2c0.4-0.4,0.9-0.6,1.4-0.5
	c0.5,0,1,0.2,1.4,0.5l0.2-0.2l-0.2,0.2l0,0l0,0l0,0c0.5,0.5,1.2,0.7,1.8,0.7c0.7,0,1.4-0.2,1.9-0.7l0,0l0,0l-0.2-0.2l0.2,0.2
	c0.4-0.4,0.9-0.6,1.4-0.5c0.5,0,1,0.2,1.4,0.5l0.2-0.2l-0.2,0.2l0,0l0,0l0,0c0.5,0.5,1.2,0.7,1.8,0.7c0.7,0,1.3-0.3,1.8-0.7l0,0l0,0
	l-0.2-0.2l0.2,0.2c0.4-0.4,0.9-0.6,1.4-0.5c0.5,0,1,0.2,1.4,0.5l0.2-0.2l-0.2,0.2l0,0l0,0l0,0c0.5,0.5,1.2,0.7,1.8,0.7
	c0.7,0,1.3-0.3,1.8-0.7l0,0l0,0l-0.2-0.2l0.2,0.2c0.4-0.4,0.9-0.6,1.4-0.5c0.5,0,1,0.2,1.4,0.5l0.2-0.2l-0.2,0.2l0,0l0,0l0,0
	c0.5,0.5,1.2,0.7,1.8,0.7c0.7,0,1.3-0.3,1.8-0.7l0,0l0,0l-0.2-0.2l0.2,0.2c0.4-0.4,0.9-0.6,1.4-0.5c0.5,0,1,0.2,1.4,0.5l0.2-0.2
	l-0.2,0.2l0,0l0,0l0,0c0.5,0.5,1.2,0.7,1.8,0.7c0.7,0,1.3-0.3,1.8-0.7l0,0l0,0l-0.2-0.2l0.2,0.2c0.4-0.4,0.9-0.6,1.4-0.5
	c0.5,0,1,0.2,1.4,0.5l0.2-0.2l-0.2,0.2l0,0l0,0l0,0c0.5,0.5,1.2,0.7,1.8,0.7c0.7,0,1.3-0.3,1.8-0.7l1.6-1.5L192.1,228.6L192.1,228.6
	z"/>
<path id="path202" class="st14" d="M232.3,133.8c0.1-0.1,0.1-0.2,0.2-0.3c0.3-0.6,0.2-1.4-0.3-1.9c-0.7-0.7-1.8-0.7-2.4,0
	c-0.5,0.5-0.6,1.3-0.3,1.9c0.1,0.2,0.2,0.3,0.3,0.5c0.6,0.6,1.6,0.7,2.2,0.1l1.7,1.7l0.3-0.3L232.3,133.8z M231.8,133.7
	c-0.5,0.5-1.3,0.5-1.8,0c0,0-0.1-0.1-0.1-0.2c-0.4-0.5-0.3-1.2,0.1-1.6c0.5-0.5,1.3-0.5,1.8,0c0.4,0.4,0.5,1.1,0.1,1.6
	C231.9,133.6,231.9,133.6,231.8,133.7z"/>
<path id="path204" class="st14" d="M74.8,148.7c0,1.3-1.1,2.4-2.4,2.4h0c-1.3,0-2.4-1.1-2.4-2.4l0,0c0-1.3,1.1-2.4,2.4-2.4h0
	C73.7,146.3,74.8,147.4,74.8,148.7L74.8,148.7L74.8,148.7z"/>
<path id="path206" class="st14" d="M99,149.5H77.5v-1.6H99V149.5L99,149.5z"/>
<path id="path208" class="st14" d="M74.8,158.5c0,1.3-1.1,2.4-2.4,2.4h0c-1.3,0-2.4-1.1-2.4-2.4l0,0c0-1.3,1.1-2.4,2.4-2.4h0
	C73.7,156.1,74.8,157.2,74.8,158.5L74.8,158.5L74.8,158.5z"/>
<path id="path210" class="st14" d="M99,159.3H77.5v-1.6H99V159.3L99,159.3z"/>
<path id="path212" class="st14" d="M74.8,168.3c0,1.3-1.1,2.4-2.4,2.4h0c-1.3,0-2.4-1.1-2.4-2.4l0,0c0-1.3,1.1-2.4,2.4-2.4h0
	C73.7,165.9,74.8,167,74.8,168.3L74.8,168.3L74.8,168.3z"/>
<path id="path214" class="st14" d="M99,169.1H77.5v-1.6H99V169.1L99,169.1z"/>
<path id="path216" class="st14" d="M74.8,178.1c0,1.3-1.1,2.4-2.4,2.4h0c-1.3,0-2.4-1.1-2.4-2.4l0,0c0-1.3,1.1-2.4,2.4-2.4h0
	C73.7,175.7,74.8,176.7,74.8,178.1L74.8,178.1L74.8,178.1z"/>
<path id="path218" class="st14" d="M99,178.9H77.5v-1.6H99V178.9L99,178.9z"/>
<path id="path220" class="st14" d="M74.8,187.8c0,1.3-1.1,2.4-2.4,2.4h0c-1.3,0-2.4-1.1-2.4-2.4l0,0c0-1.3,1.1-2.4,2.4-2.4h0
	C73.7,185.5,74.8,186.5,74.8,187.8L74.8,187.8L74.8,187.8z"/>
<path id="path222" class="st14" d="M99,188.7H77.5V187H99V188.7L99,188.7z"/>
<path id="path224" class="st14" d="M74.8,197.6c0,1.3-1.1,2.4-2.4,2.4h0c-1.3,0-2.4-1.1-2.4-2.4l0,0c0-1.3,1.1-2.4,2.4-2.4h0
	C73.7,195.2,74.8,196.3,74.8,197.6L74.8,197.6L74.8,197.6z"/>
<path id="path226" class="st14" d="M99,198.4H77.5v-1.6H99V198.4L99,198.4z"/>
<path id="path228" class="st13" d="M172.7,135.9h-44.1v-4.8h44.1V135.9L172.7,135.9z"/>
<path id="path230" class="st16" d="M245,138l-0.1-0.1c0.1,0,0.1-0.1,0.2-0.1C245,137.8,245,137.9,245,138"/>
<path id="path232" class="st10" d="M237.8,138.4H237v1.3h0.9C237.8,139.3,237.7,138.8,237.8,138.4z M238.3,138.4L238.3,138.4
	c-0.2,0.4-0.3,0.8-0.3,1.3h0.1l1.1-1.3H238.3z"/>
<path id="path234" class="st17" d="M213.5,138.9l-0.5-0.5h0v0c0,0,0,0-0.1,0c-0.1,0-0.1,0-0.2,0c-0.1,0-0.3,0-0.4-0.1c0,0,0,0,0,0
	c0,0,0,0,0,0h-2.2c0.4,0.9,1.3,1.4,2.2,1.4h2L213.5,138.9z M218.8,138.4c0.1,0.2,0.1,0.4,0.2,0.6c0.1,0.2,0.1,0.4,0.2,0.7H237v-1.3
	H218.8z"/>
<path id="path236" class="st18" d="M212.4,138.3h-2.2c-0.1-0.3-0.2-0.7-0.2-1l0,0c0-0.7,0.3-1.3,0.8-1.8c0,0.2-0.1,0.3-0.1,0.5
	C210.7,137,211.4,138,212.4,138.3L212.4,138.3z"/>
<path id="path238" class="st19" d="M243.4,138.4h-30.3c-1.3,0-2.4-1.1-2.4-2.4c0,0,0,0,0,0c0-1.3,1.1-2.4,2.4-2.4c0,0,0,0,0,0h30.3
	c1.3,0,2.4,1.1,2.4,2.4S244.8,138.4,243.4,138.4L243.4,138.4z"/>
<text transform="matrix(1 0 0 1 223.2986 157.3593)" class="st0 st20 st21">search</text>
<path id="path246" class="st22" d="M257.4,181.9l-1.8,22.4c-0.1,1.3-1.3,2.3-2.6,2.2l0,0c-1.3-0.1-2.3-1.3-2.2-2.6l1.8-22.4
	c0.1-1.3,1.3-2.3,2.6-2.2C256.5,179.4,257.5,180.6,257.4,181.9L257.4,181.9z"/>
<text transform="matrix(8.152107e-02 -0.9967 0.9967 8.152107e-02 233.6308 197.5755)" class="st23 st20 st21">sear</text>
<text transform="matrix(8.152107e-02 -0.9967 0.9967 8.152107e-02 235.6651 197.7404)" class="st23 st20 st21">ch</text>
<path id="path274" class="st17" d="M107.1,235.6l-0.3-2v-28.1l13.4-1.8v16.8h1.1v1.3h14l1.3,9.8L107.1,235.6L107.1,235.6z"/>
<path id="path276" class="st24" d="M106.8,233.7l-1.6-11.9c0.5-0.5,0.9-1,0.5-1h0c-0.2,0-0.4,0.1-0.6,0.2l-1.9-14.8l3.6-0.5
	L106.8,233.7L106.8,233.7z"/>
<path id="path278" class="st25" d="M135.4,222h-14v-1.3h13.8L135.4,222L135.4,222z"/>
<path id="path280" class="st18" d="M133,204L133,204l-1.6-1.6l-0.3,0l-1.7,0.2l-5.8,0.8V217l9.9-9.9v0L133,204z M134.5,215.1
	l-0.9-7.2l-1.5,1.5l-6.8,6.8l-1.3,1.3h10.8L134.5,215.1z M134.8,218L134.8,218l-11.9,0v-14.5h0l-1.5,0.2l-1.1,0.1v16.8h14.9
	L134.8,218z"/>
<path id="path282" class="st26" d="M134.8,218h-11.9v-14.5l0.6-0.1V217l-0.5,0.5l0.4,0.4l0.5-0.5h10.8L134.8,218L134.8,218z"/>
<path id="path284" class="st18" d="M132.9,203.1l-0.8-0.8l0.7-0.1L132.9,203.1L132.9,203.1z"/>
<path id="path286" class="st26" d="M133,204l-1.6-1.6l0.7-0.1l0.8,0.8L133,204L133,204z"/>
<path id="path288" class="st26" d="M123.4,217.9l-0.4-0.4l0.5-0.5l9.9-9.9l0.1,0.7l-9.6,9.6L123.4,217.9L123.4,217.9z"/>
<path id="path290" class="st6" d="M130.8,200.5l3.9,29.5l-29.5,3.9l-3.9-29.5L130.8,200.5L130.8,200.5z"/>
<path id="path292" class="st27" d="M129.3,202.5l3.4,26.1l-26.1,3.4l-3.4-26.1L129.3,202.5L129.3,202.5z"/>
<path id="path294" class="st28" d="M129,212.3c0.4,2.8-1.6,5.4-4.4,5.8c-2.8,0.4-5.4-1.6-5.8-4.4c-0.4-2.8,1.6-5.4,4.4-5.8
	C126.1,207.5,128.7,209.5,129,212.3L129,212.3z"/>
<path id="path296" class="st29" d="M131.8,221.2l1,7.6l-23.1,3l13.4-17.4L131.8,221.2L131.8,221.2z"/>
<path id="path298" class="st30" d="M129.7,229.2l-23.1,3l-1.4-10.5l5.5-7.1l7.6,5.8L129.7,229.2L129.7,229.2z"/>
<path id="path300" class="st31" d="M94.2,204.8c1,1.5,1.3,3.3,0.9,5c-0.6,1.8-1.9,2.6-2.3,4.2c-0.4,1.7,0.9,7.5-2.1,7.6
	s-2.3-6.9-2.3-6.9l2.1-9.2L94.2,204.8L94.2,204.8z"/>
<path id="path302" class="st32" d="M88.3,236.6c0,0,6.9,12.8,7.9,15.4s-4.7,18.6-4.4,20.8c0.2,2.2,5,2.7,4.9,3.8
	c-0.1,0.7-2.4,0.4-4.5,0.2c-1.1-0.2-2.2-0.2-3.3-0.2c-1.6,0.2-2.5-0.6-1.9-1.9c0.7-1.7,1.4-3.5,1.9-5.3c0.3-1.5,0.4-10.3,2.6-14.8
	L85.1,244L88.3,236.6L88.3,236.6z"/>
<path id="path304" class="st33" d="M88.5,245l0.2,0.3c0.4,0.6,1.5,2.1,2.5,3.8c0.5,0.8,0.9,1.6,1.3,2.4c0.3,0.6,0.5,1.2,0.6,1.8v0.1
	c-0.1,1.3-0.2,2.6-0.5,3.9c-0.4,2.7-1.1,6.4-1.7,9.4c-0.3,1.5-0.6,3-0.9,4.1c-0.2,0.8-0.4,1.5-0.6,2.2l0.6,0.2
	c0.2-0.4,0.3-0.9,0.4-1.3c0.5-2.1,1.3-6.2,2-10c0.3-1.9,0.6-3.8,0.9-5.3c0.2-1.1,0.3-2.2,0.4-3.3v-0.1c-0.1-0.8-0.4-1.7-0.8-2.4
	c-1.1-2.2-2.4-4.2-3.8-6.2L88.5,245L88.5,245L88.5,245z"/>
<path id="path306" class="st34" d="M90.6,240.8c0-0.1-0.1-0.1-0.1-0.2c0,0,0,0,0,0s0,0,0,0c-0.1-0.1-0.1-0.3-0.2-0.4
	c-0.1-0.2-0.2-0.4-0.3-0.5c-0.1-0.2-0.2-0.4-0.3-0.5s-0.2-0.3-0.3-0.5c-0.1-0.2-0.2-0.4-0.3-0.6c-0.1-0.1-0.2-0.3-0.2-0.4
	c-0.1-0.1-0.1-0.2-0.2-0.3v0l0,0c0,0.1,0,0.1,0,0.2c0,0.3,0,0.6,0.1,0.8c0,0.3,0,0.6,0.1,0.9c0,0.1,0,0.2,0,0.3c0,0,0,0,0,0
	c0,0.4,0.1,0.8,0.1,1.2c0.1,0.8,0.1,1.6,0.2,2.4c0,0.4,0.1,0.8,0.1,1.2c0,0.3,0.1,0.7,0.1,1v0c0,0,0,0,0,0v0h0v0
	c0.1,0.1,0.1,0.2,0.2,0.3c0,0,0,0.1,0.1,0.1c0,0.1,0.1,0.1,0.2,0.2c0.1,0.2,0.2,0.3,0.3,0.5c0.1,0.2,0.3,0.4,0.4,0.7
	c0,0.1,0.1,0.1,0.1,0.2v0l0-3l0-3C90.8,241.1,90.7,240.9,90.6,240.8z M90.4,247.9C90.4,247.9,90.4,247.8,90.4,247.9
	c-0.3-0.6-0.6-1-0.9-1.4h0c0,0.1,0,0.3,0,0.4c0,0.2,0,0.5,0.1,0.7c0,0.3,0.1,0.6,0.1,0.9c0,0.2,0,0.5,0.1,0.7
	c0.1,0.8,0.1,1.5,0.2,2.1c0,0.3,0.1,0.6,0.1,0.9v0l0.6,1l0.1-4.8C90.7,248.2,90.5,248.1,90.4,247.9z"/>
<path id="path308" class="st35" d="M90.8,248.4c-0.4-0.7-0.9-1.4-1.2-1.9c0-0.4-0.1-0.8-0.1-1.2c0.3,0.5,0.8,1.2,1.4,2L90.8,248.4
	L90.8,248.4z"/>
<path id="path310" class="st36" d="M90.4,222.9l2.6,3.1c0,0,8-1.4,8.9-2.3c0.9-0.9,2.9-2.9,3.9-2.9c1,0-1.9,2-1.8,2.7
	c0,0.6,0.2,1.9,0.2,1.9l-11.7,4.4l-4.1-4.3L90.4,222.9L90.4,222.9z"/>
<path id="path312" class="st16" d="M92.3,225.2l-1-1.2l0,0L92.3,225.2"/>
<path id="path314" class="st37" d="M91,228.2l-1.1-1.1c0.6-1.2,1.1-2.3,1.3-3.1l1,1.2L91,228.2L91,228.2z"/>
<path id="path316" class="st38" d="M93.1,207.1l0.6,3.9h-1c0,0-0.6,4.1-3,3.3l-0.3,1.6l-2.8-0.1l1.8-5.4L93.1,207.1L93.1,207.1z"/>
<path id="path318" class="st39" d="M89.5,215.3l-1.9-0.3c0.5-1,0.9-2.1,1.2-3.2c0.1,0,0.2-0.1,0.3-0.1c-0.2,1.2,0.5,2.3,1.7,2.5
	c0,0,0.1,0,0.1,0c-0.2,0.1-0.4,0.2-0.7,0.2c-0.2,0-0.4,0-0.6-0.1L89.5,215.3L89.5,215.3z"/>
<path class="st40" d="M91.4,222.8c0-0.4-0.1-0.8-0.3-1.3c-0.2-0.6-0.4-1.2-0.6-1.8c0-0.1-0.1-0.2-0.1-0.3c-0.2-0.4-0.3-0.7-0.3-1
	c-0.2-1-0.2-2.1,0-3.1l-0.5-0.1l-1.1-0.2l-0.8-0.1l0,0l-0.1,0h-5.6c0,0-0.3,1.7-0.7,3.6c0,0,0,0.1,0,0.1c-0.2,1.2-0.5,2.4-0.6,3.4
	c0,0,0,0,0,0.1c0,0.1,0,0.2-0.1,0.3c0,0.1-0.1,0.3-0.1,0.4c0,0,0,0.1,0,0.1c0,0.1,0,0.1,0,0.2c0,0.1,0,0.1,0,0.2
	c-0.4,1.8,0.3,3.9,0.1,6.2c0,0.2,0,0.3-0.1,0.5c0,0.2-0.1,0.3-0.1,0.5c0,0.1,0,0.1,0,0.2c-0.5,1.7-1.4,3.2-1.4,5.2
	c0,0.1,0,0.3,0,0.5c0,0.9,0.1,1.7,0.3,2.4c0.5,2.4,1.7,4,2.4,5.6l0,0c0,0.1,0,0.1,0.1,0.2c0.8,2.1,3.4,9,3.4,9
	c-0.5,0.9-1.1,2.1-1.6,3.6c0,0,0,0.1-0.1,0.2c-0.1,0.2-0.1,0.4-0.2,0.6c-0.2,0.6-0.4,1.2-0.6,1.8c0,0,0,0.1,0,0.1
	c0,0.1-0.1,0.3-0.1,0.4c0,0,0,0,0,0c0,0,0,0.1,0,0.2c0,0,0,0,0,0c-0.1,0.3-0.2,0.5-0.2,0.8c-0.3,1.2-0.6,2.3-0.9,3.4
	c-0.6,2.4-1.2,4.5-1.5,5.5c-0.3,1-0.8,2-1.3,3c-0.1,0.2-0.1,0.3-0.2,0.5c0.9,0.3,1.6,0.9,2.2,1.6c0-0.1,0.1-0.3,0.1-0.4h0.2
	c2,1.4,4,2.8,6.1,4c0.1,0,0.2,0,0.3,0c0.1,0,0.2,0,0.3,0c0.2,0,0.3-0.1,0.4-0.2c0.1-0.1,0.1-0.1,0.1-0.2c0-0.1,0-0.2-0.1-0.3
	c0,0-0.1-0.1-0.1-0.1c0,0-0.1-0.1-0.2-0.1c-0.2-0.1-0.4-0.2-0.6-0.4c-0.1-0.1-0.3-0.1-0.4-0.2c-0.1,0-0.2-0.1-0.3-0.2
	c-0.1,0-0.2-0.1-0.3-0.1c-0.1,0-0.2-0.1-0.3-0.1c-0.2-0.1-0.4-0.2-0.6-0.3c-0.1,0-0.3-0.1-0.4-0.2c-0.1,0-0.2-0.1-0.3-0.2
	c-0.2-0.1-0.4-0.2-0.6-0.3c0,0,0,0,0,0c-0.1-0.1-0.3-0.1-0.4-0.2c-0.1,0-0.1-0.1-0.2-0.2c-0.1-0.1-0.2-0.2-0.3-0.3
	c-0.2-0.2-0.3-0.4-0.3-0.5c0-0.1,0-0.1,0-0.2c0.1-0.8,2.2-5.3,4.3-10c0.5-1.1,0.9-2.1,1.4-3.2c0.1-0.3,0.3-0.6,0.4-1v0
	c0,0,0.1-0.1,0.1-0.2v0c0,0,0-0.1,0-0.1c0.5-1.4,1-2.6,1.4-3.7c0-0.1,0-0.2,0.1-0.3c0.4-1.1,0.6-2,0.5-2.5c0-0.3-0.1-0.7-0.1-1.3
	c0,0,0,0,0,0v0c0-0.3,0-0.6-0.1-0.9c-0.1-0.6-0.1-1.3-0.2-2.1c0-0.2,0-0.4-0.1-0.7c0-0.3-0.1-0.6-0.1-0.9c0-0.2,0-0.5-0.1-0.7
	c0-0.1,0-0.3,0-0.4c0,0,0,0,0,0v0c0-0.4-0.1-0.8-0.1-1.2v0c0-0.3-0.1-0.7-0.1-1c0-0.4-0.1-0.8-0.1-1.2c-0.1-0.8-0.1-1.6-0.2-2.4
	c0-0.4-0.1-0.8-0.1-1.2c0,0,0,0,0,0c0-0.1,0-0.2,0-0.3c0-0.3,0-0.6-0.1-0.9c0-0.3,0-0.6-0.1-0.8c0-0.1,0-0.1,0-0.2v0l0,0
	c0-0.5-0.1-1-0.1-1.5c0-0.6-0.1-1.1-0.1-1.6c0-0.5-0.1-0.9-0.1-1.2l0,0c0-0.1,0-0.1,0-0.2c0-0.1,0-0.2,0-0.3c0,0,0,0,0,0
	c0,0,0-0.1,0-0.1v-0.1c0,0,0,0,0-0.1V232c0-0.1,0-0.1,0-0.2c0-0.2,0-0.3,0-0.4v0c0,0,0,0,0,0v0c0-0.3,0.1-0.7,0.3-1.1v0c0,0,0,0,0,0
	c0,0,0,0,0-0.1c0,0,0-0.1,0-0.1c0-0.1,0.1-0.2,0.1-0.3c0.1-0.2,0.1-0.4,0.2-0.5c0-0.1,0.1-0.3,0.2-0.4v0c0.2-0.6,0.5-1.2,0.8-1.8h0
	c0.1-0.1,0.1-0.3,0.2-0.4c0-0.1,0.1-0.2,0.1-0.2c0,0,0,0,0,0c0,0,0,0,0,0c0-0.1,0-0.1,0.1-0.2c0.1-0.2,0.2-0.4,0.3-0.5
	c0-0.1,0.1-0.2,0.1-0.3c0,0,0,0,0-0.1c0.1-0.1,0.1-0.2,0.1-0.3c0-0.1,0-0.1,0.1-0.2c0.1-0.3,0.2-0.6,0.3-0.8v0
	c0-0.1,0.1-0.2,0.1-0.3C91.5,223.4,91.5,223.1,91.4,222.8z"/>
<path class="st32" d="M87.5,250.8c-0.3-1.5-0.8-3.3-1.3-5c-0.2-0.5-0.3-1.1-0.4-1.6c-0.1-0.4-0.2-0.7-0.3-1.1
	c-0.3-1.3-0.6-2.3-0.8-3.1c-0.2-0.7-0.3-1.5-0.4-2.3c0-0.3,0-0.5,0-0.8c0-0.4,0-0.9,0.1-1.3c0-0.6,0.1-1.2,0.2-1.9
	c0-0.2,0.1-0.4,0.1-0.6l-0.6-0.1h0c0,0.2-0.1,0.4-0.1,0.6c-0.1,0.7-0.2,1.3-0.2,2c0,0.4-0.1,0.9-0.1,1.3c0,0.3,0,0.5,0,0.8
	c0,0.8,0.2,1.6,0.4,2.4c0.2,0.9,0.6,2.4,1.1,4c0.3,0.9,0.5,1.9,0.8,2.8c0.4,1.3,0.7,2.7,1,3.8c0.2,0.9,0.4,1.8,0.5,2.7v0.1
	c0,0.5-0.2,1.1-0.3,1.6c-0.3,1.2-0.9,2.9-1.6,4.7c0,0,0,0.1-0.1,0.2v0c-0.1,0.3-0.2,0.6-0.3,0.9c-0.4,1.1-0.9,2.2-1.3,3.3
	c-0.3,0.7-0.6,1.4-0.9,2.2c-0.8,2.1-1.6,4-2.2,5.5c-0.3,0.8-0.5,1.4-0.7,2c0,0,0,0,0,0.1c0,0.1-0.1,0.2-0.1,0.3
	c0.2,0.2,0.3,0.3,0.5,0.5c0-0.1,0.1-0.3,0.1-0.4c0,0,0-0.1,0-0.1c0-0.2,0.1-0.3,0.2-0.5c0.7-2,2.3-5.8,3.8-9.6h0
	c0.2-0.4,0.3-0.8,0.5-1.2c0.3-0.7,0.6-1.4,0.8-2.1c0.1-0.3,0.2-0.6,0.4-0.9c0,0,0,0,0,0c0,0,0-0.1,0-0.2c0.4-1,0.7-1.8,1-2.6
	c0.3-0.8,0.5-1.6,0.7-2.2c0.2-0.5,0.2-1,0.3-1.5v-0.1C87.9,252.7,87.7,251.7,87.5,250.8z"/>
<path id="path324" class="st41" d="M90.1,215.4l-2.6-0.4h-5.6c0,0-1.2,6.6-1.6,8.3c-0.4,1.8,0.3,3.9,0.1,6.2
	c-0.2,1.1-0.5,2.1-0.9,3.1c2.9,1.1,5.9,1.7,9,1.6c-0.1-1.4-0.2-2.4-0.1-2.7c0-1.6,2.7-6.3,3.1-7.8c0.3-1.5-1-3.9-1.3-5.2
	C89.9,217.4,89.9,216.4,90.1,215.4L90.1,215.4z"/>
<path id="path326" class="st16" d="M88.3,231.4C88.3,231.4,88.3,231.4,88.3,231.4C88.3,231.4,88.3,231.5,88.3,231.4
	c0,0.2,0,0.3,0,0.4c0,0,0,0.1,0,0.1c0,0,0,0,0,0c0,0,0,0,0,0.1c0,0,0,0.1,0,0.1c0,0,0,0,0,0c0,0,0,0,0,0v0.1c0,0,0,0.1,0,0.1
	c0,0,0,0,0,0.1v0.1c0,0.1,0,0.2,0,0.3c0,0,0,0,0,0c0,0,0,0,0,0v0.1v0.1 M88.4,232.9L88.4,232.9c0-0.1,0-0.1,0-0.1c0,0,0,0,0,0
	c0-0.1,0-0.2,0-0.3v-0.1c0,0,0-0.1,0-0.1c0,0,0-0.1,0-0.1v-0.1c0,0,0,0,0,0c0,0,0,0,0,0c0,0,0-0.1,0-0.1c0,0,0,0,0-0.1c0,0,0,0,0,0
	c0,0,0-0.1,0-0.1"/>
<path id="path328" class="st42" d="M88.4,233l-5.7-11.5l6.5,7.4c-0.4,0.8-0.7,1.7-0.8,2.6l0,0l0,0l0,0l0,0v0l0,0l0,0l0,0l0,0l0,0
	l0,0l0,0l0,0C88.3,231.7,88.4,232.2,88.4,233L88.4,233z"/>
<path id="path330" class="st38" d="M82.8,221.7c0,0,5,7.4,6.2,9.2c1.2,1.7,3.7,2.2,6.4,3c2.7,0.8,8.4,1.8,11.4,0.7
	c3-1.1,3.6-2.3,3.6-2.3l-3.8,0.5c-0.4,0-0.4-0.5,0-0.9c0.4-0.4,0.8-1.1,0.4-1.2c-0.3-0.1-1.5,0.9-2.1,1.1c-0.8,0.4-1.6,0.7-2.5,0.6
	c-3.5-0.9-7-2-10.4-3.4c-1.4-0.9-4.9-8.5-5.4-9.7c-0.5-1.2-1.2-2-2.4-1.9C83.2,217.3,81.6,219.1,82.8,221.7L82.8,221.7z"/>
<path id="path332" class="st43" d="M94.3,205c0,0-1.3,5.6-5.4,6.7c0,0-2,8.2-7.1,7.1c-0.7,1.4-1.2,2.9-1.4,4.4
	c-1.9,0-3.4-1.6-3.4-3.5c0,0,0,0,0,0c-0.4-3.7,5.3-9.1,6-10.6c0.7-1.5,0.6-4.2,2.5-5.9c1.7-1.5,4-1.8,6.1-1
	C92.6,202.9,93.6,203.8,94.3,205L94.3,205z"/>
<path id="path334" class="st44" d="M88.9,276.5c1.6-0.2,7.6,1.1,7.8,0c0.1-1.1-4.5-1.6-4.9-3.7l-4.1-0.2c-0.3,0.8-0.6,1.5-0.8,2
	C86.5,275.9,87.3,276.8,88.9,276.5L88.9,276.5z"/>
<path class="st44" d="M87.7,278.1c0,0.1,0,0.2-0.2,0.2c-0.1,0.1-0.2,0.1-0.4,0.2c-0.1,0-0.2,0-0.3,0c-0.1,0-0.2,0-0.3,0
	c-0.1,0-0.3,0-0.4,0c0.1,0,0.3,0,0.4,0c-2.1-1.3-4.1-2.6-6.1-4H82c0,0.2,0.2,0.4,0.3,0.5c0.1,0.1,0.2,0.2,0.3,0.3
	c0.1,0,0.1,0.1,0.2,0.2c0.1,0.1,0.2,0.1,0.4,0.2c0,0,0,0,0,0c0.2,0.1,0.4,0.2,0.6,0.3c0.1,0.1,0.2,0.1,0.3,0.2
	c0.1,0.1,0.3,0.1,0.4,0.2c0.2,0.1,0.4,0.2,0.6,0.3c0.1,0,0.2,0.1,0.3,0.1c0.1,0,0.2,0.1,0.3,0.1c0.1,0.1,0.2,0.1,0.3,0.2
	c0.2,0.1,0.3,0.1,0.4,0.2c0.3,0.1,0.5,0.2,0.6,0.4c0.1,0,0.1,0.1,0.2,0.1c0,0,0.1,0.1,0.1,0.1C87.7,277.9,87.7,278,87.7,278.1z"/>
<path id="path338" class="st45" d="M80.3,223.3c-1.2-1.7-1.4-3.9-0.5-5.8c0.4,0.7,1.1,1.2,1.9,1.4c-0.5,1-0.9,2-1.2,3
	C80.4,222.3,80.4,222.8,80.3,223.3L80.3,223.3L80.3,223.3z"/>
<path id="path340" class="st23" d="M242.2,205.5l0.8,5.5l1.1,2.5c-2.9,0.3-5.9,0.3-8.9,0l4.7-2.6l-0.8-5L242.2,205.5L242.2,205.5z"
	/>
<path id="path342" class="st46" d="M235.3,213.4c2.9,0.3,5.9,0.3,8.9,0l-1.1-2.5l-3-0.2L235.3,213.4L235.3,213.4z"/>
<path id="path344" class="st23" d="M252.2,205.5l0.8,5.5l1.1,2.5c-2.9,0.3-5.9,0.3-8.9,0l4.7-2.6l-0.8-5L252.2,205.5L252.2,205.5z"
	/>
<path id="path346" class="st46" d="M245.3,213.4c2.9,0.3,5.9,0.3,8.9,0L253,211l-3-0.2L245.3,213.4L245.3,213.4z"/>
<path id="path348" class="st47" d="M246.9,172.1l-13.2-0.5c0.1,6.1,0.3,12.6,0.7,15.8c0.8,6.8,4.1,20.5,4.1,20.5h4.8l-2.4-24.3
	l8.1,24.3h4.5c0-3.1-6.4-31.9-6.5-34C246.9,173.3,246.9,172.7,246.9,172.1L246.9,172.1z"/>
<path id="path350" class="st48" d="M243.2,172.7L243.2,172.7c0,1.1,0.2,2.2,0.6,3.3c0.3,0.9,0.8,1.6,1.4,2.3
	c0.7,0.7,1.7,1.2,2.8,1.2l0-0.3c-1-0.1-1.9-0.5-2.6-1.1c-1.2-1.5-1.9-3.4-1.9-5.4l0,0L243.2,172.7L243.2,172.7z"/>
<path id="path352" class="st48" d="M239.5,175.7l1.2,8l0.3,0l-1.2-8L239.5,175.7z"/>
<path id="path354" class="st48" d="M237.9,175.7l0.5,3.4c0.2,1,0.9,1.8,1.9,2.1l0.1,0l0.1-0.3l-0.1,0c-0.9-0.3-1.5-1-1.7-1.9
	l-0.5-3.4L237.9,175.7L237.9,175.7z"/>
<path id="path356" class="st23" d="M249.6,153.7c-2.2-2.8-5.5-4.6-9.1-5c-2-0.2-4-0.3-6,0c-3,0.3-6.1,0.2-9.1-0.4
	c-4-1.4-6-7.8-6-7.8c0-1.7-1.5-4.8-2.1-4.6c-0.6,0.2,0,2.5,0,2.5H213l3.1,2.9c4.7,15.7,17.4,14.4,17.4,14.4s0,11.1,0.2,19.5
	c5.2,3.9,11.2-0.3,13.2-1.8c0-4.1,0.4-8.2,1.2-12.2c3.8,3.5,6.1,15,6.1,15l-0.1,3.4c0.6-0.2,1.3-0.2,1.9,0.1c0.5,0.2-0.2,1.7,0,1.9
	c0.2,0.2,0.8-0.6,0.9-1.7c0.2-5.1-0.2-10.3-1.1-15.3C254.5,160.4,252.4,156.8,249.6,153.7L249.6,153.7z"/>
<path id="path358" class="st38" d="M217.2,135.9c-0.6,0.2,0,2.5,0,2.5H213l3.1,2.9l3.2-0.8C219.3,138.7,217.7,135.6,217.2,135.9
	L217.2,135.9z"/>
<path id="path360" class="st38" d="M239.6,138l-2.8,3.1l1.1,0.5c0,0-0.6,1.2-1,2.5c-0.5,1.2,2.1,1.2,2.2,1.9
	c0.1,0.6-0.3,2.1-0.3,3.2c0.6,0.7,3.6,0.2,3.6,0.2l1.1-4.2c0,0,3-2.7,3.3-4.7c0.3-2-3.4-3.4-4.3-3.9c-0.8-0.5-0.8-2.4-1.6-2.6
	S239.3,136.2,239.6,138L239.6,138z"/>
<path id="path362" class="st16" d="M242.4,149.2L242.4,149.2l1-4l0,0L242.4,149.2"/>
<path id="path364" class="st10" d="M238.8,148.6L238.8,148.6c0.1-0.8,0.3-1.7,0.3-2.3C239.1,146.9,238.9,147.8,238.8,148.6
	L238.8,148.6z"/>
<path id="path366" class="st16" d="M238.8,149.3L238.8,149.3c0-0.2,0-0.4,0-0.7l0,0C238.8,148.8,238.8,149,238.8,149.3"/>
<path id="path368" class="st16" d="M243.6,145.1C243.6,145.1,243.6,145.1,243.6,145.1"/>
<path id="path370" class="st39" d="M240.4,149.6c-0.6,0.1-1.1-0.1-1.6-0.4c0-0.2,0-0.4,0-0.7c0.1-0.8,0.3-1.7,0.3-2.3v0
	c0-0.1,0-0.2,0-0.3l0,0l0,0l0,0l0,0l0,0l0,0l0,0c-0.1-0.4-1.2-0.6-1.8-0.9c0.6,0.2,1.2,0.3,1.9,0.2c1.2,0,2.4-0.2,3.6-0.5l0.9,0.3
	l0,0l-0.1,0.1l0,0l-1,4l-0.1,0.3h0C241.7,149.6,241.1,149.6,240.4,149.6L240.4,149.6z"/>
<path id="path372" class="st49" d="M246.8,140.5c0.3-2-3.4-3.4-4.3-3.9c-0.8-0.5-0.8-2.4-1.6-2.6c-0.8-0.2-2.3,1.5-1.4,4
	c1.4,0.9,2.9,1.6,4.5,2.1l-1,2.8c0,0,1.3-0.4,1.3,0.3c-0.1,0.7-1.3,1.9-1.8,1.5c0,0-0.7,0.9,0.7,1.6l0.3-1.2
	C243.5,145.2,246.5,142.5,246.8,140.5L246.8,140.5z"/>
<path id="path374" class="st48" d="M248.3,206.1h4.9v-0.3h-4.9V206.1z"/>
<path id="path376" class="st48" d="M238,206.3h5.1V206H238L238,206.3z"/>
<path id="path378" class="st49" d="M238,148.5c0,0.2-0.1,0.3-0.1,0.5c0,0.5,0.3,1,0.8,1.2c0.6,0.3,1.2,0.4,1.9,0.4
	c1.2,0,2.3-0.3,3.4-0.9l-0.1-0.3c-1,0.5-2.1,0.8-3.2,0.8c-0.6,0-1.2-0.1-1.7-0.4c-0.4-0.2-0.6-0.5-0.6-0.9c0-0.1,0-0.3,0.1-0.4
	L238,148.5L238,148.5z"/>
<path id="path380" class="st49" d="M254.1,175.5h2.9v-0.3h-2.9V175.5z"/>
<path id="path382" class="st49" d="M219.5,140.9l-3.1,1.1l0.1,0.3l3.1-1.1L219.5,140.9z"/>
<path id="path384" class="st16" d="M248.1,161.1C248.1,161.1,248.1,161.1,248.1,161.1c0,0.1,0,0.1,0,0.1v0c0,0,0,0,0,0
	c0,0,0,0.1,0,0.1c0,0.1,0,0.1,0,0.2l0,0.3c0,0.2-0.1,0.4-0.1,0.6c0,0,0,0,0,0s0,0,0,0c-0.1,0.4-0.2,1-0.3,1.6c0,0.3-0.1,0.6-0.1,1
	c-0.1,0.5-0.1,1-0.2,1.6 M247.5,164.9c0-0.3,0.1-0.6,0.1-1c0.1-0.6,0.2-1.1,0.3-1.6c0,0,0,0,0,0s0,0,0,0c0-0.2,0.1-0.4,0.1-0.6
	l0-0.3c0-0.1,0-0.1,0-0.2c0-0.1,0-0.2,0-0.2"/>
<path id="path386" class="st50" d="M247.3,166.5c-4.3-0.2-1.6-9.9-1.6-9.9c0.4,1.7,1.2,3.2,2.4,4.5l0,0
	C248.1,161.2,247.6,163.6,247.3,166.5L247.3,166.5z"/>
<path id="path388" class="st51" d="M242,195.5L242,195.5l-1-10.4l-0.4,14.4v0l-0.2,6.3l0,0.2v0h2.7v0L242,195.5z M243,206.3h-2.7
	l0,1.6h2.9L243,206.3z"/>
<path id="path390" class="st52" d="M243,206.3h-2.7V206h2.7L243,206.3L243,206.3z"/>
<path id="path392" class="st38" d="M256,181.4c0.2,0.2,0.8-0.6,0.9-1.7c0.1-0.6,0.1-2,0-3.7l-2.8-0.1l0,0l0,0.1l-0.1,3.4
	c0.6-0.2,1.3-0.2,1.9,0.1C256.5,179.8,255.8,181.3,256,181.4L256,181.4z"/>
<path class="st53" d="M247.8,214.1L247.8,214.1l-0.1,1.5v0h-12.9l0.1-1.5v0h-1.5v0l-0.2,2.5l-1.3,15l0,0.6l-0.3,3.5l-0.5,5.4
	l-0.1,0.6l-0.2,2.4l-1.4,15.8l0,0.2l-0.8,8.8l0,0.4c0.3-0.3,0.6-0.5,0.9-0.7c0.2-0.2,0.5-0.3,0.7-0.4l0.1-0.6l0.5-6.3h6.3
	c0.4-0.4,0.7-0.7,1.1-1.1h-7.3l0-0.1l0-0.2l0.7-8.2l0.1-0.6l0.1-1h12.9l-0.1,1.7l-0.1,1.5c0.1-0.1,0.1-0.2,0.2-0.3v0
	c0.5-0.6,1-1.2,1.4-1.7l0.1-1.3l0.1-1.1l0.6-6.9v0l0-0.6v0l0.2-2.5l0.1-1.1l0.9-10l0.1-1.1l0.5-6.4l0.3-3.6l0.1-1.1l0.1-1.5v0H247.8
	z M245.3,243.7L245.3,243.7l-0.1,1.4l-0.3,4v0h-12.9l0.4-4.8l0.1-1.7l0.1-0.6l0.2-2.8h12.9L245.3,243.7z M245.7,237.9L245.7,237.9
	l-12.9,0l0.2-2.1l0.2-2.8l0.1-0.6l0.4-4.4h12.9L245.7,237.9z M247.3,220.3l-0.6,6.4v0h-12.9l0.1-0.9v0l0.1-1.1l0.3-4l0.3-3.9l0-0.1
	h12.9L247.3,220.3z"/>
<path id="path396" class="st13" d="M231.3,214.1h26.6v-0.8h-26.6V214.1z"/>
<path id="path398" class="st54" d="M243.1,214.1h-11.7v-0.8h11.7V214.1L243.1,214.1z"/>
<path id="path400" class="st13" d="M254.7,216.7h-13.6l-0.1-1.1h13.6L254.7,216.7L254.7,216.7z"/>
<path id="path402" class="st55" d="M244.1,216.7h-3l-0.1-1.1h3L244.1,216.7L244.1,216.7z"/>
<path id="path404" class="st13" d="M255.7,227.9h-13.6l-0.1-1.1h13.6L255.7,227.9L255.7,227.9z"/>
<path id="path406" class="st55" d="M245.1,227.9h-3l-0.1-1.1h3L245.1,227.9L245.1,227.9z"/>
<path class="st13" d="M255.9,237.9H243v0l0.1,1.1H255C255.2,238.6,255.5,238.2,255.9,237.9z"/>
<path id="path410" class="st55" d="M246,239h-3l-0.1-1.1h3L246,239L246,239z"/>
<path class="st13" d="M248,249c-0.3,0.4-0.6,0.8-0.9,1.1H244l-0.1-1.1v0H248z"/>
<path id="path414" class="st55" d="M247,250.2h-3l-0.1-1.1v0h3L247,250.2L247,250.2z"/>
<path class="st13" d="M244.4,253.5c-0.4,0.4-0.7,0.9-1.1,1.3l-0.4-4.5l-0.1-1.1l0-0.2l-0.1-1l-0.3-3.6l-0.5-5.2l-0.1-1.1l-0.1-1.2
	l-0.1-1.2l-0.7-7.6l-0.1-1.2l-0.7-8.2l-0.2-1.8l-0.1-1.1l-0.1-1.5v0h1.5v0l0.1,1.5l0,0l0.1,1.1v0l0.2,2.3l0.7,7.7v0l0.1,1.1v0l0.4,5
	l0.1,1.2l0.3,3.8v0l0.1,1.1v0.1l0.5,5.2l0.1,1.5l0.1,1l0.2,2.3v0l0.1,1.1v0l0.2,1.7l0.1,1.2v0C244.5,253.3,244.5,253.4,244.4,253.5z
	"/>
<path class="st13" d="M257.5,234.7c-0.4,0.8-0.9,1.5-1.3,2.3l-0.8-9.1l-0.1-1.1l-0.8-9.5l0-0.5l-0.1-1.1l-0.1-1.5v0h1.5v0l0.1,1.3v0
	l1.6,18.3l0.1,0.9L257.5,234.7z"/>
<path id="path424" class="st16" d="M237.9,139.9c0-0.1,0-0.1-0.1-0.2h0.1C238,139.7,238,139.8,237.9,139.9L237.9,139.9"/>
<path id="path426" class="st56" d="M238,139.7h-0.1c-0.1-0.4-0.1-0.9-0.1-1.3h0.5v0C238.1,138.8,238,139.2,238,139.7L238,139.7z"/>
<path id="path428" class="st57" d="M238.3,138.4h-0.5c0-0.7,0.2-1.4,0.3-2.1C238.1,137,238.1,137.7,238.3,138.4L238.3,138.4z"/>
<path id="path430" class="st16" d="M238,140c0,0,0-0.1-0.1-0.1l0.1-0.1C238,140,238,140,238,140"/>
<path class="st58" d="M53,247.8c0.2,0.2,0.3,0.5,0.5,0.7c0.2,0.3,0.4,0.6,0.6,0.8c0.8,1,1.6,2,2.4,3l0.3,2.1c0.1,0,0.1,0.1,0.2,0.1
	c0.9,0.2,1.8,0.6,2.5,1.2c0.7,0.6,1.3,1.3,1.8,2.1c0.2,0.2,0.3,0.4,0.5,0.6c0,0,0,0,0,0c0,0,0,0,0,0c0,0,0,0.1,0,0.1
	c0.1,0.2,0.2,0.3,0.3,0.5c0.1,0.1,0.2,0.2,0.3,0.3c0,0,0.1,0,0.1,0.1h1.1v-17.9H48.7c0.2,0.3,0.3,0.7,0.4,1.1h0.1c1,1.5,2,3,3.1,4.4
	C52.6,247.3,52.8,247.5,53,247.8z"/>
<path id="path436" class="st16" d="M15.9,259.4L15.9,259.4L15.9,259.4"/>
<path id="path440" class="st59" d="M56.8,247.9l-0.3-1.7l-0.9,0.2c0.8-1.6,2.1-3,3.7-3.9h3.2v4.4L56.8,247.9L56.8,247.9z"/>
<path class="st30" d="M49.2,242.6h13.3v16.8h1.1v-17.9H48.7C48.9,241.8,49,242.2,49.2,242.6z"/>
<path class="st6" d="M69.1,260.8l-0.1-0.6v0l0-0.2l-0.1-0.7v0l-0.3-1.9v0l-1.9-11.2l-3.1,0.5l-1.1,0.2l-5.7,1l-0.9,0.2l-2.3,0.4
	c0.2,0.3,0.4,0.6,0.6,0.8c0.8,1,1.6,2,2.4,3l0.3,2.1c0.1,0,0.1,0.1,0.2,0.1c0.9,0.2,1.8,0.6,2.5,1.2c0.7,0.6,1.3,1.3,1.8,2.1
	c0.2,0.2,0.3,0.4,0.5,0.6c0,0,0,0,0,0c0,0,0,0,0,0c0,0,0,0.1,0,0.1c0.1,0.2,0.2,0.3,0.3,0.5c0.1,0.1,0.2,0.2,0.3,0.3
	c0,0,0.1,0,0.1,0.1h0.4c0.2,0.2,0.4,0.5,0.7,0.7l0.2,0.2c0,0,0,0,0,0c0.1,0.1,0.1,0.1,0.2,0.2c0,0,0,0.1-0.1,0.1
	c0.2,0.2,0.5,0.5,0.7,0.7c0,0,0.1,0,0.1-0.1c0.3,0.3,0.7,0.7,1,1c-0.1,0.1-0.1,0.1-0.2,0.2c0.1,0.1,0.2,0.3,0.3,0.4
	c0.3,0.3,0.5,0.6,0.7,0.9l0.6-0.1c0.3,0.3,0.6,0.5,0.9,0.8l1.6-0.3L69.1,260.8z"/>
<path class="st11" d="M68.1,260.8l-0.1-0.6v0l0-0.2l-0.1-0.7l-0.1-0.8l-0.2-1.1h0l-0.3-2l-1.4-8.2h0l-1.4,0.2l-0.9,0.2l-1.1,0.2
	l-5.5,0.9L56,249l-1.8,0.3c0.8,1,1.6,2,2.4,3l0.3,2.1c0.1,0,0.1,0.1,0.2,0.1c0.9,0.2,1.8,0.6,2.5,1.2c0.7,0.6,1.3,1.3,1.8,2.1
	c0.2,0.2,0.3,0.4,0.5,0.6c0,0,0,0,0,0c0,0,0,0,0,0c0,0,0,0.1,0,0.1c0.1,0.2,0.2,0.3,0.3,0.5c0.1,0.1,0.2,0.2,0.3,0.3
	c0,0,0.1,0,0.1,0.1h0.4c0.2,0.2,0.4,0.5,0.7,0.7l0.2,0.2c0,0,0,0,0,0c0.1,0.1,0.1,0.1,0.2,0.2c0,0,0,0.1-0.1,0.1
	c0.2,0.2,0.5,0.5,0.7,0.7c0,0,0.1,0,0.1-0.1c0.3,0.3,0.7,0.7,1,1c-0.1,0.1-0.1,0.1-0.2,0.2c0.1,0.1,0.2,0.3,0.3,0.4
	c0.3,0.3,0.5,0.6,0.7,0.9l0.6-0.1l1.3-0.2l0.2,0L68.1,260.8z"/>
<path class="st60" d="M68.1,260.8l-0.1-0.6v0l0-0.2l-0.1-0.7l-0.1-0.8l-0.2-1.1l-0.3-2c0,0-0.1,0-0.1,0c-0.5,0.1-1,0.3-1.5,0.4
	c-0.2,0.1-0.4,0.1-0.6,0.2c-0.5,0.1-0.9,0.3-1.4,0.4h0c-0.4,0.1-0.7,0.2-1.1,0.3c-0.5,0.1-0.9,0.3-1.4,0.5c0.1,0.1,0.2,0.2,0.2,0.4
	c0.2,0.2,0.3,0.4,0.5,0.6c0,0,0,0,0,0c0,0,0,0,0,0c0,0,0,0.1,0,0.1c0.1,0.2,0.2,0.3,0.3,0.5c0.1,0.1,0.2,0.2,0.3,0.3
	c0,0,0.1,0,0.1,0.1h0.4c0.2,0.2,0.4,0.5,0.7,0.7l0.2,0.2c0,0,0,0,0,0c0.1,0.1,0.1,0.1,0.2,0.2c0,0,0,0.1-0.1,0.1
	c0.2,0.2,0.5,0.5,0.7,0.7c0,0,0.1,0,0.1-0.1c0.3,0.3,0.7,0.7,1,1c-0.1,0.1-0.1,0.1-0.2,0.2c0.1,0.1,0.2,0.3,0.3,0.4
	c0.3,0.3,0.5,0.6,0.7,0.9l0.6-0.1l1.3-0.2l0.2,0L68.1,260.8z"/>
<path class="st12" d="M61.6,253c0.9-0.1-0.5,1.9-1.3,3.4c0.4,0.4,0.7,0.8,1,1.3c0,0,0.1,0,0.1,0c0.1,0,0.2,0,0.3,0
	c0.1,0,0.1,0,0.2,0.1c0,0.1,0.1,0.1,0,0.3c0,0,0,0,0,0.1c0,0,0,0.1,0,0.1c0,0,0,0,0,0v0c0,0,0,0.1,0,0.1h0c0,0,0,0,0,0c0,0,0,0,0,0
	c0,0,0,0.1,0,0.1c0.1,0.2,0.2,0.3,0.3,0.5c0.1,0.1,0.2,0.2,0.3,0.3c0,0,0.1,0,0.1,0.1h0.4c0.2,0.2,0.4,0.5,0.7,0.7l0.2,0.2
	c0,0,0,0,0,0c0.1,0.1,0.1,0.1,0.2,0.2c0,0,0,0.1-0.1,0.1c0.2,0.2,0.5,0.5,0.7,0.7c0,0,0.1,0,0.1-0.1c0.3,0.3,0.7,0.7,1,1
	c-0.1,0.1-0.1,0.1-0.2,0.2c0.1,0.1,0.2,0.3,0.3,0.4c0.3,0.3,0.5,0.6,0.7,0.9l0.6-0.1l1.3-0.2l-0.4-2.6l-0.1-0.6l0,0l0-0.2l-0.1-0.7
	l-0.3-1.9l-0.3-1.9l-0.8-4.8l-2.4-2.4l-0.6-0.6l-0.8,0.1l-1.7,0.3c-0.4,0.8-0.6,1.4-0.3,1.3c0.7-0.2,0.3,1.4-0.5,3
	C59,254.1,60.6,253.1,61.6,253z"/>
<path class="st13" d="M68.1,260.8l-0.1-0.6v0l0-0.2l-0.1-0.7l-0.1-0.8l-0.2-1.1h0l-0.3-2l-1.4-8.2h0l-1.4,0.2
	c-0.2,0.3-0.4,0.5-0.5,0.8c0,0,0,0,0,0c-0.1,0.2-0.2,0.4-0.3,0.5c-0.6,0.9-1,1.8-0.7,2c0.2,0.1,0.5,0.2,0.7,0.1c0.1,0,0.2,0,0.3,0
	c0.6,0,1.1-0.1,1,0.9c-0.1,0.8-0.8,1.7-1.3,2.5c-0.6,0.9-1,1.6-0.4,2c0.1,0.1,0.3,0.1,0.4,0.1h0c0.4,0.1,0.8,0,1.2-0.3
	c0.1,0,0.2-0.1,0.3-0.1c0.3-0.1,0.5-0.2,0.6-0.2c0.1,0,0.2,0.2,0.2,0.5c0,0.3-0.1,0.6-0.2,1h0c-0.1,0.2-0.1,0.3-0.2,0.5
	c-0.1,0.1-0.1,0.3-0.2,0.4c0,0-0.1,0.1-0.1,0.2c-0.1,0.1-0.1,0.2-0.2,0.3h0c0,0,0,0,0,0c-0.1,0.1-0.2,0.3-0.2,0.4c0,0,0,0,0,0h0
	c-0.1,0.2-0.3,0.5-0.4,0.7c0,0-0.1,0.1-0.1,0.2c0,0,0,0,0,0c-0.1,0.1-0.1,0.2-0.2,0.2c0,0,0,0.1-0.1,0.1c0.2,0.2,0.5,0.5,0.7,0.7
	c0,0,0.1,0,0.1-0.1c0,0,0,0,0,0c0.4-0.2,0.8-0.3,1.1-0.4c0,0,0,0,0,0c0.1,0,0.3,0,0.3,0c0.1,0,0.2,0.1,0.2,0.2
	c0.1,0.3-0.2,0.7-0.7,1.2c-0.1,0.1-0.1,0.1-0.2,0.2c0.1,0.1,0.2,0.3,0.3,0.4c0.3,0.3,0.5,0.6,0.7,0.9l0.6-0.1l1.3-0.2l0.2,0
	L68.1,260.8z"/>
<path class="st6" d="M53.5,248.5c0.2,0.3,0.4,0.6,0.6,0.8c0.8,1,1.6,2,2.4,3l0.3,2.1c0.1,0,0.1,0.1,0.2,0.1c0.3,0.1,0.6,0.1,0.8,0.2
	l-0.2-0.9l0,0v0l-0.8-4.9l-0.1-0.9l-0.3-1.7l-1,0.2l-3.1,0.5c0.2,0.3,0.4,0.6,0.6,0.8C53.2,248,53.3,248.3,53.5,248.5z"/>
<path class="st12" d="M56,249l0.5,3.3c-0.8-1-1.6-2-2.4-3c-0.2-0.3-0.4-0.6-0.6-0.8c-0.2-0.2-0.4-0.5-0.5-0.7l2.7-0.5l0.1,0.7
	L56,249z"/>
<path id="path492" class="st61" d="M68.8,259.4L68.8,259.4l-0.3-1.9h0L68.8,259.4L68.8,259.4z"/>
<path id="path494" class="st10" d="M68.8,259.4h-1l-0.3-1.9h1L68.8,259.4L68.8,259.4z"/>
<polyline class="st16" points="67.6,257.5 67.7,258.6 67.9,259.4 "/>
<path class="st24" d="M61.3,257.7c0,0,0.1,0,0.1,0c0,0,0,0,0,0c0.1,0,0.2,0,0.3,0h0c0.1,0,0.1,0,0.1,0.1c0,0,0,0,0,0.1
	c0,0,0,0.1,0,0.2c0,0,0,0,0,0.1c0,0,0,0.1,0,0.1c0,0,0,0,0,0c0,0,0,0.1,0,0.1v0c0,0,0,0,0,0c0,0,0,0.1,0,0.1
	c0.1,0.2,0.2,0.3,0.3,0.5c0.1,0.1,0.2,0.2,0.3,0.3c0,0,0.1,0,0.1,0.1h2.1c0,0,0,0,0,0c0.1-0.1,0.1-0.2,0.2-0.4c0,0,0,0,0,0
	c0.1-0.1,0.1-0.2,0.2-0.3c0-0.1,0.1-0.1,0.1-0.2c0.1-0.1,0.2-0.3,0.2-0.4c0.1-0.2,0.2-0.3,0.2-0.5h-4.4
	C61.2,257.6,61.2,257.6,61.3,257.7z"/>
<path id="path502" class="st26" d="M67.9,259.4h-3.3c0.4-0.6,0.7-1.2,1-1.9h2L67.9,259.4L67.9,259.4z"/>
<path class="st30" d="M62.8,259.4c0.2,0.2,0.4,0.5,0.7,0.7l0.2,0.2c0,0,0,0,0,0c0.1,0.1,0.1,0.1,0.2,0.2c0,0,0,0.1-0.1,0.1
	c0.2,0.2,0.5,0.5,0.7,0.7c0,0,0.1,0,0.1-0.1c0.3,0.3,0.7,0.7,1,1c-0.1,0.1-0.1,0.1-0.2,0.2c0.1,0.1,0.2,0.3,0.3,0.4
	c0.3,0.3,0.5,0.6,0.7,0.9l0.6-0.1c0.3,0.3,0.6,0.5,0.9,0.8l-0.9,0.2l0,0c0.4,0,0.7,0,1.1,0c0.4,0.4,0.9,0.8,1.3,1.2
	c0.1,0.1,0.2,0.2,0.3,0.3l0,0c1,0.9,2.1,1.8,3.1,2.7v-9.4H62.8z"/>
<path class="st62" d="M69.8,266.1c-0.1-0.1-0.2-0.2-0.3-0.3C69.6,265.8,69.8,265.9,69.8,266.1z"/>
<path class="st63" d="M239.8,90.5h-35.3c-0.9,0-1.7-0.3-2.2-0.9c-0.6-0.6-0.9-1.4-0.9-2.2c0-1.8,1.4-3.2,3.2-3.2h3.2
	c3.1,0,7.7-4.9,11.6-4.9s6.1,2,9.1,2c0.4,0,0.8-0.2,1.2-0.4C233.1,83.9,236.5,87.1,239.8,90.5z"/>
<path id="path544" class="st63" d="M112,103.8h-1.5v0c-3.2,0-4.8-2.5-7.2-3.1c-1.4-0.4-2.8-0.2-4.1,0.5c-1.7-2.2-4.3-3.6-7.1-3.8
	c-2.2-0.2-4.3,0.5-6,1.9c-2.4-1.7-5.3-2.7-8.2-2.7c-7.1,0-9.4,7.3-11.5,7.3h-1.8c-1.2,0-2.1,0.9-2.1,2.1s0.9,2.1,2.1,2.1H112
	c1.2,0,2.1-0.9,2.1-2.1S113.2,103.8,112,103.8L112,103.8z"/>
<path class="st64" d="M262.9,125.2c-5.7-12.9-13.5-24.6-23.1-34.7c-3.2-3.4-6.7-6.6-10.3-9.6C208.3,63,180.9,52.3,151,52.3
	c-27.3,0-52.5,8.9-72.8,24.1c-5.1,3.8-9.8,7.9-14.2,12.4c-0.6,0.6-1.2,1.2-1.7,1.8c-2,2.1-3.9,4.2-5.7,6.4c-0.1,0.1-0.2,0.2-0.2,0.3
	c-1.3,1.6-2.6,3.3-3.8,4.9c-0.4,0.6-0.9,1.2-1.3,1.8c-1.7,2.4-3.3,4.9-4.8,7.4c-7.6,12.5-13,26.5-15.6,41.4
	c-1.3,7.1-1.9,14.4-1.9,21.8c0,6.9,0.6,13.7,1.7,20.4c0.1,0.5,0.2,1,0.3,1.5c1.8,10.2,4.9,19.9,9.1,29.1c1.9,4.2,4.1,8.3,6.5,12.3
	c0.4,0.7,0.8,1.3,1.2,1.9c0.7,0.7,1.2,1.5,1.5,2.4c0.1,0.2,0.2,0.3,0.3,0.5c1,1.5,2,3,3.1,4.4c0.2,0.3,0.4,0.6,0.6,0.8
	c0.2,0.2,0.3,0.5,0.5,0.7c0.2,0.3,0.4,0.6,0.6,0.8c0.8,1,1.6,2,2.4,3c0.4,0.5,0.8,1,1.2,1.4v0l0,0c0.5,0.5,0.9,1.1,1.4,1.6
	c0.1,0.1,0.3,0.2,0.4,0.3c0.7,0.6,1.3,1.3,1.8,2.1c0.2,0.2,0.3,0.4,0.5,0.6c0,0,0,0,0,0h0c0.2,0.2,0.4,0.4,0.6,0.6
	c0.1,0.1,0.3,0.3,0.4,0.4c0.2,0.2,0.4,0.5,0.7,0.7l0.2,0.2c0,0,0,0,0,0c0.1,0.1,0.1,0.1,0.2,0.2c0.1,0.1,0.3,0.3,0.4,0.4
	c0.1,0.1,0.3,0.3,0.4,0.4c0.3,0.3,0.7,0.7,1,1c0.5,0.5,1,1,1.5,1.4c0.3,0.3,0.6,0.5,0.9,0.8c0.1,0,0.1,0.1,0.2,0.2
	c0.4,0.4,0.9,0.8,1.3,1.2c0.1,0.1,0.2,0.2,0.3,0.3l0,0c1,0.9,2.1,1.8,3.1,2.7c1.7,1.4,3.5,2.8,5.3,4.2c0.5,0.4,1,0.8,1.6,1.2
	c0.2,0.1,0.3,0.2,0.5,0.4c0,0,0.1,0.1,0.1,0.1c2,1.4,4,2.8,6.1,4c0,0,0,0,0,0c14.7,9.1,31.5,15.2,49.6,17.4
	c4.8,0.6,9.8,0.9,14.8,0.9s10-0.3,14.8-0.9c22.6-2.7,43.2-11.6,60.3-24.9c0.5-0.4,1-0.8,1.5-1.2c0.4-0.3,0.7-0.6,1.1-0.9
	c0.5-0.4,1.1-0.9,1.6-1.3c2.4-2,4.7-4.1,6.9-6.3c0.4-0.4,0.7-0.7,1.1-1.1c0,0,0,0,0.1-0.1c0,0,0.1-0.1,0.1-0.2
	c0.5-0.5,0.9-1,1.4-1.5c0,0,0.1-0.1,0.1-0.1c0.3-0.4,0.6-0.8,1-1.1c0.8-0.9,1.6-1.8,2.4-2.7c0.4-0.4,0.8-0.9,1.1-1.3
	c0.1-0.1,0.1-0.2,0.2-0.3v0c0.5-0.6,1-1.2,1.4-1.7c0.3-0.4,0.7-0.8,1-1.3c0.3-0.4,0.6-0.8,0.9-1.1c2.5-3.2,4.8-6.6,6.9-10
	c0.2-0.4,0.5-0.7,0.7-1.1c0.2-0.3,0.4-0.6,0.6-0.9c0.4-0.8,0.9-1.5,1.3-2.3c0,0,0-0.1,0-0.1c0.1-0.2,0.2-0.4,0.3-0.5v0
	c2-3.7,3.9-7.5,5.6-11.4c0.1-0.2,0.2-0.4,0.3-0.6c0.6-1.5,1.2-3,1.8-4.5c0.9-2.4,1.8-4.9,2.5-7.4c0.1-0.2,0.1-0.4,0.2-0.6
	c0.7-2.3,1.3-4.7,1.9-7c0,0,0,0,0,0c0.1-0.7,0.3-1.3,0.4-2c0,0,0,0,0,0c0.6-2.9,1.2-5.9,1.6-8.9c0.8-5.6,1.2-11.3,1.2-17.1
	C273.2,157,269.5,140.3,262.9,125.2z"/>
</svg>
